<?xml version="1.0" encoding="utf-8"?>
<!-- Generator: Adobe Illustrator 19.0.0, SVG Export Plug-In . SVG Version: 6.00 Build 0)  -->
<svg version="1.1" id="InteractiveSVG" xmlns="http://www.w3.org/2000/svg" xmlns:xlink="http://www.w3.org/1999/xlink" x="0px"
	 y="0px" viewBox="-365 -60 227.5 921" style="enable-background:new -365 -60 227.5 921;" xml:space="preserve">
<style type="text/css">
	.st0{fill:#335B7D;}
	.st1{fill:#F04861;}
	.st2{enable-background:new    ;}
	.st3{fill:#FFFFFF;}
	.st4{fill:none;}
	.st5{fill:#0EBECC;}
	.st6{fill:#51234D;}
</style>
<g id="background_1_">
	<rect id="XMLID_4_" x="-365" y="-60.1" class="st0" width="227.5" height="921"/>
</g>
<g id="timeline">
	<g id="morning">
		<polygon id="morning-arrow" class="st1" points="-251.2,118.3 -215.8,82.9 -286.6,82.9 		"/>
		<g id="morning-badge">
			<rect id="morning-square" x="-365" y="-60.1" class="st1" width="227.5" height="144"/>
			<g id="morning-title">
				<g class="st2">
					<path class="st3" d="M-288.2-35.6v-3.6h8.1v1.9l-4.5,9.3h-2.7l4.3-9h-2.8v1.4H-288.2z"/>
					<path class="st3" d="M-278.2-32.5c-0.3-0.3-0.4-0.6-0.4-1c0-0.4,0.1-0.7,0.4-1c0.3-0.3,0.6-0.4,1-0.4s0.7,0.1,1,0.4
						c0.3,0.3,0.4,0.6,0.4,1c0,0.4-0.1,0.7-0.4,1c-0.3,0.3-0.6,0.4-1,0.4S-277.9-32.2-278.2-32.5z M-278.2-28.3
						c-0.3-0.3-0.4-0.6-0.4-1c0-0.4,0.1-0.7,0.4-1c0.3-0.3,0.6-0.4,1-0.4s0.7,0.1,1,0.4c0.3,0.3,0.4,0.6,0.4,1c0,0.4-0.1,0.7-0.4,1
						c-0.3,0.3-0.6,0.4-1,0.4S-277.9-28-278.2-28.3z"/>
					<path class="st3" d="M-273.5-37v-2.1h6.8v1.7l-2.3,2.6c0.9,0.1,1.6,0.5,2.1,1.1s0.7,1.3,0.7,2.1c0,1.2-0.4,2.1-1.2,2.8
						c-0.8,0.7-1.8,1-3,1s-2.5-0.4-3.8-1.3l1-2c1.1,0.7,2,1.1,2.8,1.1c0.5,0,0.9-0.1,1.2-0.4s0.5-0.6,0.5-1.1c0-0.5-0.2-0.8-0.6-1.1
						c-0.4-0.3-0.9-0.4-1.6-0.4c-0.4,0-0.8,0.1-1.5,0.3v-1.8l2.1-2.5H-273.5z"/>
					<path class="st3" d="M-259.7-27.9c-1.5,0-2.7-0.5-3.5-1.6c-0.8-1-1.2-2.5-1.2-4.2c0-1.8,0.4-3.2,1.2-4.2c0.8-1,1.9-1.6,3.5-1.6
						c1.5,0,2.7,0.5,3.5,1.6c0.8,1.1,1.2,2.5,1.2,4.2c0,1.8-0.4,3.2-1.2,4.2C-257-28.4-258.2-27.9-259.7-27.9z M-261.4-36.3
						c-0.4,0.7-0.5,1.6-0.5,2.7c0,1.1,0.2,2,0.5,2.7s0.9,1,1.6,1s1.3-0.3,1.6-1s0.5-1.6,0.5-2.7c0-1.1-0.2-2-0.5-2.7s-0.9-1-1.6-1
						S-261-37-261.4-36.3z"/>
					<path class="st3" d="M-240.6-28l-1-2.4h-4.7l-1,2.4h-2.7l4.8-11.2h2.4L-238-28H-240.6z M-244-35.8l-1.4,3.2h2.8L-244-35.8z"/>
					<path class="st3" d="M-236.8-28.3c-0.3-0.3-0.4-0.6-0.4-1c0-0.4,0.1-0.7,0.4-1c0.3-0.3,0.6-0.4,1-0.4s0.7,0.1,1,0.4
						c0.3,0.3,0.4,0.6,0.4,1c0,0.4-0.1,0.7-0.4,1c-0.3,0.3-0.6,0.4-1,0.4S-236.5-28-236.8-28.3z"/>
					<path class="st3" d="M-222.1-35l-3,6.1h-1.5l-3-6.1v7h-2.5v-11.2h3.4l2.9,6.1l2.9-6.1h3.4V-28h-2.5V-35z"/>
					<path class="st3" d="M-216.9-28.3c-0.3-0.3-0.4-0.6-0.4-1c0-0.4,0.1-0.7,0.4-1c0.3-0.3,0.6-0.4,1-0.4s0.7,0.1,1,0.4
						c0.3,0.3,0.4,0.6,0.4,1c0,0.4-0.1,0.7-0.4,1c-0.3,0.3-0.6,0.4-1,0.4S-216.6-28-216.9-28.3z"/>
				</g>
			</g>
			<g id="morning-details">
				<path id="morning-icon" class="st3" d="M-230.8,12.2l-7.2,2.4v7.5c0,0.2-0.1,0.5-0.3,0.6s-0.5,0.2-0.7,0.1l-7.2-2.3l-4.4,6.1
					c-0.1,0.2-0.4,0.3-0.6,0.3s-0.5-0.1-0.6-0.3l-4.4-6.1l-7.2,2.3c-0.2,0.1-0.5,0-0.7-0.1s-0.3-0.4-0.3-0.6v-7.5l-7.2-2.4
					c-0.2-0.1-0.4-0.2-0.5-0.5c-0.1-0.2,0-0.5,0.1-0.7l4.4-6.1l-4.4-6.1c-0.1-0.2-0.2-0.5-0.1-0.7s0.3-0.4,0.5-0.5l7.2-2.4v-7.5
					c0-0.2,0.1-0.5,0.3-0.6c0.2-0.1,0.5-0.2,0.7-0.1l7.2,2.3l4.4-6.1c0.3-0.4,1-0.4,1.3,0l4.4,6.1l7.2-2.3c0.2-0.1,0.5,0,0.7,0.1
					s0.3,0.4,0.3,0.6v7.5l7.2,2.4c0.2,0.1,0.4,0.2,0.5,0.5c0.1,0.2,0,0.5-0.1,0.7l-4.4,6.1l4.4,6.1c0.1,0.2,0.2,0.5,0.1,0.7
					C-230.4,11.9-230.6,12.1-230.8,12.2z M-251.3-9.3c-7.8,0-14.1,6.3-14.1,14.1s6.3,14.1,14.1,14.1s14.1-6.3,14.1-14.1
					S-243.5-9.3-251.3-9.3z"/>
				<rect id="XMLID_74_" x="-321.7" y="38.7" class="st4" width="140.9" height="33.9"/>
				<g class="st2">
					<path class="st3" d="M-330,38.1c-1,0-1.8,0.3-2.5,1s-1,1.5-1,2.6c0,1.1,0.3,2,1,2.6c0.6,0.7,1.5,1,2.6,1c0.9,0,1.6-0.2,2.2-0.7
						v1.1c-0.6,0.4-1.3,0.6-2.3,0.6c-1.4,0-2.5-0.4-3.3-1.3s-1.3-2-1.3-3.4s0.4-2.5,1.3-3.4c0.9-0.9,2-1.3,3.3-1.3
						c0.9,0,1.7,0.2,2.3,0.5v1.1c-0.4-0.2-0.8-0.4-1.1-0.4C-329.1,38.1-329.5,38.1-330,38.1z"/>
					<path class="st3" d="M-325.1,36.7v3.9c0.4-0.9,1.1-1.3,2.2-1.3c0.7,0,1.2,0.2,1.6,0.6c0.4,0.4,0.6,1,0.6,1.6v4.7h-1.1v-4.4
						c0-0.5-0.1-0.9-0.4-1.1c-0.3-0.3-0.6-0.4-1.1-0.4s-0.9,0.2-1.3,0.6c-0.4,0.4-0.6,0.9-0.6,1.7v3.7h-1.1v-9.5H-325.1z"/>
					<path class="st3" d="M-315.8,46.3c-1,0-1.9-0.3-2.5-1c-0.6-0.6-1-1.5-1-2.6s0.3-1.9,0.9-2.5c0.6-0.6,1.3-0.9,2.2-0.9
						s1.6,0.3,2.1,0.8c0.5,0.5,0.8,1.3,0.8,2.3c0,0.3,0,0.6-0.1,0.8h-4.7c0.1,0.7,0.3,1.2,0.8,1.6c0.4,0.4,1,0.5,1.7,0.5
						c0.7,0,1.3-0.2,1.8-0.5v1C-314.4,46.2-315,46.3-315.8,46.3z M-314.5,42.4v-0.3c0-0.6-0.2-1-0.5-1.4c-0.3-0.3-0.7-0.5-1.2-0.5
						s-1,0.2-1.3,0.6s-0.6,0.9-0.6,1.6H-314.5z"/>
					<path class="st3" d="M-308.5,45.5c0.5,0,1-0.1,1.5-0.4v1c-0.4,0.3-1,0.4-1.6,0.4c-1.1,0-1.9-0.3-2.6-1s-1-1.5-1-2.5
						c0-1,0.3-1.8,1-2.5s1.5-1.1,2.6-1.1c0.6,0,1.1,0.1,1.6,0.4v1c-0.4-0.3-0.9-0.4-1.5-0.4c-0.8,0-1.4,0.2-1.9,0.7
						c-0.5,0.5-0.7,1.1-0.7,1.9c0,0.7,0.2,1.4,0.7,1.8C-310,45.2-309.3,45.5-308.5,45.5z"/>
					<path class="st3" d="M-305.4,46.3v-9.5h1.1v9.5H-305.4z M-303,42.7l2.8,3.6h-1.3l-2.8-3.6l2.7-3.3h1.3L-303,42.7z"/>
					<path class="st3" d="M-295.6,48.6c-0.2,0-0.4,0-0.6-0.1v-1c0.1,0,0.3,0.1,0.5,0.1c0.9,0,1.6-0.5,1.9-1.6l-2.8-6.7h1.2l2.1,5.4
						c0.1-0.3,0.7-2,1.9-5.4h1.1l-2.5,6.7c-0.4,0.9-0.8,1.6-1.2,2S-295,48.6-295.6,48.6z"/>
					<path class="st3" d="M-283,42.9c0,1-0.3,1.9-0.9,2.5c-0.6,0.7-1.4,1-2.4,1c-1,0-1.8-0.3-2.3-1c-0.6-0.7-0.9-1.5-0.9-2.5
						s0.3-1.9,0.9-2.5s1.4-1,2.4-1s1.8,0.3,2.3,1C-283.3,41-283,41.8-283,42.9z M-284.1,42.9c0-0.7-0.2-1.4-0.5-1.8
						c-0.4-0.5-0.9-0.7-1.6-0.7c-0.7,0-1.2,0.3-1.6,0.8c-0.4,0.5-0.6,1.1-0.6,1.8c0,0.7,0.2,1.3,0.6,1.8c0.4,0.5,0.9,0.7,1.6,0.7
						c0.7,0,1.2-0.2,1.5-0.7C-284.3,44.2-284.1,43.6-284.1,42.9z"/>
					<path class="st3" d="M-277.2,39.4h1.1v6.8h-1.1v-1.2c-0.4,0.8-1.1,1.3-2.1,1.3c-0.7,0-1.2-0.2-1.6-0.6s-0.6-0.9-0.6-1.6v-4.7
						h1.1v4.4c0,0.5,0.1,0.9,0.4,1.1c0.3,0.3,0.6,0.4,1.1,0.4c0.5,0,0.9-0.2,1.3-0.6c0.3-0.4,0.5-0.9,0.5-1.6V39.4z"/>
					<path class="st3" d="M-273.1,39.4v1.2c0.4-0.8,1-1.3,1.9-1.3c0.2,0,0.3,0,0.4,0v1.1c-0.2-0.1-0.4-0.1-0.6-0.1
						c-0.5,0-0.9,0.2-1.2,0.7c-0.3,0.4-0.5,0.9-0.5,1.5v3.7h-1.1l0-6.8H-273.1z"/>
					<path class="st3" d="M-264.4,40.3c-0.4,0-0.6,0.1-0.9,0.2c-0.2,0.2-0.3,0.4-0.3,0.6c0,0.2,0,0.4,0.1,0.5
						c0.1,0.1,0.2,0.2,0.4,0.4c0.2,0.1,0.6,0.3,1.1,0.5c0.5,0.2,0.9,0.5,1.2,0.8c0.3,0.3,0.5,0.7,0.5,1.3s-0.2,1-0.6,1.3
						c-0.4,0.3-1,0.5-1.8,0.5s-1.4-0.1-1.9-0.4v-1c0.6,0.4,1.3,0.5,1.9,0.5c0.4,0,0.7-0.1,0.9-0.2s0.3-0.4,0.3-0.7s-0.1-0.5-0.4-0.7
						c-0.2-0.2-0.6-0.4-1.2-0.6c-0.5-0.2-1-0.5-1.3-0.8s-0.5-0.7-0.5-1.2c0-0.5,0.2-1,0.6-1.3c0.4-0.3,1-0.5,1.7-0.5
						s1.2,0.1,1.7,0.3v1C-263.1,40.4-263.7,40.3-264.4,40.3z"/>
					<path class="st3" d="M-260.8,46.3v-9.5h1.1v9.5H-260.8z"/>
					<path class="st3" d="M-254.7,46.3c-1,0-1.9-0.3-2.5-1c-0.6-0.6-1-1.5-1-2.6s0.3-1.9,0.9-2.5s1.3-0.9,2.2-0.9s1.6,0.3,2.1,0.8
						s0.8,1.3,0.8,2.3c0,0.3,0,0.6-0.1,0.8h-4.7c0.1,0.7,0.3,1.2,0.8,1.6c0.4,0.4,1,0.5,1.7,0.5s1.3-0.2,1.8-0.5v1
						C-253.3,46.2-253.9,46.3-254.7,46.3z M-253.4,42.4v-0.3c0-0.6-0.2-1-0.5-1.4c-0.3-0.3-0.7-0.5-1.2-0.5s-1,0.2-1.3,0.6
						c-0.4,0.4-0.6,0.9-0.6,1.6H-253.4z"/>
					<path class="st3" d="M-247.6,46.3c-1,0-1.9-0.3-2.5-1c-0.6-0.6-1-1.5-1-2.6s0.3-1.9,0.9-2.5s1.3-0.9,2.2-0.9s1.6,0.3,2.1,0.8
						s0.8,1.3,0.8,2.3c0,0.3,0,0.6-0.1,0.8h-4.7c0.1,0.7,0.3,1.2,0.8,1.6c0.4,0.4,1,0.5,1.7,0.5s1.3-0.2,1.8-0.5v1
						C-246.2,46.2-246.9,46.3-247.6,46.3z M-246.3,42.4v-0.3c0-0.6-0.2-1-0.5-1.4c-0.3-0.3-0.7-0.5-1.2-0.5s-1,0.2-1.3,0.6
						c-0.4,0.4-0.6,0.9-0.6,1.6H-246.3z"/>
					<path class="st3" d="M-242.6,39.4v1c0.5-0.8,1.2-1.1,2.1-1.1c0.9,0,1.6,0.3,2.2,1c0.5,0.7,0.8,1.5,0.8,2.5s-0.3,1.9-0.8,2.5
						c-0.5,0.7-1.3,1-2.1,1s-1.6-0.4-2.1-1.1v3.7h-1.1v-9.5H-242.6z M-242.6,42.8c0,0.9,0.2,1.5,0.6,2c0.4,0.4,0.9,0.6,1.4,0.6
						c0.5,0,1-0.2,1.4-0.7c0.4-0.5,0.6-1.1,0.6-1.9s-0.2-1.4-0.5-1.9c-0.4-0.5-0.8-0.7-1.4-0.7s-1,0.2-1.4,0.6
						S-242.6,41.9-242.6,42.8z"/>
					<path class="st3" d="M-235.9,37.8c-0.1-0.1-0.2-0.3-0.2-0.5c0-0.2,0.1-0.4,0.2-0.5c0.1-0.1,0.3-0.2,0.5-0.2
						c0.2,0,0.4,0.1,0.5,0.2c0.1,0.1,0.2,0.3,0.2,0.5c0,0.2-0.1,0.4-0.2,0.5c-0.1,0.1-0.3,0.2-0.5,0.2
						C-235.6,38-235.8,37.9-235.9,37.8z M-235.9,46.3v-6.8h1.1v6.8H-235.9z"/>
					<path class="st3" d="M-231.8,39.4v1.2c0.4-0.9,1.1-1.3,2.2-1.3c0.7,0,1.2,0.2,1.6,0.6c0.4,0.4,0.6,0.9,0.6,1.6v4.7h-1.1v-4.4
						c0-0.5-0.1-0.9-0.4-1.2c-0.3-0.3-0.6-0.4-1.1-0.4c-0.5,0-0.9,0.2-1.3,0.6c-0.4,0.4-0.6,0.9-0.6,1.6v3.7h-1.1v-6.8H-231.8z"/>
					<path class="st3" d="M-221.1,39.4h1.1v6.3c0,1-0.3,1.8-0.9,2.4c-0.6,0.5-1.3,0.8-2.2,0.8c-0.9,0-1.6-0.1-2.2-0.4v-1.1
						c0.6,0.3,1.2,0.5,1.9,0.5c1.5,0,2.2-0.7,2.2-2.2v-0.8c-0.5,0.8-1.1,1.2-1.9,1.2c-0.8,0-1.5-0.3-2.1-0.9
						c-0.6-0.6-0.8-1.4-0.8-2.4s0.3-1.9,0.8-2.5c0.5-0.7,1.2-1,2.1-1s1.5,0.4,2,1.2V39.4z M-224.8,42.8c0,0.8,0.2,1.3,0.6,1.7
						c0.4,0.4,0.8,0.6,1.3,0.6c0.5,0,0.9-0.2,1.3-0.6c0.4-0.4,0.6-1,0.6-1.8c0-0.8-0.2-1.4-0.6-1.9c-0.4-0.4-0.8-0.6-1.4-0.6
						s-1,0.2-1.3,0.7C-224.7,41.4-224.8,42-224.8,42.8z"/>
					<path class="st3" d="M-213.8,39.4v1c0.5-0.8,1.2-1.1,2.1-1.1c0.9,0,1.6,0.3,2.2,1c0.5,0.7,0.8,1.5,0.8,2.5s-0.3,1.9-0.8,2.5
						c-0.5,0.7-1.3,1-2.1,1s-1.6-0.4-2.1-1.1v3.7h-1.1v-9.5H-213.8z M-213.8,42.8c0,0.9,0.2,1.5,0.6,2c0.4,0.4,0.9,0.6,1.4,0.6
						c0.5,0,1-0.2,1.4-0.7c0.4-0.5,0.6-1.1,0.6-1.9s-0.2-1.4-0.5-1.9c-0.4-0.5-0.8-0.7-1.4-0.7s-1,0.2-1.4,0.6
						S-213.8,41.9-213.8,42.8z"/>
					<path class="st3" d="M-205,39.3c1.7,0,2.6,0.9,2.6,2.6v4.3h-1.1v-0.8c-0.4,0.6-1,0.9-1.9,0.9c-0.6,0-1.2-0.2-1.5-0.6
						c-0.4-0.4-0.6-0.9-0.6-1.5s0.2-1.1,0.8-1.5c0.5-0.4,1.2-0.5,2-0.5h1.2v-0.4c0-0.5-0.1-0.9-0.4-1.2c-0.2-0.3-0.7-0.4-1.3-0.4
						s-1.3,0.2-1.8,0.6v-1.1C-206.5,39.5-205.8,39.3-205,39.3z M-203.5,43.1h-1.2c-0.6,0-1,0.1-1.3,0.3s-0.4,0.5-0.4,0.9
						s0.1,0.6,0.3,0.8c0.2,0.2,0.6,0.3,1,0.3s0.8-0.1,1.1-0.4s0.4-0.6,0.4-1V43.1z"/>
					<path class="st3" d="M-199.1,40.3v4c0,0.7,0.3,1.1,1,1.1c0.4,0,0.7-0.1,0.9-0.3v1c-0.3,0.2-0.6,0.2-1,0.2c-1.3,0-2-0.7-2-2.1
						v-4h-1.1v-0.9h1.1v-1.7h1.1v1.7h1.9v0.9H-199.1z"/>
					<path class="st3" d="M-194.1,40.3v4c0,0.7,0.3,1.1,1,1.1c0.4,0,0.7-0.1,0.9-0.3v1c-0.3,0.2-0.6,0.2-1,0.2c-1.3,0-2-0.7-2-2.1
						v-4h-1.1v-0.9h1.1v-1.7h1.1v1.7h1.9v0.9H-194.1z"/>
					<path class="st3" d="M-187.5,46.3c-1,0-1.9-0.3-2.5-1c-0.6-0.6-1-1.5-1-2.6s0.3-1.9,0.9-2.5s1.3-0.9,2.2-0.9s1.6,0.3,2.1,0.8
						s0.8,1.3,0.8,2.3c0,0.3,0,0.6-0.1,0.8h-4.7c0.1,0.7,0.3,1.2,0.8,1.6c0.4,0.4,1,0.5,1.7,0.5s1.3-0.2,1.8-0.5v1
						C-186.1,46.2-186.8,46.3-187.5,46.3z M-186.2,42.4v-0.3c0-0.6-0.2-1-0.5-1.4c-0.3-0.3-0.7-0.5-1.2-0.5s-1,0.2-1.3,0.6
						c-0.4,0.4-0.6,0.9-0.6,1.6H-186.2z"/>
					<path class="st3" d="M-182.5,39.4v1.2c0.4-0.8,1-1.3,1.9-1.3c0.2,0,0.3,0,0.4,0v1.1c-0.2-0.1-0.4-0.1-0.6-0.1
						c-0.5,0-0.9,0.2-1.2,0.7c-0.3,0.4-0.5,0.9-0.5,1.5v3.7h-1.1l0-6.8H-182.5z"/>
					<path class="st3" d="M-178.1,39.4v1.2c0.4-0.9,1.1-1.3,2.2-1.3c0.7,0,1.2,0.2,1.6,0.6c0.4,0.4,0.6,0.9,0.6,1.6v4.7h-1.1v-4.4
						c0-0.5-0.1-0.9-0.4-1.2s-0.6-0.4-1.1-0.4s-0.9,0.2-1.3,0.6c-0.4,0.4-0.6,0.9-0.6,1.6v3.7h-1.1v-6.8H-178.1z"/>
					<path class="st3" d="M-169.8,40.3c-0.4,0-0.6,0.1-0.9,0.2c-0.2,0.2-0.3,0.4-0.3,0.6c0,0.2,0,0.4,0.1,0.5
						c0.1,0.1,0.2,0.2,0.4,0.4c0.2,0.1,0.6,0.3,1.1,0.5c0.5,0.2,0.9,0.5,1.2,0.8c0.3,0.3,0.5,0.7,0.5,1.3s-0.2,1-0.6,1.3
						c-0.4,0.3-1,0.5-1.8,0.5s-1.4-0.1-1.9-0.4v-1c0.6,0.4,1.3,0.5,1.9,0.5c0.4,0,0.7-0.1,0.9-0.2s0.3-0.4,0.3-0.7s-0.1-0.5-0.4-0.7
						c-0.2-0.2-0.6-0.4-1.2-0.6c-0.5-0.2-1-0.5-1.3-0.8s-0.5-0.7-0.5-1.2c0-0.5,0.2-1,0.6-1.3c0.4-0.3,1-0.5,1.7-0.5
						s1.2,0.1,1.7,0.3v1C-168.5,40.4-169.1,40.3-169.8,40.3z"/>
				</g>
				<g class="st2">
					<path class="st3" d="M-313.1,55.7c-0.2-0.1-0.4-0.1-0.7-0.1s-0.5,0.1-0.6,0.3c-0.2,0.2-0.3,0.5-0.3,0.9v0.6h1.5v0.9h-1.5v6
						h-1.1v-6h-1.2v-0.9h1.2v-0.6c0-0.7,0.2-1.2,0.5-1.6s0.8-0.6,1.5-0.6c0.2,0,0.4,0,0.7,0.1V55.7z"/>
					<path class="st3" d="M-310.8,57.4v1.2c0.4-0.8,1-1.3,1.9-1.3c0.2,0,0.3,0,0.4,0v1.1c-0.2-0.1-0.4-0.1-0.6-0.1
						c-0.5,0-0.9,0.2-1.2,0.7c-0.3,0.4-0.5,0.9-0.5,1.5v3.7h-1.1l0-6.8H-310.8z"/>
					<path class="st3" d="M-301.5,60.9c0,1-0.3,1.9-0.9,2.5c-0.6,0.7-1.4,1-2.4,1c-1,0-1.8-0.3-2.3-1c-0.6-0.7-0.9-1.5-0.9-2.5
						s0.3-1.9,0.9-2.5s1.4-1,2.4-1s1.8,0.3,2.3,1C-301.8,59-301.5,59.8-301.5,60.9z M-302.6,60.9c0-0.7-0.2-1.4-0.5-1.8
						c-0.4-0.5-0.9-0.7-1.6-0.7c-0.7,0-1.2,0.3-1.6,0.8c-0.4,0.5-0.6,1.1-0.6,1.8c0,0.7,0.2,1.3,0.6,1.8c0.4,0.5,0.9,0.7,1.6,0.7
						c0.7,0,1.2-0.2,1.5-0.7C-302.8,62.2-302.6,61.6-302.6,60.9z"/>
					<path class="st3" d="M-298.9,57.4v1.1c0.4-0.8,1-1.2,1.9-1.2c1.1,0,1.7,0.4,2,1.3c0.2-0.4,0.5-0.8,0.8-1
						c0.4-0.2,0.8-0.3,1.2-0.3c0.7,0,1.2,0.2,1.6,0.6c0.4,0.4,0.5,0.9,0.5,1.6v4.7h-1.1v-4.4c0-1-0.4-1.6-1.3-1.6
						c-0.4,0-0.8,0.2-1.2,0.6s-0.5,0.9-0.5,1.7v3.7h-1.1v-4.4c0-1-0.4-1.6-1.3-1.6c-0.4,0-0.8,0.2-1.2,0.6s-0.5,0.9-0.5,1.7v3.7
						h-1.1v-6.8H-298.9z"/>
					<path class="st3" d="M-284.1,58.3v4c0,0.7,0.3,1.1,1,1.1c0.4,0,0.7-0.1,0.9-0.3v1c-0.3,0.2-0.6,0.2-1,0.2c-1.4,0-2-0.7-2-2.1
						v-4h-1.1v-0.9h1.1v-1.7h1.1v1.7h1.9v0.9H-284.1z"/>
					<path class="st3" d="M-279.5,54.7v3.9c0.4-0.9,1.1-1.3,2.2-1.3c0.7,0,1.2,0.2,1.6,0.6c0.4,0.4,0.6,1,0.6,1.6v4.7h-1.1v-4.4
						c0-0.5-0.1-0.9-0.4-1.1c-0.3-0.3-0.6-0.4-1.1-0.4s-0.9,0.2-1.3,0.6c-0.4,0.4-0.6,0.9-0.6,1.7v3.7h-1.1v-9.5H-279.5z"/>
					<path class="st3" d="M-270.3,64.3c-1,0-1.9-0.3-2.5-1c-0.6-0.6-1-1.5-1-2.6s0.3-1.9,0.9-2.5s1.3-0.9,2.2-0.9s1.6,0.3,2.1,0.8
						s0.8,1.3,0.8,2.3c0,0.3,0,0.6-0.1,0.8h-4.7c0.1,0.7,0.3,1.2,0.8,1.6c0.4,0.4,1,0.5,1.7,0.5s1.3-0.2,1.8-0.5v1
						C-268.8,64.2-269.5,64.3-270.3,64.3z M-268.9,60.4v-0.3c0-0.6-0.2-1-0.5-1.4c-0.3-0.3-0.7-0.5-1.2-0.5s-1,0.2-1.3,0.6
						c-0.4,0.4-0.6,0.9-0.6,1.6H-268.9z"/>
					<path class="st3" d="M-259.9,64.3c-1,0-1.9-0.3-2.5-1c-0.6-0.6-1-1.5-1-2.6s0.3-1.9,0.9-2.5s1.3-0.9,2.2-0.9s1.6,0.3,2.1,0.8
						s0.8,1.3,0.8,2.3c0,0.3,0,0.6-0.1,0.8h-4.7c0.1,0.7,0.3,1.2,0.8,1.6c0.4,0.4,1,0.5,1.7,0.5s1.3-0.2,1.8-0.5v1
						C-258.5,64.2-259.1,64.3-259.9,64.3z M-258.6,60.4v-0.3c0-0.6-0.2-1-0.5-1.4c-0.3-0.3-0.7-0.5-1.2-0.5s-1,0.2-1.3,0.6
						c-0.4,0.4-0.6,0.9-0.6,1.6H-258.6z"/>
					<path class="st3" d="M-254.2,64.3l-2.4-6.8h1.1l1.9,6c0.1-0.4,0.4-1.4,1-3.1l1-2.9h1.1l-2.4,6.8H-254.2z"/>
					<path class="st3" d="M-246,64.3c-1,0-1.9-0.3-2.5-1c-0.6-0.6-1-1.5-1-2.6s0.3-1.9,0.9-2.5s1.3-0.9,2.2-0.9s1.6,0.3,2.1,0.8
						s0.8,1.3,0.8,2.3c0,0.3,0,0.6-0.1,0.8h-4.7c0.1,0.7,0.3,1.2,0.8,1.6c0.4,0.4,1,0.5,1.7,0.5s1.3-0.2,1.8-0.5v1
						C-244.6,64.2-245.3,64.3-246,64.3z M-244.7,60.4v-0.3c0-0.6-0.2-1-0.5-1.4c-0.3-0.3-0.7-0.5-1.2-0.5s-1,0.2-1.3,0.6
						c-0.4,0.4-0.6,0.9-0.6,1.6H-244.7z"/>
					<path class="st3" d="M-241,57.4v1.2c0.4-0.9,1.1-1.3,2.2-1.3c0.7,0,1.2,0.2,1.6,0.6c0.4,0.4,0.6,0.9,0.6,1.6v4.7h-1.1v-4.4
						c0-0.5-0.1-0.9-0.4-1.2c-0.3-0.3-0.6-0.4-1.1-0.4c-0.5,0-0.9,0.2-1.3,0.6c-0.4,0.4-0.6,0.9-0.6,1.6v3.7h-1.1v-6.8H-241z"/>
					<path class="st3" d="M-234.7,55.8c-0.1-0.1-0.2-0.3-0.2-0.5c0-0.2,0.1-0.4,0.2-0.5c0.1-0.1,0.3-0.2,0.5-0.2
						c0.2,0,0.4,0.1,0.5,0.2c0.1,0.1,0.2,0.3,0.2,0.5c0,0.2-0.1,0.4-0.2,0.5c-0.1,0.1-0.3,0.2-0.5,0.2
						C-234.4,56-234.5,55.9-234.7,55.8z M-234.7,64.3v-6.8h1.1v6.8H-234.7z"/>
					<path class="st3" d="M-230.6,57.4v1.2c0.4-0.9,1.1-1.3,2.2-1.3c0.7,0,1.2,0.2,1.6,0.6c0.4,0.4,0.6,0.9,0.6,1.6v4.7h-1.1v-4.4
						c0-0.5-0.1-0.9-0.4-1.2s-0.6-0.4-1.1-0.4s-0.9,0.2-1.3,0.6c-0.4,0.4-0.6,0.9-0.6,1.6v3.7h-1.1v-6.8H-230.6z"/>
					<path class="st3" d="M-219.9,57.4h1.1v6.3c0,1-0.3,1.8-0.9,2.4c-0.6,0.5-1.3,0.8-2.2,0.8c-0.9,0-1.6-0.1-2.2-0.4v-1.1
						c0.6,0.3,1.2,0.5,1.9,0.5c1.5,0,2.2-0.7,2.2-2.2v-0.8c-0.5,0.8-1.1,1.2-1.9,1.2c-0.8,0-1.5-0.3-2.1-0.9
						c-0.6-0.6-0.8-1.4-0.8-2.4s0.3-1.9,0.8-2.5c0.5-0.7,1.2-1,2.1-1s1.5,0.4,2,1.2V57.4z M-223.6,60.8c0,0.8,0.2,1.3,0.6,1.7
						c0.4,0.4,0.8,0.6,1.3,0.6c0.5,0,0.9-0.2,1.3-0.6c0.4-0.4,0.6-1,0.6-1.8c0-0.8-0.2-1.4-0.6-1.9c-0.4-0.4-0.8-0.6-1.4-0.6
						s-1,0.2-1.3,0.7C-223.4,59.4-223.6,60-223.6,60.8z"/>
					<path class="st3" d="M-212.6,57.4v1c0.5-0.8,1.2-1.1,2.1-1.1c0.9,0,1.6,0.3,2.2,1c0.5,0.7,0.8,1.5,0.8,2.5s-0.3,1.9-0.8,2.5
						c-0.5,0.7-1.3,1-2.1,1c-0.9,0-1.6-0.4-2.1-1.1v3.7h-1.1v-9.5H-212.6z M-212.6,60.8c0,0.9,0.2,1.5,0.6,2
						c0.4,0.4,0.9,0.6,1.4,0.6c0.5,0,1-0.2,1.4-0.7c0.4-0.5,0.6-1.1,0.6-1.9s-0.2-1.4-0.5-1.9c-0.4-0.5-0.8-0.7-1.4-0.7
						s-1,0.2-1.4,0.6S-212.6,59.9-212.6,60.8z"/>
					<path class="st3" d="M-204.9,57.4v1.2c0.4-0.8,1-1.3,1.9-1.3c0.2,0,0.3,0,0.4,0v1.1c-0.2-0.1-0.4-0.1-0.6-0.1
						c-0.5,0-0.9,0.2-1.2,0.7c-0.3,0.4-0.5,0.9-0.5,1.5v3.7h-1.1l0-6.8H-204.9z"/>
					<path class="st3" d="M-201.5,55.8c-0.1-0.1-0.2-0.3-0.2-0.5c0-0.2,0.1-0.4,0.2-0.5c0.1-0.1,0.3-0.2,0.5-0.2
						c0.2,0,0.4,0.1,0.5,0.2c0.1,0.1,0.2,0.3,0.2,0.5c0,0.2-0.1,0.4-0.2,0.5c-0.1,0.1-0.3,0.2-0.5,0.2
						C-201.2,56-201.3,55.9-201.5,55.8z M-201.5,64.3v-6.8h1.1v6.8H-201.5z"/>
					<path class="st3" d="M-192.4,60.9c0,1-0.3,1.9-0.9,2.5c-0.6,0.7-1.4,1-2.4,1c-1,0-1.8-0.3-2.3-1c-0.6-0.7-0.9-1.5-0.9-2.5
						s0.3-1.9,0.9-2.5c0.6-0.7,1.4-1,2.4-1c1,0,1.8,0.3,2.3,1C-192.7,59-192.4,59.8-192.4,60.9z M-193.5,60.9c0-0.7-0.2-1.4-0.5-1.8
						c-0.4-0.5-0.9-0.7-1.6-0.7c-0.7,0-1.2,0.3-1.6,0.8c-0.4,0.5-0.6,1.1-0.6,1.8c0,0.7,0.2,1.3,0.6,1.8c0.4,0.5,0.9,0.7,1.6,0.7
						s1.2-0.2,1.5-0.7C-193.7,62.2-193.5,61.6-193.5,60.9z"/>
					<path class="st3" d="M-189.8,57.4v1.2c0.4-0.8,1-1.3,1.9-1.3c0.2,0,0.3,0,0.4,0v1.1c-0.2-0.1-0.4-0.1-0.6-0.1
						c-0.5,0-0.9,0.2-1.2,0.7c-0.3,0.4-0.5,0.9-0.5,1.5v3.7h-1.1l0-6.8H-189.8z"/>
					<path class="st3" d="M-186.9,64.1c-0.2-0.2-0.2-0.3-0.2-0.6s0.1-0.4,0.2-0.6c0.2-0.2,0.3-0.2,0.6-0.2c0.2,0,0.4,0.1,0.6,0.2
						c0.2,0.2,0.2,0.3,0.2,0.6s-0.1,0.4-0.2,0.6c-0.2,0.2-0.3,0.2-0.6,0.2C-186.5,64.4-186.7,64.3-186.9,64.1z"/>
				</g>
			</g>
		</g>
	</g>
	<g id="mid-morning">
		<polygon id="mid-morning-arrow" class="st5" points="-286.6,277.1 -215.8,277.1 -251.2,312.5 		"/>
		<g id="mid-morning-badge">
			<rect id="mid-morning-square" x="-365" y="134.1" class="st5" width="227.5" height="144"/>
			<g id="mid-morning-title">
				<g class="st2">
					<path class="st3" d="M-290.3,152.9h4.5v11.2h-2.4V155h-2.1V152.9z"/>
					<path class="st3" d="M-278.8,164.2c-1.5,0-2.7-0.5-3.5-1.6c-0.8-1-1.2-2.5-1.2-4.2c0-1.8,0.4-3.2,1.2-4.2
						c0.8-1,1.9-1.6,3.5-1.6c1.5,0,2.7,0.5,3.5,1.6c0.8,1.1,1.2,2.5,1.2,4.2c0,1.8-0.4,3.2-1.2,4.2
						C-276.1,163.7-277.3,164.2-278.8,164.2z M-280.5,155.7c-0.4,0.7-0.5,1.6-0.5,2.7c0,1.1,0.2,2,0.5,2.7s0.9,1,1.6,1
						s1.3-0.3,1.6-1s0.5-1.6,0.5-2.7c0-1.1-0.2-2-0.5-2.7s-0.9-1-1.6-1S-280.1,155-280.5,155.7z"/>
					<path class="st3" d="M-271.8,159.6c-0.3-0.3-0.4-0.6-0.4-1c0-0.4,0.1-0.7,0.4-1c0.3-0.3,0.6-0.4,1-0.4s0.7,0.1,1,0.4
						c0.3,0.3,0.4,0.6,0.4,1c0,0.4-0.1,0.7-0.4,1c-0.3,0.3-0.6,0.4-1,0.4S-271.5,159.8-271.8,159.6z M-271.8,163.8
						c-0.3-0.3-0.4-0.6-0.4-1c0-0.4,0.1-0.7,0.4-1c0.3-0.3,0.6-0.4,1-0.4s0.7,0.1,1,0.4c0.3,0.3,0.4,0.6,0.4,1c0,0.4-0.1,0.7-0.4,1
						c-0.3,0.3-0.6,0.4-1,0.4S-271.5,164-271.8,163.8z"/>
					<path class="st3" d="M-267.8,152.9h4.5v11.2h-2.4V155h-2.1V152.9z"/>
					<path class="st3" d="M-253.8,152.9v2.2h-4.4v1.9c0.3-0.1,0.7-0.1,1.1-0.1c1.1,0,2,0.3,2.8,1c0.8,0.7,1.2,1.5,1.2,2.6
						c0,1.1-0.4,2-1.2,2.7c-0.8,0.7-1.8,1.1-3,1.1c-1.5,0-2.8-0.6-3.8-1.7l1.3-1.8c0.1,0.1,0.2,0.2,0.4,0.4c0.2,0.1,0.5,0.3,0.9,0.6
						s0.9,0.3,1.3,0.3c0.4,0,0.8-0.1,1.1-0.4s0.5-0.6,0.5-1.1c0-0.5-0.2-0.9-0.5-1.2c-0.4-0.3-0.8-0.4-1.4-0.4s-1.2,0.2-2,0.6
						l-1-1.1v-5.5H-253.8z"/>
					<path class="st3" d="M-238.8,164.1l-1-2.4h-4.7l-1,2.4h-2.7l4.8-11.2h2.4l4.8,11.2H-238.8z M-242.2,156.2l-1.4,3.2h2.8
						L-242.2,156.2z"/>
					<path class="st3" d="M-234.9,163.8c-0.3-0.3-0.4-0.6-0.4-1c0-0.4,0.1-0.7,0.4-1c0.3-0.3,0.6-0.4,1-0.4s0.7,0.1,1,0.4
						c0.3,0.3,0.4,0.6,0.4,1c0,0.4-0.1,0.7-0.4,1c-0.3,0.3-0.6,0.4-1,0.4S-234.6,164-234.9,163.8z"/>
					<path class="st3" d="M-220.2,157l-3,6.1h-1.5l-3-6.1v7h-2.5v-11.2h3.4l2.9,6.1l2.9-6.1h3.4v11.2h-2.5V157z"/>
					<path class="st3" d="M-215,163.8c-0.3-0.3-0.4-0.6-0.4-1c0-0.4,0.1-0.7,0.4-1c0.3-0.3,0.6-0.4,1-0.4c0.4,0,0.7,0.1,1,0.4
						c0.3,0.3,0.4,0.6,0.4,1c0,0.4-0.1,0.7-0.4,1c-0.3,0.3-0.6,0.4-1,0.4C-214.4,164.2-214.8,164-215,163.8z"/>
				</g>
			</g>
			<g id="mid-morning-details">
				<path id="mid-morning-icon" class="st3" d="M-229.3,210.8c0,2.6-1.8,4.7-4.1,4.7h-35.7c-2.3,0-4.1-2.1-4.1-4.7v-26.7h5.5v-3.2
					h38.5L-229.3,210.8L-229.3,210.8z M-267.8,187.1h-2.7v23.6c0,0.9,0.6,1.6,1.4,1.6s1.4-0.7,1.4-1.6L-267.8,187.1L-267.8,187.1z
					 M-232,184h-33v26.7c0,0.5-0.1,1.1-0.2,1.6h31.9c0.8,0,1.4-0.7,1.4-1.6L-232,184L-232,184z M-248.5,202.9h-13.7v-15.7h13.7
					L-248.5,202.9L-248.5,202.9z M-248.5,209.1h-13.7V206h13.7L-248.5,209.1L-248.5,209.1z M-259.5,190.3v9.4h8.2v-9.4H-259.5z
					 M-234.8,190.3h-11v-3.1h11V190.3z M-234.8,196.5h-11v-3.1h11V196.5z M-234.8,202.9h-11v-3.1h11V202.9z M-234.8,209.1h-11V206
					h11V209.1z"/>
				<rect id="XMLID_23_" x="-321.7" y="234.8" class="st4" width="140.9" height="33.9"/>
				<g class="st2">
					<path class="st3" d="M-326.9,235.7h-1.4v3.6h-1.1v-9.1h2.3c1.1,0,1.9,0.2,2.4,0.7s0.8,1.2,0.8,2.1c0,0.6-0.2,1.2-0.5,1.6
						c-0.3,0.4-0.8,0.8-1.3,0.9l2.4,3.8h-1.3L-326.9,235.7z M-328.3,231.1v3.6h1.4c0.6,0,1.1-0.2,1.4-0.5c0.3-0.3,0.5-0.8,0.5-1.3
						c0-1.2-0.7-1.8-2-1.8H-328.3z"/>
					<path class="st3" d="M-319,239.4c-1,0-1.9-0.3-2.5-1c-0.6-0.6-1-1.5-1-2.6s0.3-1.9,0.9-2.5c0.6-0.6,1.3-0.9,2.2-0.9
						s1.6,0.3,2.1,0.8c0.5,0.5,0.8,1.3,0.8,2.3c0,0.3,0,0.6-0.1,0.8h-4.7c0.1,0.7,0.3,1.2,0.8,1.6c0.4,0.4,1,0.5,1.7,0.5
						c0.7,0,1.3-0.2,1.8-0.5v1C-317.6,239.2-318.2,239.4-319,239.4z M-317.7,235.4v-0.3c0-0.6-0.2-1-0.5-1.4
						c-0.3-0.3-0.7-0.5-1.2-0.5s-1,0.2-1.3,0.6c-0.4,0.4-0.6,0.9-0.6,1.6H-317.7z"/>
					<path class="st3" d="M-313.2,239.3l-2.4-6.8h1.1l1.9,6c0.1-0.4,0.4-1.4,1-3.1l1-2.9h1.1l-2.4,6.8H-313.2z"/>
					<path class="st3" d="M-308.1,230.8c-0.1-0.1-0.2-0.3-0.2-0.5c0-0.2,0.1-0.4,0.2-0.5c0.1-0.1,0.3-0.2,0.5-0.2s0.4,0.1,0.5,0.2
						c0.1,0.1,0.2,0.3,0.2,0.5c0,0.2-0.1,0.4-0.2,0.5c-0.1,0.1-0.3,0.2-0.5,0.2S-308,230.9-308.1,230.8z M-308.1,239.3v-6.8h1.1v6.8
						H-308.1z"/>
					<path class="st3" d="M-302,239.4c-1,0-1.9-0.3-2.5-1c-0.6-0.6-1-1.5-1-2.6s0.3-1.9,0.9-2.5c0.6-0.6,1.3-0.9,2.2-0.9
						s1.6,0.3,2.1,0.8c0.5,0.5,0.8,1.3,0.8,2.3c0,0.3,0,0.6-0.1,0.8h-4.7c0.1,0.7,0.3,1.2,0.8,1.6c0.4,0.4,1,0.5,1.7,0.5
						c0.7,0,1.3-0.2,1.8-0.5v1C-300.6,239.2-301.2,239.4-302,239.4z M-300.7,235.4v-0.3c0-0.6-0.2-1-0.5-1.4
						c-0.3-0.3-0.7-0.5-1.2-0.5s-1,0.2-1.3,0.6c-0.4,0.4-0.6,0.9-0.6,1.6H-300.7z"/>
					<path class="st3" d="M-296.5,239.3l-2.1-6.8h1.1c0.9,3,1.4,5,1.6,5.8c0.1-0.4,0.6-2.4,1.6-5.8h1.1l1.7,5.8
						c0.1-0.5,0.7-2.4,1.7-5.8h1.1l-2.2,6.8h-1.3l-0.6-2.2l-0.9-3.4c-0.1,0.4-0.6,2.3-1.5,5.7H-296.5z"/>
					<path class="st3" d="M-283.9,241.7c-0.2,0-0.4,0-0.6-0.1v-1c0.1,0,0.3,0.1,0.5,0.1c0.9,0,1.6-0.5,1.9-1.6l-2.8-6.7h1.2l2.1,5.4
						c0.1-0.3,0.7-2,1.9-5.4h1.1l-2.5,6.7c-0.4,0.9-0.8,1.6-1.2,2S-283.3,241.7-283.9,241.7z"/>
					<path class="st3" d="M-271.3,235.9c0,1-0.3,1.9-0.9,2.5c-0.6,0.7-1.4,1-2.4,1s-1.8-0.3-2.3-1c-0.6-0.7-0.9-1.5-0.9-2.5
						s0.3-1.9,0.9-2.5c0.6-0.7,1.4-1,2.4-1c1,0,1.8,0.3,2.3,1C-271.6,234-271.3,234.9-271.3,235.9z M-272.4,235.9
						c0-0.7-0.2-1.4-0.5-1.8c-0.4-0.5-0.9-0.7-1.6-0.7s-1.2,0.3-1.6,0.8c-0.4,0.5-0.6,1.1-0.6,1.8c0,0.7,0.2,1.3,0.6,1.8
						c0.4,0.5,0.9,0.7,1.6,0.7c0.7,0,1.2-0.2,1.5-0.7C-272.6,237.3-272.4,236.6-272.4,235.9z"/>
					<path class="st3" d="M-265.5,232.5h1.1v6.8h-1.1v-1.2c-0.4,0.8-1.1,1.3-2.1,1.3c-0.7,0-1.2-0.2-1.6-0.6s-0.6-0.9-0.6-1.6v-4.7
						h1.1v4.4c0,0.5,0.1,0.9,0.4,1.1c0.3,0.3,0.6,0.4,1.1,0.4s0.9-0.2,1.3-0.6c0.3-0.4,0.5-0.9,0.5-1.6V232.5z"/>
					<path class="st3" d="M-261.4,232.5v1.2c0.4-0.8,1-1.3,1.9-1.3c0.2,0,0.3,0,0.4,0v1.1c-0.2-0.1-0.4-0.1-0.6-0.1
						c-0.5,0-0.9,0.2-1.2,0.7c-0.3,0.4-0.5,0.9-0.5,1.5v3.7h-1.1l0-6.8H-261.4z"/>
					<path class="st3" d="M-253,239.3l-2.4-6.8h1.1l1.9,6c0.1-0.4,0.4-1.4,1-3.1l1-2.9h1.1l-2.4,6.8H-253z"/>
					<path class="st3" d="M-247.9,230.8c-0.1-0.1-0.2-0.3-0.2-0.5c0-0.2,0.1-0.4,0.2-0.5c0.1-0.1,0.3-0.2,0.5-0.2
						c0.2,0,0.4,0.1,0.5,0.2c0.1,0.1,0.2,0.3,0.2,0.5c0,0.2-0.1,0.4-0.2,0.5c-0.1,0.1-0.3,0.2-0.5,0.2
						C-247.6,231-247.7,230.9-247.9,230.8z M-247.9,239.3v-6.8h1.1v6.8H-247.9z"/>
					<path class="st3" d="M-243.3,233.3v4c0,0.7,0.3,1.1,1,1.1c0.4,0,0.7-0.1,0.9-0.3v1c-0.3,0.2-0.6,0.2-1,0.2c-1.4,0-2-0.7-2-2.1
						v-4h-1.1v-0.9h1.1v-1.7h1.1v1.7h1.9v0.9H-243.3z"/>
					<path class="st3" d="M-237.6,232.4c1.7,0,2.6,0.9,2.6,2.6v4.3h-1.1v-0.8c-0.4,0.6-1,0.9-1.9,0.9c-0.6,0-1.2-0.2-1.5-0.6
						c-0.4-0.4-0.6-0.9-0.6-1.5s0.2-1.1,0.7-1.5c0.5-0.4,1.2-0.5,2-0.5h1.2v-0.4c0-0.5-0.1-0.9-0.4-1.2s-0.7-0.4-1.3-0.4
						c-0.7,0-1.3,0.2-1.8,0.6v-1.1C-239.2,232.5-238.5,232.4-237.6,232.4z M-236.1,236.1h-1.2c-0.6,0-1,0.1-1.3,0.3
						s-0.4,0.5-0.4,0.9s0.1,0.6,0.3,0.8c0.2,0.2,0.6,0.3,1,0.3s0.8-0.1,1.1-0.4s0.4-0.6,0.4-1V236.1z"/>
					<path class="st3" d="M-233.1,239.3v-9.5h1.1v9.5H-233.1z"/>
					<path class="st3" d="M-228,233.3c-0.4,0-0.6,0.1-0.9,0.2c-0.2,0.2-0.3,0.4-0.3,0.6c0,0.2,0,0.4,0.1,0.5
						c0.1,0.1,0.2,0.2,0.4,0.4c0.2,0.1,0.6,0.3,1.1,0.5c0.5,0.2,0.9,0.5,1.2,0.8c0.3,0.3,0.5,0.7,0.5,1.3s-0.2,1-0.6,1.3
						c-0.4,0.3-1,0.5-1.8,0.5s-1.4-0.1-1.9-0.4v-1c0.6,0.4,1.3,0.5,1.9,0.5c0.4,0,0.7-0.1,0.9-0.2s0.3-0.4,0.3-0.7s-0.1-0.5-0.4-0.7
						c-0.2-0.2-0.6-0.4-1.2-0.6c-0.5-0.2-1-0.5-1.3-0.8s-0.5-0.7-0.5-1.2c0-0.5,0.2-1,0.6-1.3c0.4-0.3,1-0.5,1.7-0.5
						c0.7,0,1.2,0.1,1.7,0.3v1C-226.7,233.4-227.3,233.3-228,233.3z"/>
					<path class="st3" d="M-217.9,230.7c-0.2-0.1-0.4-0.1-0.7-0.1s-0.5,0.1-0.6,0.3c-0.2,0.2-0.3,0.5-0.3,0.9v0.6h1.5v0.9h-1.5v6
						h-1.1v-6h-1.2v-0.9h1.2v-0.6c0-0.7,0.2-1.2,0.5-1.6s0.8-0.6,1.5-0.6c0.2,0,0.4,0,0.7,0.1V230.7z"/>
					<path class="st3" d="M-215.7,232.5v1.2c0.4-0.8,1-1.3,1.9-1.3c0.2,0,0.3,0,0.4,0v1.1c-0.2-0.1-0.4-0.1-0.6-0.1
						c-0.5,0-0.9,0.2-1.2,0.7c-0.3,0.4-0.5,0.9-0.5,1.5v3.7h-1.1l0-6.8H-215.7z"/>
					<path class="st3" d="M-206.3,235.9c0,1-0.3,1.9-0.9,2.5c-0.6,0.7-1.4,1-2.4,1c-1,0-1.8-0.3-2.3-1c-0.6-0.7-0.9-1.5-0.9-2.5
						s0.3-1.9,0.9-2.5s1.4-1,2.4-1s1.8,0.3,2.3,1C-206.6,234-206.3,234.9-206.3,235.9z M-207.4,235.9c0-0.7-0.2-1.4-0.5-1.8
						c-0.4-0.5-0.9-0.7-1.6-0.7c-0.7,0-1.2,0.3-1.6,0.8c-0.4,0.5-0.6,1.1-0.6,1.8c0,0.7,0.2,1.3,0.6,1.8c0.4,0.5,0.9,0.7,1.6,0.7
						c0.7,0,1.2-0.2,1.5-0.7C-207.6,237.3-207.4,236.6-207.4,235.9z"/>
					<path class="st3" d="M-203.7,232.5v1.1c0.4-0.8,1-1.2,1.9-1.2c1.1,0,1.7,0.4,2,1.3c0.2-0.4,0.5-0.8,0.8-1
						c0.4-0.2,0.8-0.3,1.2-0.3c0.7,0,1.2,0.2,1.6,0.6c0.4,0.4,0.5,0.9,0.5,1.6v4.7h-1.1v-4.4c0-1-0.4-1.6-1.3-1.6
						c-0.4,0-0.8,0.2-1.2,0.6s-0.5,0.9-0.5,1.7v3.7h-1.1v-4.4c0-1-0.4-1.6-1.3-1.6c-0.4,0-0.8,0.2-1.2,0.6s-0.5,0.9-0.5,1.7v3.7
						h-1.1v-6.8H-203.7z"/>
					<path class="st3" d="M-188.9,233.3v4c0,0.7,0.3,1.1,1,1.1c0.4,0,0.7-0.1,0.9-0.3v1c-0.3,0.2-0.6,0.2-1,0.2c-1.3,0-2-0.7-2-2.1
						v-4h-1.1v-0.9h1.1v-1.7h1.1v1.7h1.9v0.9H-188.9z"/>
					<path class="st3" d="M-184.4,229.8v3.9c0.4-0.9,1.1-1.3,2.2-1.3c0.7,0,1.2,0.2,1.6,0.6c0.4,0.4,0.6,1,0.6,1.6v4.7h-1.1v-4.4
						c0-0.5-0.1-0.9-0.4-1.1c-0.3-0.3-0.6-0.4-1.1-0.4s-0.9,0.2-1.3,0.6c-0.4,0.4-0.6,0.9-0.6,1.7v3.7h-1.1v-9.5H-184.4z"/>
					<path class="st3" d="M-175.1,239.4c-1,0-1.9-0.3-2.5-1c-0.6-0.6-1-1.5-1-2.6s0.3-1.9,0.9-2.5s1.3-0.9,2.2-0.9s1.6,0.3,2.1,0.8
						s0.8,1.3,0.8,2.3c0,0.3,0,0.6-0.1,0.8h-4.7c0.1,0.7,0.3,1.2,0.8,1.6c0.4,0.4,1,0.5,1.7,0.5s1.3-0.2,1.8-0.5v1
						C-173.7,239.2-174.3,239.4-175.1,239.4z M-173.8,235.4v-0.3c0-0.6-0.2-1-0.5-1.4c-0.3-0.3-0.7-0.5-1.2-0.5s-1,0.2-1.3,0.6
						c-0.4,0.4-0.6,0.9-0.6,1.6H-173.8z"/>
				</g>
				<g class="st2">
					<path class="st3" d="M-327.7,250.5v1.1c0.4-0.8,1-1.2,1.9-1.2c1.1,0,1.7,0.4,2,1.3c0.2-0.4,0.5-0.8,0.8-1
						c0.4-0.2,0.8-0.3,1.2-0.3c0.7,0,1.2,0.2,1.6,0.6c0.4,0.4,0.5,0.9,0.5,1.6v4.7h-1.1v-4.4c0-1-0.4-1.6-1.3-1.6
						c-0.4,0-0.8,0.2-1.2,0.6c-0.3,0.4-0.5,0.9-0.5,1.7v3.7h-1.1v-4.4c0-1-0.4-1.6-1.3-1.6c-0.4,0-0.8,0.2-1.2,0.6
						c-0.3,0.4-0.5,0.9-0.5,1.7v3.7h-1.1v-6.8H-327.7z"/>
					<path class="st3" d="M-311.7,253.9c0,1-0.3,1.9-0.9,2.5c-0.6,0.7-1.4,1-2.4,1s-1.8-0.3-2.3-1c-0.6-0.7-0.9-1.5-0.9-2.5
						s0.3-1.9,0.9-2.5c0.6-0.7,1.4-1,2.4-1c1,0,1.8,0.3,2.3,1C-312,252-311.7,252.9-311.7,253.9z M-312.8,253.9
						c0-0.7-0.2-1.4-0.5-1.8c-0.4-0.5-0.9-0.7-1.6-0.7s-1.2,0.3-1.6,0.8c-0.4,0.5-0.6,1.1-0.6,1.8c0,0.7,0.2,1.3,0.6,1.8
						c0.4,0.5,0.9,0.7,1.6,0.7c0.7,0,1.2-0.2,1.5-0.7C-313,255.3-312.8,254.6-312.8,253.9z"/>
					<path class="st3" d="M-309.1,250.5v1.2c0.4-0.8,1-1.3,1.9-1.3c0.2,0,0.3,0,0.4,0v1.1c-0.2-0.1-0.4-0.1-0.6-0.1
						c-0.5,0-0.9,0.2-1.2,0.7c-0.3,0.4-0.5,0.9-0.5,1.5v3.7h-1.1l0-6.8H-309.1z"/>
					<path class="st3" d="M-304.7,250.5v1.2c0.4-0.9,1.1-1.3,2.2-1.3c0.7,0,1.2,0.2,1.6,0.6c0.4,0.4,0.6,0.9,0.6,1.6v4.7h-1.1v-4.4
						c0-0.5-0.1-0.9-0.4-1.2c-0.3-0.3-0.6-0.4-1.1-0.4c-0.5,0-0.9,0.2-1.3,0.6c-0.4,0.4-0.6,0.9-0.6,1.6v3.7h-1.1v-6.8H-304.7z"/>
					<path class="st3" d="M-298.4,248.8c-0.1-0.1-0.2-0.3-0.2-0.5c0-0.2,0.1-0.4,0.2-0.5c0.1-0.1,0.3-0.2,0.5-0.2s0.4,0.1,0.5,0.2
						c0.1,0.1,0.2,0.3,0.2,0.5c0,0.2-0.1,0.4-0.2,0.5c-0.1,0.1-0.3,0.2-0.5,0.2S-298.2,248.9-298.4,248.8z M-298.4,257.3v-6.8h1.1
						v6.8H-298.4z"/>
					<path class="st3" d="M-294.3,250.5v1.2c0.4-0.9,1.1-1.3,2.2-1.3c0.7,0,1.2,0.2,1.6,0.6c0.4,0.4,0.6,0.9,0.6,1.6v4.7h-1.1v-4.4
						c0-0.5-0.1-0.9-0.4-1.2c-0.3-0.3-0.6-0.4-1.1-0.4c-0.5,0-0.9,0.2-1.3,0.6c-0.4,0.4-0.6,0.9-0.6,1.6v3.7h-1.1v-6.8H-294.3z"/>
					<path class="st3" d="M-283.6,250.5h1.1v6.3c0,1-0.3,1.8-0.9,2.4c-0.6,0.5-1.3,0.8-2.2,0.8s-1.6-0.1-2.2-0.4v-1.1
						c0.6,0.3,1.2,0.5,1.9,0.5c1.5,0,2.2-0.7,2.2-2.2V256c-0.5,0.8-1.1,1.2-1.9,1.2c-0.8,0-1.5-0.3-2.1-0.9
						c-0.6-0.6-0.8-1.4-0.8-2.4s0.3-1.9,0.8-2.5c0.5-0.7,1.2-1,2.1-1c0.9,0,1.5,0.4,2,1.2V250.5z M-287.3,253.8
						c0,0.8,0.2,1.3,0.6,1.7c0.4,0.4,0.8,0.6,1.3,0.6s0.9-0.2,1.3-0.6c0.4-0.4,0.6-1,0.6-1.8c0-0.8-0.2-1.4-0.6-1.9
						c-0.4-0.4-0.8-0.6-1.4-0.6c-0.5,0-1,0.2-1.3,0.7C-287.1,252.5-287.3,253.1-287.3,253.8z"/>
					<path class="st3" d="M-271.3,253.9c0,1-0.3,1.9-0.9,2.5c-0.6,0.7-1.4,1-2.4,1s-1.8-0.3-2.3-1c-0.6-0.7-0.9-1.5-0.9-2.5
						s0.3-1.9,0.9-2.5c0.6-0.7,1.4-1,2.4-1c1,0,1.8,0.3,2.3,1C-271.6,252-271.3,252.9-271.3,253.9z M-272.4,253.9
						c0-0.7-0.2-1.4-0.5-1.8c-0.4-0.5-0.9-0.7-1.6-0.7s-1.2,0.3-1.6,0.8c-0.4,0.5-0.6,1.1-0.6,1.8c0,0.7,0.2,1.3,0.6,1.8
						c0.4,0.5,0.9,0.7,1.6,0.7c0.7,0,1.2-0.2,1.5-0.7C-272.6,255.3-272.4,254.6-272.4,253.9z"/>
					<path class="st3" d="M-268,257.3l-2.4-6.8h1.1l1.9,6c0.1-0.4,0.4-1.4,1-3.1l1-2.9h1.1l-2.4,6.8H-268z"/>
					<path class="st3" d="M-259.9,257.4c-1,0-1.9-0.3-2.5-1c-0.6-0.6-1-1.5-1-2.6s0.3-1.9,0.9-2.5c0.6-0.6,1.3-0.9,2.2-0.9
						s1.6,0.3,2.1,0.8c0.5,0.5,0.8,1.3,0.8,2.3c0,0.3,0,0.6-0.1,0.8h-4.7c0.1,0.7,0.3,1.2,0.8,1.6c0.4,0.4,1,0.5,1.7,0.5
						c0.7,0,1.3-0.2,1.8-0.5v1C-258.4,257.2-259.1,257.4-259.9,257.4z M-258.5,253.4v-0.3c0-0.6-0.2-1-0.5-1.4
						c-0.3-0.3-0.7-0.5-1.2-0.5s-1,0.2-1.3,0.6c-0.4,0.4-0.6,0.9-0.6,1.6H-258.5z"/>
					<path class="st3" d="M-254.8,250.5v1.2c0.4-0.8,1-1.3,1.9-1.3c0.2,0,0.3,0,0.4,0v1.1c-0.2-0.1-0.4-0.1-0.6-0.1
						c-0.5,0-0.9,0.2-1.2,0.7c-0.3,0.4-0.5,0.9-0.5,1.5v3.7h-1.1l0-6.8H-254.8z"/>
					<path class="st3" d="M-244.9,256.5c0.5,0,1-0.1,1.5-0.4v1c-0.4,0.3-1,0.4-1.6,0.4c-1.1,0-1.9-0.3-2.6-1s-1-1.5-1-2.5
						c0-1,0.3-1.8,1-2.5s1.5-1.1,2.6-1.1c0.6,0,1.1,0.1,1.6,0.4v1c-0.4-0.3-0.9-0.4-1.5-0.4c-0.8,0-1.4,0.2-1.9,0.7
						c-0.5,0.5-0.7,1.1-0.7,1.9c0,0.7,0.2,1.4,0.7,1.8C-246.3,256.2-245.7,256.5-244.9,256.5z"/>
					<path class="st3" d="M-235.8,253.9c0,1-0.3,1.9-0.9,2.5c-0.6,0.7-1.4,1-2.4,1c-1,0-1.8-0.3-2.3-1c-0.6-0.7-0.9-1.5-0.9-2.5
						s0.3-1.9,0.9-2.5c0.6-0.7,1.4-1,2.4-1c1,0,1.8,0.3,2.3,1C-236.1,252-235.8,252.9-235.8,253.9z M-236.9,253.9
						c0-0.7-0.2-1.4-0.5-1.8c-0.4-0.5-0.9-0.7-1.6-0.7c-0.7,0-1.2,0.3-1.6,0.8c-0.4,0.5-0.6,1.1-0.6,1.8c0,0.7,0.2,1.3,0.6,1.8
						c0.4,0.5,0.9,0.7,1.6,0.7s1.2-0.2,1.5-0.7C-237.1,255.3-236.9,254.6-236.9,253.9z"/>
					<path class="st3" d="M-231,248.7c-0.2-0.1-0.4-0.1-0.7-0.1s-0.5,0.1-0.6,0.3c-0.2,0.2-0.3,0.5-0.3,0.9v0.6h1.5v0.9h-1.5v6h-1.1
						v-6h-1.2v-0.9h1.2v-0.6c0-0.7,0.2-1.2,0.5-1.6s0.8-0.6,1.5-0.6c0.2,0,0.4,0,0.7,0.1V248.7z"/>
					<path class="st3" d="M-226.5,248.7c-0.2-0.1-0.4-0.1-0.7-0.1s-0.5,0.1-0.6,0.3c-0.2,0.2-0.3,0.5-0.3,0.9v0.6h1.5v0.9h-1.5v6
						h-1.1v-6h-1.2v-0.9h1.2v-0.6c0-0.7,0.2-1.2,0.5-1.6s0.8-0.6,1.5-0.6c0.2,0,0.4,0,0.7,0.1V248.7z"/>
					<path class="st3" d="M-222.3,257.4c-1,0-1.9-0.3-2.5-1c-0.6-0.6-1-1.5-1-2.6s0.3-1.9,0.9-2.5s1.3-0.9,2.2-0.9s1.6,0.3,2.1,0.8
						s0.8,1.3,0.8,2.3c0,0.3,0,0.6-0.1,0.8h-4.7c0.1,0.7,0.3,1.2,0.8,1.6c0.4,0.4,1,0.5,1.7,0.5s1.3-0.2,1.8-0.5v1
						C-220.9,257.2-221.5,257.4-222.3,257.4z M-221,253.4v-0.3c0-0.6-0.2-1-0.5-1.4c-0.3-0.3-0.7-0.5-1.2-0.5s-1,0.2-1.3,0.6
						c-0.4,0.4-0.6,0.9-0.6,1.6H-221z"/>
					<path class="st3" d="M-215.2,257.4c-1,0-1.9-0.3-2.5-1c-0.6-0.6-1-1.5-1-2.6s0.3-1.9,0.9-2.5s1.3-0.9,2.2-0.9s1.6,0.3,2.1,0.8
						s0.8,1.3,0.8,2.3c0,0.3,0,0.6-0.1,0.8h-4.7c0.1,0.7,0.3,1.2,0.8,1.6c0.4,0.4,1,0.5,1.7,0.5s1.3-0.2,1.8-0.5v1
						C-213.8,257.2-214.5,257.4-215.2,257.4z M-213.9,253.4v-0.3c0-0.6-0.2-1-0.5-1.4c-0.3-0.3-0.7-0.5-1.2-0.5s-1,0.2-1.3,0.6
						c-0.4,0.4-0.6,0.9-0.6,1.6H-213.9z"/>
					<path class="st3" d="M-201.9,253.9c0,1-0.3,1.9-0.9,2.5c-0.6,0.7-1.4,1-2.4,1c-1,0-1.8-0.3-2.3-1c-0.6-0.7-0.9-1.5-0.9-2.5
						s0.3-1.9,0.9-2.5c0.6-0.7,1.4-1,2.4-1c1,0,1.8,0.3,2.3,1C-202.2,252-201.9,252.9-201.9,253.9z M-203,253.9
						c0-0.7-0.2-1.4-0.5-1.8c-0.4-0.5-0.9-0.7-1.6-0.7c-0.7,0-1.2,0.3-1.6,0.8c-0.4,0.5-0.6,1.1-0.6,1.8c0,0.7,0.2,1.3,0.6,1.8
						c0.4,0.5,0.9,0.7,1.6,0.7s1.2-0.2,1.5-0.7C-203.2,255.3-203,254.6-203,253.9z"/>
					<path class="st3" d="M-199.3,250.5v1.2c0.4-0.8,1-1.3,1.9-1.3c0.2,0,0.3,0,0.4,0v1.1c-0.2-0.1-0.4-0.1-0.6-0.1
						c-0.5,0-0.9,0.2-1.2,0.7c-0.3,0.4-0.5,0.9-0.5,1.5v3.7h-1.1l0-6.8H-199.3z"/>
					<path class="st3" d="M-191.2,251.3v4c0,0.7,0.3,1.1,1,1.1c0.4,0,0.7-0.1,0.9-0.3v1c-0.3,0.2-0.6,0.2-1,0.2c-1.3,0-2-0.7-2-2.1
						v-4h-1.1v-0.9h1.1v-1.7h1.1v1.7h1.9v0.9H-191.2z"/>
					<path class="st3" d="M-184.6,257.4c-1,0-1.9-0.3-2.5-1c-0.6-0.6-1-1.5-1-2.6s0.3-1.9,0.9-2.5s1.3-0.9,2.2-0.9s1.6,0.3,2.1,0.8
						s0.8,1.3,0.8,2.3c0,0.3,0,0.6-0.1,0.8h-4.7c0.1,0.7,0.3,1.2,0.8,1.6c0.4,0.4,1,0.5,1.7,0.5s1.3-0.2,1.8-0.5v1
						C-183.2,257.2-183.9,257.4-184.6,257.4z M-183.3,253.4v-0.3c0-0.6-0.2-1-0.5-1.4c-0.3-0.3-0.7-0.5-1.2-0.5s-1,0.2-1.3,0.6
						c-0.4,0.4-0.6,0.9-0.6,1.6H-183.3z"/>
					<path class="st3" d="M-178.5,250.4c1.7,0,2.6,0.9,2.6,2.6v4.3h-1.1v-0.8c-0.4,0.6-1,0.9-1.9,0.9c-0.6,0-1.2-0.2-1.5-0.6
						c-0.4-0.4-0.6-0.9-0.6-1.5s0.2-1.1,0.8-1.5c0.5-0.4,1.2-0.5,2-0.5h1.2v-0.4c0-0.5-0.1-0.9-0.4-1.2c-0.2-0.3-0.7-0.4-1.3-0.4
						s-1.3,0.2-1.8,0.6v-1.1C-180,250.5-179.3,250.4-178.5,250.4z M-177,254.1h-1.2c-0.6,0-1,0.1-1.3,0.3s-0.4,0.5-0.4,0.9
						s0.1,0.6,0.3,0.8c0.2,0.2,0.6,0.3,1,0.3s0.8-0.1,1.1-0.4s0.4-0.6,0.4-1V254.1z"/>
					<path class="st3" d="M-174.4,257.2c-0.2-0.2-0.2-0.3-0.2-0.6s0.1-0.4,0.2-0.6c0.2-0.2,0.3-0.2,0.6-0.2c0.2,0,0.4,0.1,0.6,0.2
						c0.2,0.2,0.2,0.3,0.2,0.6s-0.1,0.4-0.2,0.6c-0.2,0.2-0.3,0.2-0.6,0.2C-174.1,257.4-174.3,257.3-174.4,257.2z"/>
				</g>
			</g>
		</g>
	</g>
	<g id="afternoon">
		<polygon id="afternoon-arrow" class="st6" points="-215.8,471.4 -286.6,471.4 -251.2,506.8 		"/>
		<g id="afternoon-badge">
			<rect id="afternoon-square" x="-365" y="328.4" class="st6" width="227.5" height="144"/>
			<g id="afternoon-title">
				<g class="st2">
					<path class="st3" d="M-291.7,346.5h4.5v11.2h-2.4v-9.1h-2.1V346.5z"/>
					<path class="st3" d="M-280.1,350.9c0.3-0.4,0.4-0.8,0.4-1.2c0-0.4-0.1-0.7-0.4-0.9c-0.2-0.3-0.6-0.4-0.9-0.4
						c-0.7,0-1.4,0.5-2,1.5l-2-1.2c0.5-0.8,1.1-1.4,1.7-1.8s1.4-0.6,2.4-0.6s1.8,0.3,2.5,0.9s1.1,1.4,1.1,2.5c0,0.6-0.1,1.1-0.4,1.7
						c-0.3,0.5-0.8,1.2-1.6,2l-2,2.1h4.4v2.2h-7.9v-1.9l3.3-3.4C-280.9,351.8-280.4,351.3-280.1,350.9z"/>
					<path class="st3" d="M-274.6,353.2c-0.3-0.3-0.4-0.6-0.4-1c0-0.4,0.1-0.7,0.4-1c0.3-0.3,0.6-0.4,1-0.4s0.7,0.1,1,0.4
						c0.3,0.3,0.4,0.6,0.4,1c0,0.4-0.1,0.7-0.4,1c-0.3,0.3-0.6,0.4-1,0.4S-274.3,353.5-274.6,353.2z M-274.6,357.4
						c-0.3-0.3-0.4-0.6-0.4-1c0-0.4,0.1-0.7,0.4-1c0.3-0.3,0.6-0.4,1-0.4s0.7,0.1,1,0.4c0.3,0.3,0.4,0.6,0.4,1c0,0.4-0.1,0.7-0.4,1
						c-0.3,0.3-0.6,0.4-1,0.4S-274.3,357.7-274.6,357.4z"/>
					<path class="st3" d="M-265.6,357.8c-1.5,0-2.7-0.5-3.5-1.6c-0.8-1-1.2-2.5-1.2-4.2c0-1.8,0.4-3.2,1.2-4.2
						c0.8-1,1.9-1.6,3.5-1.6c1.5,0,2.7,0.5,3.5,1.6c0.8,1.1,1.2,2.5,1.2,4.2c0,1.8-0.4,3.2-1.2,4.2
						C-262.9,357.3-264,357.8-265.6,357.8z M-267.2,349.3c-0.4,0.7-0.5,1.6-0.5,2.7c0,1.1,0.2,2,0.5,2.7s0.9,1,1.6,1s1.3-0.3,1.6-1
						s0.5-1.6,0.5-2.7c0-1.1-0.2-2-0.5-2.7s-0.9-1-1.6-1S-266.9,348.6-267.2,349.3z"/>
					<path class="st3" d="M-254.5,357.8c-1.5,0-2.7-0.5-3.5-1.6c-0.8-1-1.2-2.5-1.2-4.2c0-1.8,0.4-3.2,1.2-4.2
						c0.8-1,1.9-1.6,3.5-1.6c1.5,0,2.7,0.5,3.5,1.6c0.8,1.1,1.2,2.5,1.2,4.2c0,1.8-0.4,3.2-1.2,4.2
						C-251.8,357.3-253,357.8-254.5,357.8z M-256.2,349.3c-0.4,0.7-0.5,1.6-0.5,2.7c0,1.1,0.2,2,0.5,2.7s0.9,1,1.6,1s1.3-0.3,1.6-1
						s0.5-1.6,0.5-2.7c0-1.1-0.2-2-0.5-2.7s-0.9-1-1.6-1S-255.8,348.6-256.2,349.3z"/>
					<path class="st3" d="M-235.7,347.5c0.8,0.7,1.2,1.7,1.2,3.1c0,1.4-0.4,2.4-1.2,3c-0.8,0.6-2,1-3.7,1h-1.5v3.1h-2.5v-11.2h4
						C-237.7,346.5-236.5,346.8-235.7,347.5z M-237.5,351.9c0.3-0.3,0.4-0.8,0.4-1.5s-0.2-1.1-0.6-1.4c-0.4-0.3-1-0.4-1.8-0.4h-1.4
						v3.8h1.7C-238.4,352.4-237.8,352.2-237.5,351.9z"/>
					<path class="st3" d="M-233.5,357.4c-0.3-0.3-0.4-0.6-0.4-1c0-0.4,0.1-0.7,0.4-1c0.3-0.3,0.6-0.4,1-0.4c0.4,0,0.7,0.1,1,0.4
						c0.3,0.3,0.4,0.6,0.4,1c0,0.4-0.1,0.7-0.4,1c-0.3,0.3-0.6,0.4-1,0.4C-232.9,357.8-233.2,357.7-233.5,357.4z"/>
					<path class="st3" d="M-218.8,350.6l-3,6.1h-1.5l-3-6.1v7h-2.5v-11.2h3.4l2.9,6.1l2.9-6.1h3.4v11.2h-2.5V350.6z"/>
					<path class="st3" d="M-213.6,357.4c-0.3-0.3-0.4-0.6-0.4-1c0-0.4,0.1-0.7,0.4-1c0.3-0.3,0.6-0.4,1-0.4s0.7,0.1,1,0.4
						c0.3,0.3,0.4,0.6,0.4,1c0,0.4-0.1,0.7-0.4,1c-0.3,0.3-0.6,0.4-1,0.4S-213.3,357.7-213.6,357.4z"/>
				</g>
			</g>
			<g id="afternoon-details">
				<path id="afternoon-icon" class="st3" d="M-252.8,387c0,1.6-1.3,3-3.1,3.5v15c0,1.3-1.4,2.5-3.1,2.5h-3.1
					c-1.7,0-3.1-1.1-3.1-2.5v-15c-1.9-0.5-3.1-1.9-3.1-3.5v-12.3c0-0.7,0.7-1.2,1.6-1.2s1.6,0.6,1.6,1.2v8c0,0.7,0.7,1.2,1.6,1.2
					s1.6-0.6,1.6-1.2v-8c0-0.7,0.7-1.2,1.6-1.2s1.6,0.6,1.6,1.2v8c0,0.7,0.7,1.2,1.6,1.2s1.6-0.6,1.6-1.2v-8c0-0.7,0.7-1.2,1.6-1.2
					s1.6,0.6,1.6,1.2V387H-252.8z M-234,405.4c0,1.3-1.4,2.5-3.1,2.5h-3.1c-1.7,0-3.1-1.1-3.1-2.5v-9.9h-5.5c-0.4,0-0.8-0.3-0.8-0.6
					v-15.4c0-3.4,3.5-6.2,7.9-6.2h6.3c0.9,0,1.6,0.6,1.6,1.2v30.9H-234z"/>
				<rect id="XMLID_77_" x="-321.7" y="426.4" class="st4" width="140.9" height="33.9"/>
				<g class="st2">
					<path class="st3" d="M-336.6,431h4v1h-5.1v-9.1h5v1h-3.9v3.1h3.5v1h-3.5V431z"/>
					<path class="st3" d="M-330,425.1v1.2c0.4-0.9,1.1-1.3,2.2-1.3c0.7,0,1.2,0.2,1.6,0.6c0.4,0.4,0.6,0.9,0.6,1.6v4.7h-1.1v-4.4
						c0-0.5-0.1-0.9-0.4-1.2c-0.3-0.3-0.6-0.4-1.1-0.4c-0.5,0-0.9,0.2-1.3,0.6c-0.4,0.4-0.6,0.9-0.6,1.6v3.7h-1.1v-6.8H-330z"/>
					<path class="st3" d="M-324.4,433.6c0.5,0,0.8-0.3,0.8-1v-7.6h1.1v7.6c0,0.6-0.2,1.1-0.5,1.4s-0.7,0.5-1.3,0.5
						c-0.3,0-0.6-0.1-1-0.2v-0.9C-325,433.6-324.7,433.6-324.4,433.6z M-323.6,423.4c-0.1-0.1-0.2-0.3-0.2-0.5
						c0-0.2,0.1-0.4,0.2-0.5c0.1-0.1,0.3-0.2,0.5-0.2s0.4,0.1,0.5,0.2c0.1,0.1,0.2,0.3,0.2,0.5c0,0.2-0.1,0.4-0.2,0.5
						c-0.1,0.1-0.3,0.2-0.5,0.2S-323.5,423.6-323.6,423.4z"/>
					<path class="st3" d="M-314.6,428.5c0,1-0.3,1.9-0.9,2.5c-0.6,0.7-1.4,1-2.4,1s-1.8-0.3-2.3-1c-0.6-0.7-0.9-1.5-0.9-2.5
						s0.3-1.9,0.9-2.5c0.6-0.7,1.4-1,2.4-1c1,0,1.8,0.3,2.3,1C-314.9,426.7-314.6,427.5-314.6,428.5z M-315.7,428.5
						c0-0.7-0.2-1.4-0.5-1.8c-0.4-0.5-0.9-0.7-1.6-0.7s-1.2,0.3-1.6,0.8c-0.4,0.5-0.6,1.1-0.6,1.8c0,0.7,0.2,1.3,0.6,1.8
						c0.4,0.5,0.9,0.7,1.6,0.7c0.7,0,1.2-0.2,1.5-0.7C-315.9,429.9-315.7,429.3-315.7,428.5z"/>
					<path class="st3" d="M-313,434.3c-0.2,0-0.4,0-0.6-0.1v-1c0.1,0,0.3,0.1,0.5,0.1c0.9,0,1.6-0.5,1.9-1.6l-2.8-6.7h1.2l2.1,5.4
						c0.1-0.3,0.7-2,1.9-5.4h1.1l-2.5,6.7c-0.4,0.9-0.8,1.6-1.2,2S-312.4,434.3-313,434.3z"/>
					<path class="st3" d="M-303.1,431.9v-9.5h1.1v9.5H-303.1z"/>
					<path class="st3" d="M-295.7,425.1h1.1v6.8h-1.1v-1.2c-0.4,0.8-1.1,1.3-2.1,1.3c-0.7,0-1.2-0.2-1.6-0.6s-0.6-0.9-0.6-1.6v-4.7
						h1.1v4.4c0,0.5,0.1,0.9,0.4,1.1c0.3,0.3,0.6,0.4,1.1,0.4s0.9-0.2,1.3-0.6c0.3-0.4,0.5-0.9,0.5-1.6V425.1z"/>
					<path class="st3" d="M-291.6,425.1v1.2c0.4-0.9,1.1-1.3,2.2-1.3c0.7,0,1.2,0.2,1.6,0.6c0.4,0.4,0.6,0.9,0.6,1.6v4.7h-1.1v-4.4
						c0-0.5-0.1-0.9-0.4-1.2c-0.3-0.3-0.6-0.4-1.1-0.4c-0.5,0-0.9,0.2-1.3,0.6c-0.4,0.4-0.6,0.9-0.6,1.6v3.7h-1.1v-6.8H-291.6z"/>
					<path class="st3" d="M-282.1,431.1c0.5,0,1-0.1,1.5-0.4v1c-0.4,0.3-1,0.4-1.6,0.4c-1.1,0-1.9-0.3-2.6-1c-0.6-0.7-1-1.5-1-2.5
						c0-1,0.3-1.8,1-2.5c0.6-0.7,1.5-1.1,2.6-1.1c0.6,0,1.1,0.1,1.6,0.4v1c-0.4-0.3-0.9-0.4-1.5-0.4c-0.8,0-1.4,0.2-1.9,0.7
						c-0.5,0.5-0.7,1.1-0.7,1.9c0,0.7,0.2,1.4,0.7,1.8C-283.6,430.9-282.9,431.1-282.1,431.1z"/>
					<path class="st3" d="M-278,422.4v3.9c0.4-0.9,1.1-1.3,2.2-1.3c0.7,0,1.2,0.2,1.6,0.6c0.4,0.4,0.6,1,0.6,1.6v4.7h-1.1v-4.4
						c0-0.5-0.1-0.9-0.4-1.1c-0.3-0.3-0.6-0.4-1.1-0.4s-0.9,0.2-1.3,0.6c-0.4,0.4-0.6,0.9-0.6,1.7v3.7h-1.1v-9.5H-278z"/>
					<path class="st3" d="M-268.4,423.4c-0.1-0.1-0.2-0.3-0.2-0.5c0-0.2,0.1-0.4,0.2-0.5c0.1-0.1,0.3-0.2,0.5-0.2s0.4,0.1,0.5,0.2
						c0.1,0.1,0.2,0.3,0.2,0.5c0,0.2-0.1,0.4-0.2,0.5c-0.1,0.1-0.3,0.2-0.5,0.2S-268.2,423.6-268.4,423.4z M-268.4,431.9v-6.8h1.1
						v6.8H-268.4z"/>
					<path class="st3" d="M-264.2,425.1v1.2c0.4-0.9,1.1-1.3,2.2-1.3c0.7,0,1.2,0.2,1.6,0.6c0.4,0.4,0.6,0.9,0.6,1.6v4.7h-1.1v-4.4
						c0-0.5-0.1-0.9-0.4-1.2c-0.3-0.3-0.6-0.4-1.1-0.4c-0.5,0-0.9,0.2-1.3,0.6c-0.4,0.4-0.6,0.9-0.6,1.6v3.7h-1.1v-6.8H-264.2z"/>
					<path class="st3" d="M-253.7,425.1v1c0.5-0.8,1.2-1.1,2.1-1.1s1.6,0.3,2.2,1c0.5,0.7,0.8,1.5,0.8,2.5s-0.3,1.9-0.8,2.5
						c-0.5,0.7-1.3,1-2.1,1c-0.9,0-1.6-0.4-2.1-1.1v3.7h-1.1v-9.5H-253.7z M-253.7,428.5c0,0.9,0.2,1.5,0.6,2
						c0.4,0.4,0.9,0.6,1.4,0.6s1-0.2,1.4-0.7c0.4-0.5,0.6-1.1,0.6-1.9s-0.2-1.4-0.5-1.9s-0.8-0.7-1.4-0.7s-1,0.2-1.4,0.6
						S-253.7,427.6-253.7,428.5z"/>
					<path class="st3" d="M-244,432c-1,0-1.9-0.3-2.5-1c-0.6-0.6-1-1.5-1-2.6s0.3-1.9,0.9-2.5c0.6-0.6,1.3-0.9,2.2-0.9
						s1.6,0.3,2.1,0.8c0.5,0.5,0.8,1.3,0.8,2.3c0,0.3,0,0.6-0.1,0.8h-4.7c0.1,0.7,0.3,1.2,0.8,1.6c0.4,0.4,1,0.5,1.7,0.5
						c0.7,0,1.3-0.2,1.8-0.5v1C-242.6,431.9-243.2,432-244,432z M-242.7,428.1v-0.3c0-0.6-0.2-1-0.5-1.4c-0.3-0.3-0.7-0.5-1.2-0.5
						s-1,0.2-1.3,0.6s-0.6,0.9-0.6,1.6H-242.7z"/>
					<path class="st3" d="M-237.8,425c1.7,0,2.6,0.9,2.6,2.6v4.3h-1.1v-0.8c-0.4,0.6-1,0.9-1.9,0.9c-0.6,0-1.2-0.2-1.5-0.6
						c-0.4-0.4-0.6-0.9-0.6-1.5s0.2-1.1,0.7-1.5c0.5-0.4,1.2-0.5,2-0.5h1.2v-0.4c0-0.5-0.1-0.9-0.4-1.2s-0.7-0.4-1.3-0.4
						c-0.7,0-1.3,0.2-1.8,0.6v-1.1C-239.4,425.1-238.7,425-237.8,425z M-236.3,428.8h-1.2c-0.6,0-1,0.1-1.3,0.3s-0.4,0.5-0.4,0.9
						s0.1,0.6,0.3,0.8c0.2,0.2,0.6,0.3,1,0.3s0.8-0.1,1.1-0.4s0.4-0.6,0.4-1V428.8z"/>
					<path class="st3" d="M-230.1,431.1c0.5,0,1-0.1,1.5-0.4v1c-0.4,0.3-1,0.4-1.6,0.4c-1.1,0-1.9-0.3-2.6-1c-0.6-0.7-1-1.5-1-2.5
						c0-1,0.3-1.8,1-2.5c0.6-0.7,1.5-1.1,2.6-1.1c0.6,0,1.1,0.1,1.6,0.4v1c-0.4-0.3-0.9-0.4-1.5-0.4c-0.8,0-1.4,0.2-1.9,0.7
						c-0.5,0.5-0.7,1.1-0.7,1.9c0,0.7,0.2,1.4,0.7,1.8C-231.6,430.9-230.9,431.1-230.1,431.1z"/>
					<path class="st3" d="M-224,432c-1,0-1.9-0.3-2.5-1c-0.6-0.6-1-1.5-1-2.6s0.3-1.9,0.9-2.5c0.6-0.6,1.3-0.9,2.2-0.9
						s1.6,0.3,2.1,0.8c0.5,0.5,0.8,1.3,0.8,2.3c0,0.3,0,0.6-0.1,0.8h-4.7c0.1,0.7,0.3,1.2,0.8,1.6c0.4,0.4,1,0.5,1.7,0.5
						c0.7,0,1.3-0.2,1.8-0.5v1C-222.6,431.9-223.2,432-224,432z M-222.7,428.1v-0.3c0-0.6-0.2-1-0.5-1.4c-0.3-0.3-0.7-0.5-1.2-0.5
						s-1,0.2-1.3,0.6s-0.6,0.9-0.6,1.6H-222.7z"/>
					<path class="st3" d="M-215.2,431.9l-2.1-6.8h1.1c0.9,3,1.4,5,1.6,5.8c0.1-0.4,0.6-2.4,1.6-5.8h1.1l1.7,5.8
						c0.1-0.5,0.7-2.4,1.7-5.8h1.1l-2.2,6.8h-1.3l-0.6-2.2l-0.9-3.4c-0.1,0.4-0.6,2.3-1.5,5.7H-215.2z"/>
					<path class="st3" d="M-204.9,422.4v3.9c0.4-0.9,1.1-1.3,2.2-1.3c0.7,0,1.2,0.2,1.6,0.6c0.4,0.4,0.6,1,0.6,1.6v4.7h-1.1v-4.4
						c0-0.5-0.1-0.9-0.4-1.1c-0.3-0.3-0.6-0.4-1.1-0.4s-0.9,0.2-1.3,0.6c-0.4,0.4-0.6,0.9-0.6,1.7v3.7h-1.1v-9.5H-204.9z"/>
					<path class="st3" d="M-198.6,423.4c-0.1-0.1-0.2-0.3-0.2-0.5c0-0.2,0.1-0.4,0.2-0.5c0.1-0.1,0.3-0.2,0.5-0.2
						c0.2,0,0.4,0.1,0.5,0.2c0.1,0.1,0.2,0.3,0.2,0.5c0,0.2-0.1,0.4-0.2,0.5c-0.1,0.1-0.3,0.2-0.5,0.2
						C-198.3,423.6-198.5,423.6-198.6,423.4z M-198.6,431.9v-6.8h1.1v6.8H-198.6z"/>
					<path class="st3" d="M-195.5,431.9v-9.5h1.1v9.5H-195.5z"/>
					<path class="st3" d="M-189.4,432c-1,0-1.9-0.3-2.5-1c-0.6-0.6-1-1.5-1-2.6s0.3-1.9,0.9-2.5c0.6-0.6,1.3-0.9,2.2-0.9
						s1.6,0.3,2.1,0.8c0.5,0.5,0.8,1.3,0.8,2.3c0,0.3,0,0.6-0.1,0.8h-4.7c0.1,0.7,0.3,1.2,0.8,1.6c0.4,0.4,1,0.5,1.7,0.5
						c0.7,0,1.3-0.2,1.8-0.5v1C-187.9,431.9-188.6,432-189.4,432z M-188,428.1v-0.3c0-0.6-0.2-1-0.5-1.4c-0.3-0.3-0.7-0.5-1.2-0.5
						s-1,0.2-1.3,0.6s-0.6,0.9-0.6,1.6H-188z"/>
					<path class="st3" d="M-180.6,426v4c0,0.7,0.3,1.1,1,1.1c0.4,0,0.7-0.1,0.9-0.3v1c-0.3,0.2-0.6,0.2-1,0.2c-1.3,0-2-0.7-2-2.1v-4
						h-1.1v-0.9h1.1v-1.7h1.1v1.7h1.9v0.9H-180.6z"/>
					<path class="st3" d="M-176,422.4v3.9c0.4-0.9,1.1-1.3,2.2-1.3c0.7,0,1.2,0.2,1.6,0.6c0.4,0.4,0.6,1,0.6,1.6v4.7h-1.1v-4.4
						c0-0.5-0.1-0.9-0.4-1.1c-0.3-0.3-0.6-0.4-1.1-0.4s-0.9,0.2-1.3,0.6c-0.4,0.4-0.6,0.9-0.6,1.7v3.7h-1.1v-9.5H-176z"/>
					<path class="st3" d="M-166.7,432c-1,0-1.9-0.3-2.5-1c-0.6-0.6-1-1.5-1-2.6s0.3-1.9,0.9-2.5s1.3-0.9,2.2-0.9s1.6,0.3,2.1,0.8
						s0.8,1.3,0.8,2.3c0,0.3,0,0.6-0.1,0.8h-4.7c0.1,0.7,0.3,1.2,0.8,1.6c0.4,0.4,1,0.5,1.7,0.5s1.3-0.2,1.8-0.5v1
						C-165.3,431.9-166,432-166.7,432z M-165.4,428.1v-0.3c0-0.6-0.2-1-0.5-1.4c-0.3-0.3-0.7-0.5-1.2-0.5s-1,0.2-1.3,0.6
						c-0.4,0.4-0.6,0.9-0.6,1.6H-165.4z"/>
				</g>
				<g class="st2">
					<path class="st3" d="M-349.4,440.8h2.4c1.1,0,1.9,0.3,2.5,0.8c0.6,0.5,0.9,1.2,0.9,2.1s-0.3,1.5-0.9,2.1
						c-0.6,0.5-1.4,0.8-2.4,0.8h-1.4v3.3h-1.1V440.8z M-348.3,445.7h1.5c0.7,0,1.2-0.2,1.6-0.6c0.4-0.4,0.6-0.8,0.6-1.4
						s-0.2-1-0.6-1.4s-0.9-0.6-1.6-0.6h-1.4V445.7z"/>
					<path class="st3" d="M-337.9,443.1h1.1v6.8h-1.1v-1.2c-0.4,0.8-1.1,1.3-2.1,1.3c-0.7,0-1.2-0.2-1.6-0.6s-0.6-0.9-0.6-1.6v-4.7
						h1.1v4.4c0,0.5,0.1,0.9,0.4,1.1c0.3,0.3,0.6,0.4,1.1,0.4s0.9-0.2,1.3-0.6c0.3-0.4,0.5-0.9,0.5-1.6V443.1z"/>
					<path class="st3" d="M-334.8,449.9v-9.5h1.1v9.5H-334.8z"/>
					<path class="st3" d="M-329.7,444c-0.4,0-0.6,0.1-0.9,0.2c-0.2,0.2-0.3,0.4-0.3,0.6c0,0.2,0,0.4,0.1,0.5
						c0.1,0.1,0.2,0.2,0.4,0.4c0.2,0.1,0.6,0.3,1.1,0.5c0.5,0.2,0.9,0.5,1.2,0.8c0.3,0.3,0.5,0.7,0.5,1.3s-0.2,1-0.6,1.3
						c-0.4,0.3-1,0.5-1.8,0.5s-1.4-0.1-1.9-0.4v-1c0.6,0.4,1.3,0.5,1.9,0.5c0.4,0,0.7-0.1,0.9-0.2s0.3-0.4,0.3-0.7s-0.1-0.5-0.4-0.7
						c-0.2-0.2-0.6-0.4-1.2-0.6c-0.5-0.2-1-0.5-1.3-0.8s-0.5-0.7-0.5-1.2c0-0.5,0.2-1,0.6-1.3c0.4-0.3,1-0.5,1.7-0.5
						c0.7,0,1.2,0.1,1.7,0.3v1C-328.4,444.1-328.9,444-329.7,444z"/>
					<path class="st3" d="M-323.1,450c-1,0-1.9-0.3-2.5-1c-0.6-0.6-1-1.5-1-2.6s0.3-1.9,0.9-2.5c0.6-0.6,1.3-0.9,2.2-0.9
						s1.6,0.3,2.1,0.8c0.5,0.5,0.8,1.3,0.8,2.3c0,0.3,0,0.6-0.1,0.8h-4.7c0.1,0.7,0.3,1.2,0.8,1.6c0.4,0.4,1,0.5,1.7,0.5
						c0.7,0,1.3-0.2,1.8-0.5v1C-321.7,449.9-322.3,450-323.1,450z M-321.8,446.1v-0.3c0-0.6-0.2-1-0.5-1.4c-0.3-0.3-0.7-0.5-1.2-0.5
						s-1,0.2-1.3,0.6c-0.4,0.4-0.6,0.9-0.6,1.6H-321.8z"/>
					<path class="st3" d="M-318,440.4v3.7c0.5-0.8,1.2-1.1,2.1-1.1s1.6,0.3,2.1,1c0.5,0.7,0.8,1.5,0.8,2.5s-0.3,1.9-0.8,2.5
						c-0.5,0.7-1.2,1-2.1,1c-0.9,0-1.6-0.4-2.1-1.1v1h-1.1v-9.5H-318z M-318,446.5c0,0.9,0.2,1.5,0.6,2c0.4,0.4,0.9,0.6,1.4,0.6
						c0.6,0,1-0.2,1.4-0.7s0.5-1.1,0.5-1.9s-0.2-1.4-0.6-1.9c-0.4-0.5-0.8-0.7-1.4-0.7s-1,0.2-1.4,0.6
						C-317.8,445-318,445.6-318,446.5z"/>
					<path class="st3" d="M-309.2,443c1.7,0,2.6,0.9,2.6,2.6v4.3h-1.1v-0.8c-0.4,0.6-1,0.9-1.9,0.9c-0.6,0-1.2-0.2-1.5-0.6
						c-0.4-0.4-0.6-0.9-0.6-1.5s0.2-1.1,0.7-1.5s1.2-0.5,2-0.5h1.2v-0.4c0-0.5-0.1-0.9-0.4-1.2c-0.2-0.3-0.7-0.4-1.3-0.4
						c-0.7,0-1.3,0.2-1.8,0.6v-1.1C-310.7,443.1-310,443-309.2,443z M-307.7,446.8h-1.2c-0.6,0-1,0.1-1.3,0.3s-0.4,0.5-0.4,0.9
						s0.1,0.6,0.3,0.8s0.6,0.3,1,0.3s0.8-0.1,1.1-0.4s0.4-0.6,0.4-1V446.8z"/>
					<path class="st3" d="M-303.7,443.1v1.2c0.4-0.9,1.1-1.3,2.2-1.3c0.7,0,1.2,0.2,1.6,0.6c0.4,0.4,0.6,0.9,0.6,1.6v4.7h-1.1v-4.4
						c0-0.5-0.1-0.9-0.4-1.2c-0.3-0.3-0.6-0.4-1.1-0.4c-0.5,0-0.9,0.2-1.3,0.6c-0.4,0.4-0.6,0.9-0.6,1.6v3.7h-1.1v-6.8H-303.7z"/>
					<path class="st3" d="M-292.8,440.4h1.1v9.5h-1.1v-1c-0.5,0.7-1.2,1.1-2.1,1.1c-0.9,0-1.6-0.3-2.1-1c-0.5-0.7-0.8-1.5-0.8-2.5
						s0.3-1.9,0.8-2.5c0.5-0.7,1.3-1,2.1-1c0.9,0,1.6,0.4,2.1,1.1V440.4z M-296.8,446.5c0,0.8,0.2,1.4,0.5,1.9
						c0.4,0.5,0.8,0.7,1.4,0.7c0.6,0,1-0.2,1.4-0.6c0.4-0.4,0.6-1.1,0.6-2s-0.2-1.5-0.6-1.9c-0.4-0.4-0.9-0.6-1.4-0.6
						s-1,0.2-1.4,0.7C-296.6,445.1-296.8,445.7-296.8,446.5z"/>
					<path class="st3" d="M-285.5,443.1v1.1c0.4-0.8,1-1.2,1.9-1.2c1.1,0,1.7,0.4,2,1.3c0.2-0.4,0.5-0.8,0.8-1
						c0.4-0.2,0.8-0.3,1.2-0.3c0.7,0,1.2,0.2,1.6,0.6c0.4,0.4,0.5,0.9,0.5,1.6v4.7h-1.1v-4.4c0-1-0.4-1.6-1.3-1.6
						c-0.4,0-0.8,0.2-1.2,0.6c-0.3,0.4-0.5,0.9-0.5,1.7v3.7h-1.1v-4.4c0-1-0.4-1.6-1.3-1.6c-0.4,0-0.8,0.2-1.2,0.6
						c-0.3,0.4-0.5,0.9-0.5,1.7v3.7h-1.1v-6.8H-285.5z"/>
					<path class="st3" d="M-269.4,446.5c0,1-0.3,1.9-0.9,2.5c-0.6,0.7-1.4,1-2.4,1s-1.8-0.3-2.3-1c-0.6-0.7-0.9-1.5-0.9-2.5
						s0.3-1.9,0.9-2.5c0.6-0.7,1.4-1,2.4-1c1,0,1.8,0.3,2.3,1C-269.7,444.7-269.4,445.5-269.4,446.5z M-270.5,446.5
						c0-0.7-0.2-1.4-0.5-1.8c-0.4-0.5-0.9-0.7-1.6-0.7s-1.2,0.3-1.6,0.8c-0.4,0.5-0.6,1.1-0.6,1.8c0,0.7,0.2,1.3,0.6,1.8
						c0.4,0.5,0.9,0.7,1.6,0.7c0.7,0,1.2-0.2,1.5-0.7C-270.7,447.9-270.5,447.3-270.5,446.5z"/>
					<path class="st3" d="M-266.8,443.1v1.2c0.4-0.9,1.1-1.3,2.2-1.3c0.7,0,1.2,0.2,1.6,0.6c0.4,0.4,0.6,0.9,0.6,1.6v4.7h-1.1v-4.4
						c0-0.5-0.1-0.9-0.4-1.2c-0.3-0.3-0.6-0.4-1.1-0.4c-0.5,0-0.9,0.2-1.3,0.6c-0.4,0.4-0.6,0.9-0.6,1.6v3.7h-1.1v-6.8H-266.8z"/>
					<path class="st3" d="M-260.5,441.4c-0.1-0.1-0.2-0.3-0.2-0.5c0-0.2,0.1-0.4,0.2-0.5c0.1-0.1,0.3-0.2,0.5-0.2s0.4,0.1,0.5,0.2
						c0.1,0.1,0.2,0.3,0.2,0.5c0,0.2-0.1,0.4-0.2,0.5c-0.1,0.1-0.3,0.2-0.5,0.2S-260.4,441.6-260.5,441.4z M-260.5,449.9v-6.8h1.1
						v6.8H-260.5z"/>
					<path class="st3" d="M-256,444v4c0,0.7,0.3,1.1,1,1.1c0.4,0,0.7-0.1,0.9-0.3v1c-0.3,0.2-0.6,0.2-1,0.2c-1.4,0-2-0.7-2-2.1v-4
						h-1.1v-0.9h1.1v-1.7h1.1v1.7h1.9v0.9H-256z"/>
					<path class="st3" d="M-246.4,446.5c0,1-0.3,1.9-0.9,2.5c-0.6,0.7-1.4,1-2.4,1c-1,0-1.8-0.3-2.3-1c-0.6-0.7-0.9-1.5-0.9-2.5
						s0.3-1.9,0.9-2.5c0.6-0.7,1.4-1,2.4-1c1,0,1.8,0.3,2.3,1C-246.7,444.7-246.4,445.5-246.4,446.5z M-247.5,446.5
						c0-0.7-0.2-1.4-0.5-1.8c-0.4-0.5-0.9-0.7-1.6-0.7c-0.7,0-1.2,0.3-1.6,0.8c-0.4,0.5-0.6,1.1-0.6,1.8c0,0.7,0.2,1.3,0.6,1.8
						c0.4,0.5,0.9,0.7,1.6,0.7c0.7,0,1.2-0.2,1.5-0.7C-247.7,447.9-247.5,447.3-247.5,446.5z"/>
					<path class="st3" d="M-243.8,443.1v1.2c0.4-0.8,1-1.3,1.9-1.3c0.2,0,0.3,0,0.4,0v1.1c-0.2-0.1-0.4-0.1-0.6-0.1
						c-0.5,0-0.9,0.2-1.2,0.7c-0.3,0.4-0.5,0.9-0.5,1.5v3.7h-1.1l0-6.8H-243.8z"/>
					<path class="st3" d="M-238.4,444c-0.4,0-0.6,0.1-0.9,0.2c-0.2,0.2-0.3,0.4-0.3,0.6c0,0.2,0,0.4,0.1,0.5
						c0.1,0.1,0.2,0.2,0.4,0.4c0.2,0.1,0.6,0.3,1.1,0.5c0.5,0.2,0.9,0.5,1.2,0.8c0.3,0.3,0.5,0.7,0.5,1.3s-0.2,1-0.6,1.3
						c-0.4,0.3-1,0.5-1.8,0.5s-1.4-0.1-1.9-0.4v-1c0.6,0.4,1.3,0.5,1.9,0.5c0.4,0,0.7-0.1,0.9-0.2s0.3-0.4,0.3-0.7s-0.1-0.5-0.4-0.7
						c-0.2-0.2-0.6-0.4-1.2-0.6c-0.5-0.2-1-0.5-1.3-0.8s-0.5-0.7-0.5-1.2c0-0.5,0.2-1,0.6-1.3c0.4-0.3,1-0.5,1.7-0.5
						c0.7,0,1.2,0.1,1.7,0.3v1C-237.2,444.1-237.7,444-238.4,444z"/>
					<path class="st3" d="M-229.4,443c1.7,0,2.6,0.9,2.6,2.6v4.3h-1.1v-0.8c-0.4,0.6-1,0.9-1.9,0.9c-0.6,0-1.2-0.2-1.5-0.6
						c-0.4-0.4-0.6-0.9-0.6-1.5s0.2-1.1,0.8-1.5c0.5-0.4,1.2-0.5,2-0.5h1.2v-0.4c0-0.5-0.1-0.9-0.4-1.2c-0.2-0.3-0.7-0.4-1.3-0.4
						s-1.3,0.2-1.8,0.6v-1.1C-231,443.1-230.3,443-229.4,443z M-227.9,446.8h-1.2c-0.6,0-1,0.1-1.3,0.3s-0.4,0.5-0.4,0.9
						s0.1,0.6,0.3,0.8c0.2,0.2,0.6,0.3,1,0.3s0.8-0.1,1.1-0.4s0.4-0.6,0.4-1V446.8z"/>
					<path class="st3" d="M-223.9,440.4v3.7c0.5-0.8,1.2-1.1,2.1-1.1c0.9,0,1.6,0.3,2.1,1c0.5,0.7,0.8,1.5,0.8,2.5s-0.3,1.9-0.8,2.5
						s-1.2,1-2.1,1s-1.6-0.4-2.1-1.1v1h-1.1v-9.5H-223.9z M-223.9,446.5c0,0.9,0.2,1.5,0.6,2c0.4,0.4,0.9,0.6,1.4,0.6
						c0.6,0,1-0.2,1.4-0.7c0.4-0.5,0.5-1.1,0.5-1.9s-0.2-1.4-0.6-1.9c-0.4-0.5-0.8-0.7-1.4-0.7s-1,0.2-1.4,0.6
						C-223.7,445-223.9,445.6-223.9,446.5z"/>
					<path class="st3" d="M-216.2,443.1v1.2c0.4-0.9,1.1-1.3,2.2-1.3c0.7,0,1.2,0.2,1.6,0.6c0.4,0.4,0.6,0.9,0.6,1.6v4.7h-1.1v-4.4
						c0-0.5-0.1-0.9-0.4-1.2s-0.6-0.4-1.1-0.4s-0.9,0.2-1.3,0.6c-0.4,0.4-0.6,0.9-0.6,1.6v3.7h-1.1v-6.8H-216.2z"/>
					<path class="st3" d="M-204,446.5c0,1-0.3,1.9-0.9,2.5c-0.6,0.7-1.4,1-2.4,1c-1,0-1.8-0.3-2.3-1c-0.6-0.7-0.9-1.5-0.9-2.5
						s0.3-1.9,0.9-2.5s1.4-1,2.4-1s1.8,0.3,2.3,1C-204.2,444.7-204,445.5-204,446.5z M-205.1,446.5c0-0.7-0.2-1.4-0.5-1.8
						c-0.4-0.5-0.9-0.7-1.6-0.7c-0.7,0-1.2,0.3-1.6,0.8c-0.4,0.5-0.6,1.1-0.6,1.8c0,0.7,0.2,1.3,0.6,1.8c0.4,0.5,0.9,0.7,1.6,0.7
						c0.7,0,1.2-0.2,1.5-0.7C-205.3,447.9-205.1,447.3-205.1,446.5z"/>
					<path class="st3" d="M-201.3,443.1v1.2c0.4-0.8,1-1.3,1.9-1.3c0.2,0,0.3,0,0.4,0v1.1c-0.2-0.1-0.4-0.1-0.6-0.1
						c-0.5,0-0.9,0.2-1.2,0.7c-0.3,0.4-0.5,0.9-0.5,1.5v3.7h-1.1l0-6.8H-201.3z"/>
					<path class="st3" d="M-196.9,443.1v1.1c0.4-0.8,1-1.2,1.9-1.2c1.1,0,1.7,0.4,2,1.3c0.2-0.4,0.5-0.8,0.8-1s0.8-0.3,1.2-0.3
						c0.7,0,1.2,0.2,1.6,0.6c0.4,0.4,0.5,0.9,0.5,1.6v4.7h-1.1v-4.4c0-1-0.4-1.6-1.3-1.6c-0.4,0-0.8,0.2-1.2,0.6
						c-0.3,0.4-0.5,0.9-0.5,1.7v3.7h-1.1v-4.4c0-1-0.4-1.6-1.3-1.6c-0.4,0-0.8,0.2-1.2,0.6c-0.3,0.4-0.5,0.9-0.5,1.7v3.7h-1.1v-6.8
						H-196.9z"/>
					<path class="st3" d="M-184.8,443c1.7,0,2.6,0.9,2.6,2.6v4.3h-1.1v-0.8c-0.4,0.6-1,0.9-1.9,0.9c-0.6,0-1.2-0.2-1.5-0.6
						c-0.4-0.4-0.6-0.9-0.6-1.5s0.2-1.1,0.8-1.5c0.5-0.4,1.2-0.5,2-0.5h1.2v-0.4c0-0.5-0.1-0.9-0.4-1.2c-0.2-0.3-0.7-0.4-1.3-0.4
						s-1.3,0.2-1.8,0.6v-1.1C-186.3,443.1-185.6,443-184.8,443z M-183.3,446.8h-1.2c-0.6,0-1,0.1-1.3,0.3s-0.4,0.5-0.4,0.9
						s0.1,0.6,0.3,0.8c0.2,0.2,0.6,0.3,1,0.3s0.8-0.1,1.1-0.4s0.4-0.6,0.4-1V446.8z"/>
					<path class="st3" d="M-180.3,449.9v-9.5h1.1v9.5H-180.3z"/>
					<path class="st3" d="M-177.1,441.4c-0.1-0.1-0.2-0.3-0.2-0.5c0-0.2,0.1-0.4,0.2-0.5c0.1-0.1,0.3-0.2,0.5-0.2
						c0.2,0,0.4,0.1,0.5,0.2c0.1,0.1,0.2,0.3,0.2,0.5c0,0.2-0.1,0.4-0.2,0.5c-0.1,0.1-0.3,0.2-0.5,0.2
						C-176.8,441.6-177,441.6-177.1,441.4z M-177.1,449.9v-6.8h1.1v6.8H-177.1z"/>
					<path class="st3" d="M-172.6,444v4c0,0.7,0.3,1.1,1,1.1c0.4,0,0.7-0.1,0.9-0.3v1c-0.3,0.2-0.6,0.2-1,0.2c-1.4,0-2-0.7-2-2.1v-4
						h-1.1v-0.9h1.1v-1.7h1.1v1.7h1.9v0.9H-172.6z"/>
					<path class="st3" d="M-169,441.4c-0.1-0.1-0.2-0.3-0.2-0.5c0-0.2,0.1-0.4,0.2-0.5c0.1-0.1,0.3-0.2,0.5-0.2
						c0.2,0,0.4,0.1,0.5,0.2c0.1,0.1,0.2,0.3,0.2,0.5c0,0.2-0.1,0.4-0.2,0.5c-0.1,0.1-0.3,0.2-0.5,0.2
						C-168.7,441.6-168.8,441.6-169,441.4z M-169,449.9v-6.8h1.1v6.8H-169z"/>
					<path class="st3" d="M-162.8,450c-1,0-1.9-0.3-2.5-1c-0.6-0.6-1-1.5-1-2.6s0.3-1.9,0.9-2.5c0.6-0.6,1.3-0.9,2.2-0.9
						s1.6,0.3,2.1,0.8c0.5,0.5,0.8,1.3,0.8,2.3c0,0.3,0,0.6-0.1,0.8h-4.7c0.1,0.7,0.3,1.2,0.8,1.6c0.4,0.4,1,0.5,1.7,0.5
						c0.7,0,1.3-0.2,1.8-0.5v1C-161.4,449.9-162.1,450-162.8,450z M-161.5,446.1v-0.3c0-0.6-0.2-1-0.5-1.4c-0.3-0.3-0.7-0.5-1.2-0.5
						s-1,0.2-1.3,0.6s-0.6,0.9-0.6,1.6H-161.5z"/>
					<path class="st3" d="M-156.8,444c-0.4,0-0.6,0.1-0.9,0.2c-0.2,0.2-0.3,0.4-0.3,0.6c0,0.2,0,0.4,0.1,0.5
						c0.1,0.1,0.2,0.2,0.4,0.4c0.2,0.1,0.6,0.3,1.1,0.5c0.5,0.2,0.9,0.5,1.2,0.8c0.3,0.3,0.5,0.7,0.5,1.3s-0.2,1-0.6,1.3
						c-0.4,0.3-1,0.5-1.8,0.5s-1.4-0.1-1.9-0.4v-1c0.6,0.4,1.3,0.5,1.9,0.5c0.4,0,0.7-0.1,0.9-0.2s0.3-0.4,0.3-0.7s-0.1-0.5-0.4-0.7
						c-0.2-0.2-0.6-0.4-1.2-0.6c-0.5-0.2-1-0.5-1.3-0.8s-0.5-0.7-0.5-1.2c0-0.5,0.2-1,0.6-1.3c0.4-0.3,1-0.5,1.7-0.5
						c0.7,0,1.2,0.1,1.7,0.3v1C-155.5,444.1-156.1,444-156.8,444z"/>
					<path class="st3" d="M-153.7,449.8c-0.2-0.2-0.2-0.3-0.2-0.6s0.1-0.4,0.2-0.6c0.2-0.2,0.3-0.2,0.6-0.2c0.2,0,0.4,0.1,0.6,0.2
						c0.2,0.2,0.2,0.3,0.2,0.6s-0.1,0.4-0.2,0.6c-0.2,0.2-0.3,0.2-0.6,0.2C-153.4,450-153.6,450-153.7,449.8z"/>
				</g>
			</g>
		</g>
	</g>
	<g id="evening">
		<polygon id="evening-arrow" class="st1" points="-286.6,665.2 -215.8,665.3 -251.2,700.7 		"/>
		<g id="evening-badge">
			<rect id="evening-square" x="-365" y="522.7" class="st1" width="227.5" height="144"/>
			<g id="evening-title">
				<g class="st2">
					<path class="st3" d="M-282.7,539.6c-0.7,0-1.2,0.2-1.6,0.7c-0.4,0.5-0.6,1.1-0.7,1.9c0.7-0.4,1.4-0.7,2.2-0.7
						c1,0,1.9,0.3,2.6,1c0.7,0.7,1,1.6,1,2.7s-0.4,2-1.1,2.7c-0.8,0.7-1.7,1-2.8,1c-0.8,0-1.5-0.2-2.1-0.5c-0.6-0.3-1-0.7-1.4-1.3
						c-0.6-1.1-1-2.4-1-4c0-1,0.1-1.9,0.4-2.7s0.6-1.4,1-1.8c0.9-0.9,1.9-1.3,3.2-1.3c0.5,0,1,0.1,1.5,0.2s0.8,0.3,1.1,0.5
						s0.5,0.4,0.8,0.6l-1.2,1.8c-0.1-0.1-0.2-0.1-0.3-0.3c-0.1-0.1-0.4-0.2-0.7-0.4C-282,539.7-282.4,539.6-282.7,539.6z
						 M-283,543.7c-0.5,0-0.9,0.1-1.2,0.4c-0.3,0.3-0.5,0.7-0.5,1.1c0,0.5,0.2,0.9,0.5,1.2s0.7,0.5,1.2,0.5s0.9-0.1,1.2-0.4
						c0.3-0.3,0.5-0.7,0.5-1.2s-0.1-0.9-0.4-1.2C-282.1,543.8-282.5,543.7-283,543.7z"/>
					<path class="st3" d="M-276.8,544.4c-0.3-0.3-0.4-0.6-0.4-1c0-0.4,0.1-0.7,0.4-1c0.3-0.3,0.6-0.4,1-0.4s0.7,0.1,1,0.4
						c0.3,0.3,0.4,0.6,0.4,1c0,0.4-0.1,0.7-0.4,1c-0.3,0.3-0.6,0.4-1,0.4S-276.5,544.7-276.8,544.4z M-276.8,548.7
						c-0.3-0.3-0.4-0.6-0.4-1c0-0.4,0.1-0.7,0.4-1c0.3-0.3,0.6-0.4,1-0.4s0.7,0.1,1,0.4c0.3,0.3,0.4,0.6,0.4,1c0,0.4-0.1,0.7-0.4,1
						c-0.3,0.3-0.6,0.4-1,0.4S-276.5,548.9-276.8,548.7z"/>
					<path class="st3" d="M-272.1,539.9v-2.1h6.8v1.7l-2.3,2.6c0.9,0.1,1.6,0.5,2.1,1.1s0.7,1.3,0.7,2.1c0,1.2-0.4,2.1-1.2,2.8
						c-0.8,0.7-1.8,1-3,1s-2.5-0.4-3.8-1.3l1-2c1.1,0.7,2,1.1,2.8,1.1c0.5,0,0.9-0.1,1.2-0.4s0.5-0.6,0.5-1.1c0-0.5-0.2-0.8-0.6-1.1
						c-0.4-0.3-0.9-0.4-1.6-0.4c-0.4,0-0.8,0.1-1.5,0.3v-1.8l2.1-2.5H-272.1z"/>
					<path class="st3" d="M-258.4,549.1c-1.5,0-2.7-0.5-3.5-1.6c-0.8-1-1.2-2.5-1.2-4.2c0-1.8,0.4-3.2,1.2-4.2
						c0.8-1,1.9-1.6,3.5-1.6c1.5,0,2.7,0.5,3.5,1.6c0.8,1.1,1.2,2.5,1.2,4.2c0,1.8-0.4,3.2-1.2,4.2
						C-255.6,548.5-256.8,549.1-258.4,549.1z M-260,540.6c-0.4,0.7-0.5,1.6-0.5,2.7c0,1.1,0.2,2,0.5,2.7s0.9,1,1.6,1s1.3-0.3,1.6-1
						s0.5-1.6,0.5-2.7c0-1.1-0.2-2-0.5-2.7s-0.9-1-1.6-1S-259.6,539.9-260,540.6z"/>
					<path class="st3" d="M-239.5,538.7c0.8,0.7,1.2,1.7,1.2,3.1c0,1.4-0.4,2.4-1.2,3c-0.8,0.6-2,1-3.7,1h-1.5v3.1h-2.5v-11.2h4
						C-241.6,537.7-240.3,538.1-239.5,538.7z M-241.4,543.1c0.3-0.3,0.4-0.8,0.4-1.5s-0.2-1.1-0.6-1.4c-0.4-0.3-1-0.4-1.8-0.4h-1.4
						v3.8h1.7C-242.2,543.7-241.7,543.5-241.4,543.1z"/>
					<path class="st3" d="M-237.3,548.7c-0.3-0.3-0.4-0.6-0.4-1c0-0.4,0.1-0.7,0.4-1c0.3-0.3,0.6-0.4,1-0.4c0.4,0,0.7,0.1,1,0.4
						c0.3,0.3,0.4,0.6,0.4,1c0,0.4-0.1,0.7-0.4,1c-0.3,0.3-0.6,0.4-1,0.4C-236.7,549.1-237,548.9-237.3,548.7z"/>
					<path class="st3" d="M-222.6,541.9l-3,6.1h-1.5l-3-6.1v7h-2.5v-11.2h3.4l2.9,6.1l2.9-6.1h3.4v11.2h-2.5V541.9z"/>
					<path class="st3" d="M-217.4,548.7c-0.3-0.3-0.4-0.6-0.4-1c0-0.4,0.1-0.7,0.4-1c0.3-0.3,0.6-0.4,1-0.4s0.7,0.1,1,0.4
						c0.3,0.3,0.4,0.6,0.4,1c0,0.4-0.1,0.7-0.4,1c-0.3,0.3-0.6,0.4-1,0.4S-217.2,548.9-217.4,548.7z"/>
				</g>
			</g>
			<g id="evening-details">
				<path id="evening-icon" class="st3" d="M-250.3,607.7c-12.8,0-23.2-10.4-23.2-23.2c0-12.5,9.8-22.7,22.3-23.1
					c0.8,0,1.5,0.5,1.8,1.2c0.3,0.8,0.1,1.6-0.5,2.2c-3.4,3.1-5.3,7.4-5.3,12.1c0,9,7.4,16.4,16.4,16.4c2.4,0,4.7-0.5,6.9-1.5
					c0.8-0.3,1.6-0.2,2.2,0.4c0.6,0.6,0.7,1.4,0.4,2.2C-233,602.4-241.3,607.7-250.3,607.7z M-238.7,597.1
					c-11.2,0-20.3-9.1-20.3-20.3c0-3.8,1.1-7.6,3.1-10.8c-8,2.4-13.8,9.7-13.8,18.5c0,10.6,8.7,19.3,19.3,19.3
					c5.8,0,11.3-2.7,14.9-7C-236.5,597.1-237.6,597.1-238.7,597.1z"/>
				<rect id="XMLID_26_" x="-321.7" y="622.7" class="st4" width="140.9" height="33.9"/>
				<g class="st2">
					<path class="st3" d="M-344.2,624.6h-1.4v3.6h-1.1v-9.1h2.3c1.1,0,1.9,0.2,2.4,0.7s0.8,1.2,0.8,2.1c0,0.6-0.2,1.2-0.5,1.6
						c-0.3,0.4-0.8,0.8-1.3,0.9l2.4,3.8h-1.3L-344.2,624.6z M-345.6,620v3.6h1.4c0.6,0,1.1-0.2,1.4-0.5c0.3-0.3,0.5-0.8,0.5-1.3
						c0-1.2-0.7-1.8-2-1.8H-345.6z"/>
					<path class="st3" d="M-336.3,628.2c-1,0-1.9-0.3-2.5-1c-0.6-0.6-1-1.5-1-2.6s0.3-1.9,0.9-2.5c0.6-0.6,1.3-0.9,2.2-0.9
						s1.6,0.3,2.1,0.8c0.5,0.5,0.8,1.3,0.8,2.3c0,0.3,0,0.6-0.1,0.8h-4.7c0.1,0.7,0.3,1.2,0.8,1.6c0.4,0.4,1,0.5,1.7,0.5
						c0.7,0,1.3-0.2,1.8-0.5v1C-334.9,628.1-335.5,628.2-336.3,628.2z M-335,624.3v-0.3c0-0.6-0.2-1-0.5-1.4
						c-0.3-0.3-0.7-0.5-1.2-0.5s-1,0.2-1.3,0.6c-0.4,0.4-0.6,0.9-0.6,1.6H-335z"/>
					<path class="st3" d="M-330.3,622.2c-0.4,0-0.6,0.1-0.9,0.2c-0.2,0.2-0.3,0.4-0.3,0.6c0,0.2,0,0.4,0.1,0.5
						c0.1,0.1,0.2,0.2,0.4,0.4c0.2,0.1,0.6,0.3,1.1,0.5c0.5,0.2,0.9,0.5,1.2,0.8c0.3,0.3,0.5,0.7,0.5,1.3s-0.2,1-0.6,1.3
						c-0.4,0.3-1,0.5-1.8,0.5s-1.4-0.1-1.9-0.4v-1c0.6,0.4,1.3,0.5,1.9,0.5c0.4,0,0.7-0.1,0.9-0.2s0.3-0.4,0.3-0.7s-0.1-0.5-0.4-0.7
						c-0.2-0.2-0.6-0.4-1.2-0.6c-0.5-0.2-1-0.5-1.3-0.8s-0.5-0.7-0.5-1.2c0-0.5,0.2-1,0.6-1.3c0.4-0.3,1-0.5,1.7-0.5
						c0.7,0,1.2,0.1,1.7,0.3v1C-329,622.3-329.6,622.2-330.3,622.2z"/>
					<path class="st3" d="M-325.3,622.2v4c0,0.7,0.3,1.1,1,1.1c0.4,0,0.7-0.1,0.9-0.3v1c-0.3,0.2-0.6,0.2-1,0.2c-1.4,0-2-0.7-2-2.1
						v-4h-1.1v-0.9h1.1v-1.7h1.1v1.7h1.9v0.9H-325.3z"/>
					<path class="st3" d="M-315.4,628.2c-1,0-1.9-0.3-2.5-1c-0.6-0.6-1-1.5-1-2.6s0.3-1.9,0.9-2.5c0.6-0.6,1.3-0.9,2.2-0.9
						s1.6,0.3,2.1,0.8c0.5,0.5,0.8,1.3,0.8,2.3c0,0.3,0,0.6-0.1,0.8h-4.7c0.1,0.7,0.3,1.2,0.8,1.6c0.4,0.4,1,0.5,1.7,0.5
						c0.7,0,1.3-0.2,1.8-0.5v1C-314,628.1-314.6,628.2-315.4,628.2z M-314.1,624.3v-0.3c0-0.6-0.2-1-0.5-1.4
						c-0.3-0.3-0.7-0.5-1.2-0.5s-1,0.2-1.3,0.6c-0.4,0.4-0.6,0.9-0.6,1.6H-314.1z"/>
					<path class="st3" d="M-309.2,621.2c1.7,0,2.6,0.9,2.6,2.6v4.3h-1.1v-0.8c-0.4,0.6-1,0.9-1.9,0.9c-0.6,0-1.2-0.2-1.5-0.6
						c-0.4-0.4-0.6-0.9-0.6-1.5s0.2-1.1,0.7-1.5s1.2-0.5,2-0.5h1.2v-0.4c0-0.5-0.1-0.9-0.4-1.2c-0.2-0.3-0.7-0.4-1.3-0.4
						c-0.7,0-1.3,0.2-1.8,0.6v-1.1C-310.8,621.4-310.1,621.2-309.2,621.2z M-307.7,625h-1.2c-0.6,0-1,0.1-1.3,0.3s-0.4,0.5-0.4,0.9
						s0.1,0.6,0.3,0.8s0.6,0.3,1,0.3s0.8-0.1,1.1-0.4s0.4-0.6,0.4-1V625z"/>
					<path class="st3" d="M-302.8,622.2c-0.4,0-0.6,0.1-0.9,0.2c-0.2,0.2-0.3,0.4-0.3,0.6c0,0.2,0,0.4,0.1,0.5
						c0.1,0.1,0.2,0.2,0.4,0.4c0.2,0.1,0.6,0.3,1.1,0.5c0.5,0.2,0.9,0.5,1.2,0.8c0.3,0.3,0.5,0.7,0.5,1.3s-0.2,1-0.6,1.3
						c-0.4,0.3-1,0.5-1.8,0.5s-1.4-0.1-1.9-0.4v-1c0.6,0.4,1.3,0.5,1.9,0.5c0.4,0,0.7-0.1,0.9-0.2s0.3-0.4,0.3-0.7s-0.1-0.5-0.4-0.7
						c-0.2-0.2-0.6-0.4-1.2-0.6c-0.5-0.2-1-0.5-1.3-0.8s-0.5-0.7-0.5-1.2c0-0.5,0.2-1,0.6-1.3c0.4-0.3,1-0.5,1.7-0.5
						c0.7,0,1.2,0.1,1.7,0.3v1C-301.5,622.3-302,622.2-302.8,622.2z"/>
					<path class="st3" d="M-299.1,630.5c-0.2,0-0.4,0-0.6-0.1v-1c0.1,0,0.3,0.1,0.5,0.1c0.9,0,1.6-0.5,1.9-1.6l-2.8-6.7h1.2l2.1,5.4
						c0.1-0.3,0.7-2,1.9-5.4h1.1l-2.5,6.7c-0.4,0.9-0.8,1.6-1.2,2S-298.5,630.5-299.1,630.5z"/>
					<path class="st3" d="M-289.3,628.2v-9.5h1.1v9.5H-289.3z M-286.8,624.6l2.8,3.6h-1.3l-2.8-3.6l2.7-3.3h1.3L-286.8,624.6z"/>
					<path class="st3" d="M-281.7,621.3v1.2c0.4-0.9,1.1-1.3,2.2-1.3c0.7,0,1.2,0.2,1.6,0.6c0.4,0.4,0.6,0.9,0.6,1.6v4.7h-1.1v-4.4
						c0-0.5-0.1-0.9-0.4-1.2c-0.3-0.3-0.6-0.4-1.1-0.4c-0.5,0-0.9,0.2-1.3,0.6c-0.4,0.4-0.6,0.9-0.6,1.6v3.7h-1.1v-6.8H-281.7z"/>
					<path class="st3" d="M-269.5,624.8c0,1-0.3,1.9-0.9,2.5c-0.6,0.7-1.4,1-2.4,1s-1.8-0.3-2.3-1c-0.6-0.7-0.9-1.5-0.9-2.5
						s0.3-1.9,0.9-2.5c0.6-0.7,1.4-1,2.4-1c1,0,1.8,0.3,2.3,1C-269.8,622.9-269.5,623.8-269.5,624.8z M-270.6,624.8
						c0-0.7-0.2-1.4-0.5-1.8c-0.4-0.5-0.9-0.7-1.6-0.7s-1.2,0.3-1.6,0.8c-0.4,0.5-0.6,1.1-0.6,1.8c0,0.7,0.2,1.3,0.6,1.8
						c0.4,0.5,0.9,0.7,1.6,0.7c0.7,0,1.2-0.2,1.5-0.7C-270.8,626.1-270.6,625.5-270.6,624.8z"/>
					<path class="st3" d="M-266.5,628.2l-2.1-6.8h1.1c0.9,3,1.4,5,1.6,5.8c0.1-0.4,0.6-2.4,1.6-5.8h1.1l1.7,5.8
						c0.1-0.5,0.7-2.4,1.7-5.8h1.1l-2.2,6.8h-1.3l-0.6-2.2l-0.9-3.4c-0.1,0.4-0.6,2.3-1.5,5.7H-266.5z"/>
					<path class="st3" d="M-257.1,619.7c-0.1-0.1-0.2-0.3-0.2-0.5c0-0.2,0.1-0.4,0.2-0.5c0.1-0.1,0.3-0.2,0.5-0.2s0.4,0.1,0.5,0.2
						c0.1,0.1,0.2,0.3,0.2,0.5c0,0.2-0.1,0.4-0.2,0.5c-0.1,0.1-0.3,0.2-0.5,0.2S-257,619.8-257.1,619.7z M-257.2,628.2v-6.8h1.1v6.8
						H-257.2z"/>
					<path class="st3" d="M-253,621.3v1.2c0.4-0.9,1.1-1.3,2.2-1.3c0.7,0,1.2,0.2,1.6,0.6c0.4,0.4,0.6,0.9,0.6,1.6v4.7h-1.1v-4.4
						c0-0.5-0.1-0.9-0.4-1.2c-0.3-0.3-0.6-0.4-1.1-0.4c-0.5,0-0.9,0.2-1.3,0.6c-0.4,0.4-0.6,0.9-0.6,1.6v3.7h-1.1v-6.8H-253z"/>
					<path class="st3" d="M-242.3,621.3h1.1v6.3c0,1-0.3,1.8-0.9,2.4c-0.6,0.5-1.3,0.8-2.2,0.8c-0.9,0-1.6-0.1-2.2-0.4v-1.1
						c0.6,0.3,1.2,0.5,1.9,0.5c1.5,0,2.2-0.7,2.2-2.2v-0.8c-0.5,0.8-1.1,1.2-1.9,1.2c-0.8,0-1.5-0.3-2.1-0.9
						c-0.6-0.6-0.8-1.4-0.8-2.4s0.3-1.9,0.8-2.5c0.5-0.7,1.2-1,2.1-1s1.5,0.4,2,1.2V621.3z M-246.1,624.7c0,0.8,0.2,1.3,0.6,1.7
						c0.4,0.4,0.8,0.6,1.3,0.6c0.5,0,0.9-0.2,1.3-0.6c0.4-0.4,0.6-1,0.6-1.8c0-0.8-0.2-1.4-0.6-1.9c-0.4-0.4-0.8-0.6-1.4-0.6
						s-1,0.2-1.3,0.7C-245.9,623.4-246.1,624-246.1,624.7z"/>
					<path class="st3" d="M-234.6,622.2v4c0,0.7,0.3,1.1,1,1.1c0.4,0,0.7-0.1,0.9-0.3v1c-0.3,0.2-0.6,0.2-1,0.2c-1.4,0-2-0.7-2-2.1
						v-4h-1.1v-0.9h1.1v-1.7h1.1v1.7h1.9v0.9H-234.6z"/>
					<path class="st3" d="M-230,618.6v3.9c0.4-0.9,1.1-1.3,2.2-1.3c0.7,0,1.2,0.2,1.6,0.6c0.4,0.4,0.6,1,0.6,1.6v4.7h-1.1v-4.4
						c0-0.5-0.1-0.9-0.4-1.1c-0.3-0.3-0.6-0.4-1.1-0.4s-0.9,0.2-1.3,0.6c-0.4,0.4-0.6,0.9-0.6,1.7v3.7h-1.1v-9.5H-230z"/>
					<path class="st3" d="M-220.8,628.2c-1,0-1.9-0.3-2.5-1c-0.6-0.6-1-1.5-1-2.6s0.3-1.9,0.9-2.5c0.6-0.6,1.3-0.9,2.2-0.9
						s1.6,0.3,2.1,0.8c0.5,0.5,0.8,1.3,0.8,2.3c0,0.3,0,0.6-0.1,0.8h-4.7c0.1,0.7,0.3,1.2,0.8,1.6c0.4,0.4,1,0.5,1.7,0.5
						c0.7,0,1.3-0.2,1.8-0.5v1C-219.3,628.1-220,628.2-220.8,628.2z M-219.4,624.3v-0.3c0-0.6-0.2-1-0.5-1.4
						c-0.3-0.3-0.7-0.5-1.2-0.5s-1,0.2-1.3,0.6s-0.6,0.9-0.6,1.6H-219.4z"/>
					<path class="st3" d="M-213.4,619.1h2.4c1.1,0,1.9,0.3,2.5,0.8s0.9,1.2,0.9,2.1s-0.3,1.5-0.9,2.1c-0.6,0.5-1.4,0.8-2.4,0.8h-1.4
						v3.3h-1.1V619.1z M-212.3,623.9h1.5c0.7,0,1.2-0.2,1.6-0.6c0.4-0.4,0.6-0.8,0.6-1.4s-0.2-1-0.6-1.4s-0.9-0.6-1.6-0.6h-1.4
						V623.9z"/>
					<path class="st3" d="M-201.9,621.3h1.1v6.8h-1.1V627c-0.4,0.8-1.1,1.3-2.1,1.3c-0.7,0-1.2-0.2-1.6-0.6s-0.6-0.9-0.6-1.6v-4.7
						h1.1v4.4c0,0.5,0.1,0.9,0.4,1.1c0.3,0.3,0.6,0.4,1.1,0.4c0.5,0,0.9-0.2,1.3-0.6c0.3-0.4,0.5-0.9,0.5-1.6V621.3z"/>
					<path class="st3" d="M-198.8,628.2v-9.5h1.1v9.5H-198.8z"/>
					<path class="st3" d="M-193.6,622.2c-0.4,0-0.6,0.1-0.9,0.2c-0.2,0.2-0.3,0.4-0.3,0.6c0,0.2,0,0.4,0.1,0.5
						c0.1,0.1,0.2,0.2,0.4,0.4c0.2,0.1,0.6,0.3,1.1,0.5c0.5,0.2,0.9,0.5,1.2,0.8c0.3,0.3,0.5,0.7,0.5,1.3s-0.2,1-0.6,1.3
						c-0.4,0.3-1,0.5-1.8,0.5s-1.4-0.1-1.9-0.4v-1c0.6,0.4,1.3,0.5,1.9,0.5c0.4,0,0.7-0.1,0.9-0.2s0.3-0.4,0.3-0.7s-0.1-0.5-0.4-0.7
						c-0.2-0.2-0.6-0.4-1.2-0.6c-0.5-0.2-1-0.5-1.3-0.8s-0.5-0.7-0.5-1.2c0-0.5,0.2-1,0.6-1.3c0.4-0.3,1-0.5,1.7-0.5
						s1.2,0.1,1.7,0.3v1C-192.4,622.3-192.9,622.2-193.6,622.2z"/>
					<path class="st3" d="M-187.1,628.2c-1,0-1.9-0.3-2.5-1c-0.6-0.6-1-1.5-1-2.6s0.3-1.9,0.9-2.5c0.6-0.6,1.3-0.9,2.2-0.9
						s1.6,0.3,2.1,0.8c0.5,0.5,0.8,1.3,0.8,2.3c0,0.3,0,0.6-0.1,0.8h-4.7c0.1,0.7,0.3,1.2,0.8,1.6c0.4,0.4,1,0.5,1.7,0.5
						c0.7,0,1.3-0.2,1.8-0.5v1C-185.6,628.1-186.3,628.2-187.1,628.2z M-185.7,624.3v-0.3c0-0.6-0.2-1-0.5-1.4
						c-0.3-0.3-0.7-0.5-1.2-0.5s-1,0.2-1.3,0.6s-0.6,0.9-0.6,1.6H-185.7z"/>
					<path class="st3" d="M-182,618.6v3.7c0.5-0.8,1.2-1.1,2.1-1.1c0.9,0,1.6,0.3,2.1,1c0.5,0.7,0.8,1.5,0.8,2.5s-0.3,1.9-0.8,2.5
						c-0.5,0.7-1.2,1-2.1,1c-0.9,0-1.6-0.4-2.1-1.1v1h-1.1v-9.5H-182z M-182,624.7c0,0.9,0.2,1.5,0.6,2c0.4,0.4,0.9,0.6,1.4,0.6
						s1-0.2,1.4-0.7c0.4-0.5,0.5-1.1,0.5-1.9s-0.2-1.4-0.6-1.9c-0.4-0.5-0.8-0.7-1.3-0.7s-1,0.2-1.4,0.6S-182,623.9-182,624.7z"/>
					<path class="st3" d="M-173.2,621.2c1.7,0,2.6,0.9,2.6,2.6v4.3h-1.1v-0.8c-0.4,0.6-1,0.9-1.9,0.9c-0.6,0-1.2-0.2-1.5-0.6
						c-0.4-0.4-0.6-0.9-0.6-1.5s0.2-1.1,0.8-1.5c0.5-0.4,1.2-0.5,2-0.5h1.2v-0.4c0-0.5-0.1-0.9-0.4-1.2c-0.2-0.3-0.7-0.4-1.3-0.4
						s-1.3,0.2-1.8,0.6v-1.1C-174.7,621.4-174,621.2-173.2,621.2z M-171.7,625h-1.2c-0.6,0-1,0.1-1.3,0.3s-0.4,0.5-0.4,0.9
						s0.1,0.6,0.3,0.8c0.2,0.2,0.6,0.3,1,0.3s0.8-0.1,1.1-0.4s0.4-0.6,0.4-1V625z"/>
					<path class="st3" d="M-167.7,621.3v1.2c0.4-0.9,1.1-1.3,2.2-1.3c0.7,0,1.2,0.2,1.6,0.6c0.4,0.4,0.6,0.9,0.6,1.6v4.7h-1.1v-4.4
						c0-0.5-0.1-0.9-0.4-1.2c-0.3-0.3-0.6-0.4-1.1-0.4c-0.5,0-0.9,0.2-1.3,0.6c-0.4,0.4-0.6,0.9-0.6,1.6v3.7h-1.1v-6.8H-167.7z"/>
					<path class="st3" d="M-156.8,618.6h1.1v9.5h-1.1v-1c-0.5,0.7-1.2,1.1-2.1,1.1s-1.6-0.3-2.1-1s-0.8-1.5-0.8-2.5s0.3-1.9,0.8-2.5
						c0.5-0.7,1.3-1,2.1-1c0.9,0,1.6,0.4,2.1,1.1V618.6z M-160.7,624.8c0,0.8,0.2,1.4,0.5,1.9c0.4,0.5,0.8,0.7,1.4,0.7
						s1-0.2,1.4-0.6c0.4-0.4,0.6-1.1,0.6-2s-0.2-1.5-0.6-1.9c-0.4-0.4-0.9-0.6-1.4-0.6s-1,0.2-1.4,0.7
						C-160.5,623.3-160.7,624-160.7,624.8z"/>
				</g>
				<g class="st2">
					<path class="st3" d="M-344.8,642.8c0,1-0.3,1.9-0.9,2.5c-0.6,0.7-1.4,1-2.4,1s-1.8-0.3-2.3-1c-0.6-0.7-0.9-1.5-0.9-2.5
						s0.3-1.9,0.9-2.5c0.6-0.7,1.4-1,2.4-1c1,0,1.8,0.3,2.3,1C-345.1,640.9-344.8,641.8-344.8,642.8z M-345.9,642.8
						c0-0.7-0.2-1.4-0.5-1.8c-0.4-0.5-0.9-0.7-1.6-0.7s-1.2,0.3-1.6,0.8c-0.4,0.5-0.6,1.1-0.6,1.8c0,0.7,0.2,1.3,0.6,1.8
						c0.4,0.5,0.9,0.7,1.6,0.7c0.7,0,1.2-0.2,1.5-0.7C-346.1,644.1-345.9,643.5-345.9,642.8z"/>
					<path class="st3" d="M-341.5,646.2l-2.4-6.8h1.1l1.9,6c0.1-0.4,0.4-1.4,1-3.1l1-2.9h1.1l-2.4,6.8H-341.5z"/>
					<path class="st3" d="M-333.4,646.2c-1,0-1.9-0.3-2.5-1c-0.6-0.6-1-1.5-1-2.6s0.3-1.9,0.9-2.5c0.6-0.6,1.3-0.9,2.2-0.9
						s1.6,0.3,2.1,0.8c0.5,0.5,0.8,1.3,0.8,2.3c0,0.3,0,0.6-0.1,0.8h-4.7c0.1,0.7,0.3,1.2,0.8,1.6c0.4,0.4,1,0.5,1.7,0.5
						c0.7,0,1.3-0.2,1.8-0.5v1C-332,646.1-332.6,646.2-333.4,646.2z M-332.1,642.3v-0.3c0-0.6-0.2-1-0.5-1.4
						c-0.3-0.3-0.7-0.5-1.2-0.5s-1,0.2-1.3,0.6c-0.4,0.4-0.6,0.9-0.6,1.6H-332.1z"/>
					<path class="st3" d="M-328.3,639.3v1.2c0.4-0.8,1-1.3,1.9-1.3c0.2,0,0.3,0,0.4,0v1.1c-0.2-0.1-0.4-0.1-0.6-0.1
						c-0.5,0-0.9,0.2-1.2,0.7c-0.3,0.4-0.5,0.9-0.5,1.5v3.7h-1.1l0-6.8H-328.3z"/>
					<path class="st3" d="M-322.9,640.2c-0.4,0-0.6,0.1-0.9,0.2c-0.2,0.2-0.3,0.4-0.3,0.6c0,0.2,0,0.4,0.1,0.5
						c0.1,0.1,0.2,0.2,0.4,0.4c0.2,0.1,0.6,0.3,1.1,0.5c0.5,0.2,0.9,0.5,1.2,0.8c0.3,0.3,0.5,0.7,0.5,1.3s-0.2,1-0.6,1.3
						c-0.4,0.3-1,0.5-1.8,0.5s-1.4-0.1-1.9-0.4v-1c0.6,0.4,1.3,0.5,1.9,0.5c0.4,0,0.7-0.1,0.9-0.2s0.3-0.4,0.3-0.7s-0.1-0.5-0.4-0.7
						c-0.2-0.2-0.6-0.4-1.2-0.6c-0.5-0.2-1-0.5-1.3-0.8s-0.5-0.7-0.5-1.2c0-0.5,0.2-1,0.6-1.3c0.4-0.3,1-0.5,1.7-0.5
						c0.7,0,1.2,0.1,1.7,0.3v1C-321.7,640.3-322.2,640.2-322.9,640.2z"/>
					<path class="st3" d="M-316.4,646.2c-1,0-1.9-0.3-2.5-1c-0.6-0.6-1-1.5-1-2.6s0.3-1.9,0.9-2.5c0.6-0.6,1.3-0.9,2.2-0.9
						s1.6,0.3,2.1,0.8c0.5,0.5,0.8,1.3,0.8,2.3c0,0.3,0,0.6-0.1,0.8h-4.7c0.1,0.7,0.3,1.2,0.8,1.6c0.4,0.4,1,0.5,1.7,0.5
						c0.7,0,1.3-0.2,1.8-0.5v1C-314.9,646.1-315.6,646.2-316.4,646.2z M-315,642.3v-0.3c0-0.6-0.2-1-0.5-1.4
						c-0.3-0.3-0.7-0.5-1.2-0.5s-1,0.2-1.3,0.6c-0.4,0.4-0.6,0.9-0.6,1.6H-315z"/>
					<path class="st3" d="M-309.3,646.2c-1,0-1.9-0.3-2.5-1c-0.6-0.6-1-1.5-1-2.6s0.3-1.9,0.9-2.5c0.6-0.6,1.3-0.9,2.2-0.9
						s1.6,0.3,2.1,0.8c0.5,0.5,0.8,1.3,0.8,2.3c0,0.3,0,0.6-0.1,0.8h-4.7c0.1,0.7,0.3,1.2,0.8,1.6c0.4,0.4,1,0.5,1.7,0.5
						c0.7,0,1.3-0.2,1.8-0.5v1C-307.9,646.1-308.5,646.2-309.3,646.2z M-308,642.3v-0.3c0-0.6-0.2-1-0.5-1.4
						c-0.3-0.3-0.7-0.5-1.2-0.5s-1,0.2-1.3,0.6c-0.4,0.4-0.6,0.9-0.6,1.6H-308z"/>
					<path class="st3" d="M-303.3,640.2c-0.4,0-0.6,0.1-0.9,0.2c-0.2,0.2-0.3,0.4-0.3,0.6c0,0.2,0,0.4,0.1,0.5
						c0.1,0.1,0.2,0.2,0.4,0.4c0.2,0.1,0.6,0.3,1.1,0.5c0.5,0.2,0.9,0.5,1.2,0.8c0.3,0.3,0.5,0.7,0.5,1.3s-0.2,1-0.6,1.3
						c-0.4,0.3-1,0.5-1.8,0.5s-1.4-0.1-1.9-0.4v-1c0.6,0.4,1.3,0.5,1.9,0.5c0.4,0,0.7-0.1,0.9-0.2s0.3-0.4,0.3-0.7s-0.1-0.5-0.4-0.7
						c-0.2-0.2-0.6-0.4-1.2-0.6c-0.5-0.2-1-0.5-1.3-0.8s-0.5-0.7-0.5-1.2c0-0.5,0.2-1,0.6-1.3c0.4-0.3,1-0.5,1.7-0.5
						c0.7,0,1.2,0.1,1.7,0.3v1C-302,640.3-302.6,640.2-303.3,640.2z"/>
					<path class="st3" d="M-296.4,648.5c-0.2,0-0.4,0-0.6-0.1v-1c0.1,0,0.3,0.1,0.5,0.1c0.9,0,1.6-0.5,1.9-1.6l-2.8-6.7h1.2l2.1,5.4
						c0.1-0.3,0.7-2,1.9-5.4h1.1l-2.5,6.7c-0.4,0.9-0.8,1.6-1.2,2S-295.8,648.5-296.4,648.5z"/>
					<path class="st3" d="M-283.8,642.8c0,1-0.3,1.9-0.9,2.5c-0.6,0.7-1.4,1-2.4,1s-1.8-0.3-2.3-1c-0.6-0.7-0.9-1.5-0.9-2.5
						s0.3-1.9,0.9-2.5c0.6-0.7,1.4-1,2.4-1c1,0,1.8,0.3,2.3,1C-284.1,640.9-283.8,641.8-283.8,642.8z M-284.9,642.8
						c0-0.7-0.2-1.4-0.5-1.8c-0.4-0.5-0.9-0.7-1.6-0.7s-1.2,0.3-1.6,0.8c-0.4,0.5-0.6,1.1-0.6,1.8c0,0.7,0.2,1.3,0.6,1.8
						c0.4,0.5,0.9,0.7,1.6,0.7c0.7,0,1.2-0.2,1.5-0.7C-285.1,644.1-284.9,643.5-284.9,642.8z"/>
					<path class="st3" d="M-278,639.3h1.1v6.8h-1.1V645c-0.4,0.8-1.1,1.3-2.1,1.3c-0.7,0-1.2-0.2-1.6-0.6s-0.6-0.9-0.6-1.6v-4.7h1.1
						v4.4c0,0.5,0.1,0.9,0.4,1.1c0.3,0.3,0.6,0.4,1.1,0.4s0.9-0.2,1.3-0.6c0.3-0.4,0.5-0.9,0.5-1.6V639.3z"/>
					<path class="st3" d="M-273.9,639.3v1.2c0.4-0.8,1-1.3,1.9-1.3c0.2,0,0.3,0,0.4,0v1.1c-0.2-0.1-0.4-0.1-0.6-0.1
						c-0.5,0-0.9,0.2-1.2,0.7c-0.3,0.4-0.5,0.9-0.5,1.5v3.7h-1.1l0-6.8H-273.9z"/>
					<path class="st3" d="M-266.2,636.6v3.9c0.4-0.9,1.1-1.3,2.2-1.3c0.7,0,1.2,0.2,1.6,0.6c0.4,0.4,0.6,1,0.6,1.6v4.7h-1.1v-4.4
						c0-0.5-0.1-0.9-0.4-1.1c-0.3-0.3-0.6-0.4-1.1-0.4s-0.9,0.2-1.3,0.6c-0.4,0.4-0.6,0.9-0.6,1.7v3.7h-1.1v-9.5H-266.2z"/>
					<path class="st3" d="M-256.9,646.2c-1,0-1.9-0.3-2.5-1c-0.6-0.6-1-1.5-1-2.6s0.3-1.9,0.9-2.5c0.6-0.6,1.3-0.9,2.2-0.9
						s1.6,0.3,2.1,0.8c0.5,0.5,0.8,1.3,0.8,2.3c0,0.3,0,0.6-0.1,0.8h-4.7c0.1,0.7,0.3,1.2,0.8,1.6c0.4,0.4,1,0.5,1.7,0.5
						c0.7,0,1.3-0.2,1.8-0.5v1C-255.5,646.1-256.1,646.2-256.9,646.2z M-255.6,642.3v-0.3c0-0.6-0.2-1-0.5-1.4
						c-0.3-0.3-0.7-0.5-1.2-0.5s-1,0.2-1.3,0.6c-0.4,0.4-0.6,0.9-0.6,1.6H-255.6z"/>
					<path class="st3" d="M-250.7,639.2c1.7,0,2.6,0.9,2.6,2.6v4.3h-1.1v-0.8c-0.4,0.6-1,0.9-1.9,0.9c-0.6,0-1.2-0.2-1.5-0.6
						c-0.4-0.4-0.6-0.9-0.6-1.5s0.2-1.1,0.7-1.5s1.2-0.5,2-0.5h1.2v-0.4c0-0.5-0.1-0.9-0.4-1.2c-0.2-0.3-0.7-0.4-1.3-0.4
						c-0.7,0-1.3,0.2-1.8,0.6v-1.1C-252.2,639.4-251.6,639.2-250.7,639.2z M-249.2,643h-1.2c-0.6,0-1,0.1-1.3,0.3s-0.4,0.5-0.4,0.9
						s0.1,0.6,0.3,0.8s0.6,0.3,1,0.3s0.8-0.1,1.1-0.4s0.4-0.6,0.4-1V643z"/>
					<path class="st3" d="M-246.2,646.2v-9.5h1.1v9.5H-246.2z"/>
					<path class="st3" d="M-241.6,640.2v4c0,0.7,0.3,1.1,1,1.1c0.4,0,0.7-0.1,0.9-0.3v1c-0.3,0.2-0.6,0.2-1,0.2c-1.3,0-2-0.7-2-2.1
						v-4h-1.1v-0.9h1.1v-1.7h1.1v1.7h1.9v0.9H-241.6z"/>
					<path class="st3" d="M-237.1,636.6v3.9c0.4-0.9,1.1-1.3,2.2-1.3c0.7,0,1.2,0.2,1.6,0.6c0.4,0.4,0.6,1,0.6,1.6v4.7h-1.1v-4.4
						c0-0.5-0.1-0.9-0.4-1.1c-0.3-0.3-0.6-0.4-1.1-0.4s-0.9,0.2-1.3,0.6c-0.4,0.4-0.6,0.9-0.6,1.7v3.7h-1.1v-9.5H-237.1z"/>
					<path class="st3" d="M-226.1,646.2l-2.1-6.8h1.1c0.9,3,1.4,5,1.6,5.8c0.1-0.4,0.6-2.4,1.6-5.8h1.1l1.7,5.8
						c0.1-0.5,0.7-2.4,1.7-5.8h1.1l-2.2,6.8h-1.3l-0.6-2.2l-0.9-3.4c-0.1,0.4-0.6,2.3-1.5,5.7H-226.1z"/>
					<path class="st3" d="M-215.8,636.6v3.9c0.4-0.9,1.1-1.3,2.2-1.3c0.7,0,1.2,0.2,1.6,0.6c0.4,0.4,0.6,1,0.6,1.6v4.7h-1.1v-4.4
						c0-0.5-0.1-0.9-0.4-1.1c-0.3-0.3-0.6-0.4-1.1-0.4s-0.9,0.2-1.3,0.6c-0.4,0.4-0.6,0.9-0.6,1.7v3.7h-1.1v-9.5H-215.8z"/>
					<path class="st3" d="M-209.5,637.7c-0.1-0.1-0.2-0.3-0.2-0.5c0-0.2,0.1-0.4,0.2-0.5c0.1-0.1,0.3-0.2,0.5-0.2
						c0.2,0,0.4,0.1,0.5,0.2c0.1,0.1,0.2,0.3,0.2,0.5c0,0.2-0.1,0.4-0.2,0.5c-0.1,0.1-0.3,0.2-0.5,0.2
						C-209.2,637.9-209.3,637.8-209.5,637.7z M-209.5,646.2v-6.8h1.1v6.8H-209.5z"/>
					<path class="st3" d="M-206.4,646.2v-9.5h1.1v9.5H-206.4z"/>
					<path class="st3" d="M-200.2,646.2c-1,0-1.9-0.3-2.5-1c-0.6-0.6-1-1.5-1-2.6s0.3-1.9,0.9-2.5c0.6-0.6,1.3-0.9,2.2-0.9
						s1.6,0.3,2.1,0.8c0.5,0.5,0.8,1.3,0.8,2.3c0,0.3,0,0.6-0.1,0.8h-4.7c0.1,0.7,0.3,1.2,0.8,1.6c0.4,0.4,1,0.5,1.7,0.5
						c0.7,0,1.3-0.2,1.8-0.5v1C-198.8,646.1-199.5,646.2-200.2,646.2z M-198.9,642.3v-0.3c0-0.6-0.2-1-0.5-1.4
						c-0.3-0.3-0.7-0.5-1.2-0.5s-1,0.2-1.3,0.6s-0.6,0.9-0.6,1.6H-198.9z"/>
					<path class="st3" d="M-191.9,639.3v1.2c0.4-0.8,1-1.3,1.9-1.3c0.2,0,0.3,0,0.4,0v1.1c-0.2-0.1-0.4-0.1-0.6-0.1
						c-0.5,0-0.9,0.2-1.2,0.7c-0.3,0.4-0.5,0.9-0.5,1.5v3.7h-1.1l0-6.8H-191.9z"/>
					<path class="st3" d="M-185.5,646.2c-1,0-1.9-0.3-2.5-1c-0.6-0.6-1-1.5-1-2.6s0.3-1.9,0.9-2.5s1.3-0.9,2.2-0.9s1.6,0.3,2.1,0.8
						s0.8,1.3,0.8,2.3c0,0.3,0,0.6-0.1,0.8h-4.7c0.1,0.7,0.3,1.2,0.8,1.6c0.4,0.4,1,0.5,1.7,0.5s1.3-0.2,1.8-0.5v1
						C-184.1,646.1-184.7,646.2-185.5,646.2z M-184.2,642.3v-0.3c0-0.6-0.2-1-0.5-1.4c-0.3-0.3-0.7-0.5-1.2-0.5s-1,0.2-1.3,0.6
						c-0.4,0.4-0.6,0.9-0.6,1.6H-184.2z"/>
					<path class="st3" d="M-179.5,640.2c-0.4,0-0.6,0.1-0.9,0.2c-0.2,0.2-0.3,0.4-0.3,0.6c0,0.2,0,0.4,0.1,0.5
						c0.1,0.1,0.2,0.2,0.4,0.4c0.2,0.1,0.6,0.3,1.1,0.5c0.5,0.2,0.9,0.5,1.2,0.8c0.3,0.3,0.5,0.7,0.5,1.3s-0.2,1-0.6,1.3
						c-0.4,0.3-1,0.5-1.8,0.5s-1.4-0.1-1.9-0.4v-1c0.6,0.4,1.3,0.5,1.9,0.5c0.4,0,0.7-0.1,0.9-0.2s0.3-0.4,0.3-0.7s-0.1-0.5-0.4-0.7
						c-0.2-0.2-0.6-0.4-1.2-0.6c-0.5-0.2-1-0.5-1.3-0.8s-0.5-0.7-0.5-1.2c0-0.5,0.2-1,0.6-1.3c0.4-0.3,1-0.5,1.7-0.5
						s1.2,0.1,1.7,0.3v1C-178.2,640.3-178.7,640.2-179.5,640.2z"/>
					<path class="st3" d="M-174.5,640.2v4c0,0.7,0.3,1.1,1,1.1c0.4,0,0.7-0.1,0.9-0.3v1c-0.3,0.2-0.6,0.2-1,0.2c-1.4,0-2-0.7-2-2.1
						v-4h-1.1v-0.9h1.1v-1.7h1.1v1.7h1.9v0.9H-174.5z"/>
					<path class="st3" d="M-170.9,637.7c-0.1-0.1-0.2-0.3-0.2-0.5c0-0.2,0.1-0.4,0.2-0.5c0.1-0.1,0.3-0.2,0.5-0.2
						c0.2,0,0.4,0.1,0.5,0.2c0.1,0.1,0.2,0.3,0.2,0.5c0,0.2-0.1,0.4-0.2,0.5c-0.1,0.1-0.3,0.2-0.5,0.2
						C-170.6,637.9-170.7,637.8-170.9,637.7z M-170.9,646.2v-6.8h1.1v6.8H-170.9z"/>
					<path class="st3" d="M-166.7,639.3v1.2c0.4-0.9,1.1-1.3,2.2-1.3c0.7,0,1.2,0.2,1.6,0.6c0.4,0.4,0.6,0.9,0.6,1.6v4.7h-1.1v-4.4
						c0-0.5-0.1-0.9-0.4-1.2c-0.3-0.3-0.6-0.4-1.1-0.4c-0.5,0-0.9,0.2-1.3,0.6c-0.4,0.4-0.6,0.9-0.6,1.6v3.7h-1.1v-6.8H-166.7z"/>
					<path class="st3" d="M-156,639.3h1.1v6.3c0,1-0.3,1.8-0.9,2.4c-0.6,0.5-1.3,0.8-2.2,0.8c-0.9,0-1.6-0.1-2.2-0.4v-1.1
						c0.6,0.3,1.2,0.5,1.9,0.5c1.5,0,2.2-0.7,2.2-2.2v-0.8c-0.5,0.8-1.1,1.2-1.9,1.2s-1.5-0.3-2.1-0.9c-0.6-0.6-0.8-1.4-0.8-2.4
						s0.3-1.9,0.8-2.5c0.5-0.7,1.2-1,2.1-1c0.9,0,1.5,0.4,2,1.2V639.3z M-159.8,642.7c0,0.8,0.2,1.3,0.6,1.7
						c0.4,0.4,0.8,0.6,1.3,0.6c0.5,0,0.9-0.2,1.3-0.6s0.6-1,0.6-1.8c0-0.8-0.2-1.4-0.6-1.9s-0.8-0.6-1.4-0.6c-0.5,0-1,0.2-1.3,0.7
						S-159.8,642-159.8,642.7z"/>
					<path class="st3" d="M-152.4,646.3c-0.2,0-0.4-0.1-0.6-0.2c-0.1-0.2-0.2-0.3-0.2-0.6s0.1-0.4,0.2-0.6c0.2-0.2,0.3-0.2,0.6-0.2
						c0.2,0,0.4,0.1,0.6,0.2c0.2,0.2,0.2,0.3,0.2,0.6s-0.1,0.4-0.2,0.6C-152,646.2-152.2,646.3-152.4,646.3z M-152.9,643.4v-6.3h1
						v6.3H-152.9z"/>
				</g>
			</g>
		</g>
	</g>
	<g id="the-story">
		<g id="the-story-badge">
			<rect id="the-story-square" x="-365" y="716.9" class="st5" width="227.5" height="144"/>
			<g id="the-story-title">
				<g class="st2">
					<path class="st3" d="M-296.9,747.1v9h-2.5v-9h-3.2v-2.2h8.8v2.2H-296.9z"/>
					<path class="st3" d="M-285,744.9h2.5v11.2h-2.5v-4.4h-4.4v4.4h-2.5v-11.2h2.5v4.7h4.4V744.9z"/>
					<path class="st3" d="M-271.7,744.9v2.2h-5.6v2.3h5v2.1h-5v2.3h5.7v2.2h-8.2v-11.2H-271.7z"/>
					<path class="st3" d="M-262.4,747.1c-0.2,0.2-0.4,0.5-0.4,0.8s0.1,0.6,0.4,0.8c0.3,0.2,1,0.4,2,0.7c1.1,0.3,1.9,0.7,2.5,1.2
						c0.6,0.5,0.9,1.3,0.9,2.3s-0.4,1.8-1.1,2.4s-1.7,0.9-3,0.9c-1.8,0-3.4-0.7-4.8-2l1.5-1.8c1.2,1.1,2.3,1.6,3.3,1.6
						c0.5,0,0.8-0.1,1.1-0.3s0.4-0.5,0.4-0.8s-0.1-0.6-0.4-0.8s-0.8-0.4-1.6-0.6c-1.3-0.3-2.3-0.7-2.9-1.2s-0.9-1.3-0.9-2.3
						s0.4-1.9,1.1-2.5c0.8-0.6,1.7-0.9,2.9-0.9c0.7,0,1.5,0.1,2.2,0.4s1.4,0.6,2,1.1l-1.3,1.8c-1-0.7-2-1.1-3-1.1
						C-261.9,746.8-262.2,746.9-262.4,747.1z"/>
					<path class="st3" d="M-250.2,747.1v9h-2.5v-9h-3.2v-2.2h8.8v2.2H-250.2z"/>
					<path class="st3" d="M-236.1,754.6c-1.1,1.1-2.5,1.7-4.2,1.7s-3-0.6-4.2-1.7c-1.1-1.1-1.7-2.5-1.7-4.1s0.6-3,1.7-4.1
						c1.1-1.1,2.5-1.7,4.2-1.7s3,0.6,4.2,1.7c1.1,1.1,1.7,2.5,1.7,4.1S-235,753.4-236.1,754.6z M-236.9,750.4c0-1-0.3-1.8-1-2.6
						c-0.6-0.7-1.4-1.1-2.4-1.1c-0.9,0-1.7,0.4-2.4,1.1s-1,1.6-1,2.6c0,1,0.3,1.8,1,2.5c0.6,0.7,1.4,1,2.4,1c0.9,0,1.7-0.3,2.4-1
						C-237.3,752.3-236.9,751.4-236.9,750.4z"/>
					<path class="st3" d="M-223.2,748.6c0,1.8-0.7,2.9-2.1,3.5l2.8,4h-3.1l-2.5-3.6h-1.7v3.6h-2.5v-11.2h4.2c1.7,0,3,0.3,3.7,0.9
						S-223.2,747.3-223.2,748.6z M-226.2,750c0.3-0.3,0.5-0.7,0.5-1.3s-0.2-1-0.5-1.2s-0.9-0.3-1.7-0.3h-1.9v3.3h1.8
						C-227.1,750.4-226.5,750.2-226.2,750z"/>
					<path class="st3" d="M-216.1,756.1h-2.5v-4.4l-3.9-6.8h2.7l2.4,4.2l2.4-4.2h2.7l-3.9,6.8V756.1z"/>
					<path class="st3" d="M-212,755.8c-0.3-0.3-0.4-0.6-0.4-1c0-0.4,0.1-0.7,0.4-1c0.3-0.3,0.6-0.4,1-0.4s0.7,0.1,1,0.4
						c0.3,0.3,0.4,0.6,0.4,1c0,0.4-0.1,0.7-0.4,1c-0.3,0.3-0.6,0.4-1,0.4S-211.7,756.1-212,755.8z"/>
					<path class="st3" d="M-207.4,755.8c-0.3-0.3-0.4-0.6-0.4-1c0-0.4,0.1-0.7,0.4-1c0.3-0.3,0.6-0.4,1-0.4c0.4,0,0.7,0.1,1,0.4
						c0.3,0.3,0.4,0.6,0.4,1c0,0.4-0.1,0.7-0.4,1c-0.3,0.3-0.6,0.4-1,0.4C-206.8,756.2-207.1,756.1-207.4,755.8z"/>
					<path class="st3" d="M-202.8,755.8c-0.3-0.3-0.4-0.6-0.4-1c0-0.4,0.1-0.7,0.4-1c0.3-0.3,0.6-0.4,1-0.4s0.7,0.1,1,0.4
						c0.3,0.3,0.4,0.6,0.4,1c0,0.4-0.1,0.7-0.4,1c-0.3,0.3-0.6,0.4-1,0.4S-202.5,756.1-202.8,755.8z"/>
				</g>
			</g>
			<g id="the-story-details">
				<path id="the-story-icon" class="st3" d="M-231.9,795.5c-0.1,0.2-0.3,0.3-0.6,0.3h-0.1c-0.2,0-0.4-0.1-0.6-0.2l-18.2-15.2
					l-18.2,15.2c-0.2,0.1-0.4,0.2-0.6,0.2s-0.4-0.1-0.6-0.3l-1.6-1.9c-0.3-0.3-0.2-0.9,0.1-1.2l18.9-15.8c1.1-0.9,2.9-0.9,4,0
					l6.4,5.4v-5.1c0-0.5,0.4-0.8,0.8-0.8h5.1c0.5,0,0.8,0.4,0.8,0.8v10.7l5.8,4.8c0.3,0.3,0.4,0.8,0.1,1.2L-231.9,795.5z
					 M-236.1,808c0,0.9-0.8,1.7-1.7,1.7h-10.1v-10.1h-6.7v10.1h-10.1c-0.9,0-1.7-0.8-1.7-1.7v-12.6c0-0.1,0-0.1,0-0.2l15.1-12.5
					l15.1,12.5c0,0.1,0,0.1,0,0.2V808H-236.1z"/>
				<rect id="XMLID_2_" x="-321.7" y="827" class="st4" width="140.9" height="15.9"/>
				<g class="st2">
					<path class="st3" d="M-304,828.3c-1,0-1.8,0.3-2.5,1c-0.7,0.7-1,1.5-1,2.6c0,1.1,0.3,2,1,2.6s1.5,1,2.6,1
						c0.9,0,1.6-0.2,2.2-0.7v1.1c-0.6,0.4-1.3,0.6-2.3,0.6c-1.4,0-2.5-0.4-3.3-1.3c-0.9-0.8-1.3-2-1.3-3.4s0.4-2.5,1.3-3.4
						c0.9-0.9,2-1.3,3.3-1.3c0.9,0,1.7,0.2,2.3,0.5v1.1c-0.4-0.2-0.8-0.4-1.1-0.4S-303.5,828.3-304,828.3z"/>
					<path class="st3" d="M-294.1,833.1c0,1-0.3,1.9-0.9,2.5c-0.6,0.7-1.4,1-2.4,1s-1.8-0.3-2.3-1c-0.6-0.7-0.9-1.5-0.9-2.5
						s0.3-1.9,0.9-2.5c0.6-0.7,1.4-1,2.4-1c1,0,1.8,0.3,2.3,1C-294.4,831.3-294.1,832.1-294.1,833.1z M-295.2,833.1
						c0-0.7-0.2-1.4-0.5-1.8c-0.4-0.5-0.9-0.7-1.6-0.7s-1.2,0.3-1.6,0.8c-0.4,0.5-0.6,1.1-0.6,1.8c0,0.7,0.2,1.3,0.6,1.8
						c0.4,0.5,0.9,0.7,1.6,0.7c0.7,0,1.2-0.2,1.5-0.7C-295.4,834.5-295.2,833.9-295.2,833.1z"/>
					<path class="st3" d="M-291.5,829.7v1.2c0.4-0.9,1.1-1.3,2.2-1.3c0.7,0,1.2,0.2,1.6,0.6c0.4,0.4,0.6,0.9,0.6,1.6v4.7h-1.1v-4.4
						c0-0.5-0.1-0.9-0.4-1.2c-0.3-0.3-0.6-0.4-1.1-0.4c-0.5,0-0.9,0.2-1.3,0.6c-0.4,0.4-0.6,0.9-0.6,1.6v3.7h-1.1v-6.8H-291.5z"/>
					<path class="st3" d="M-283.8,830.6v4c0,0.7,0.3,1.1,1,1.1c0.4,0,0.7-0.1,0.9-0.3v1c-0.3,0.2-0.6,0.2-1,0.2c-1.4,0-2-0.7-2-2.1
						v-4h-1.1v-0.9h1.1V828h1.1v1.7h1.9v0.9H-283.8z"/>
					<path class="st3" d="M-280.2,828c-0.1-0.1-0.2-0.3-0.2-0.5c0-0.2,0.1-0.4,0.2-0.5c0.1-0.1,0.3-0.2,0.5-0.2s0.4,0.1,0.5,0.2
						c0.1,0.1,0.2,0.3,0.2,0.5c0,0.2-0.1,0.4-0.2,0.5c-0.1,0.1-0.3,0.2-0.5,0.2S-280,828.2-280.2,828z M-280.2,836.5v-6.8h1.1v6.8
						H-280.2z"/>
					<path class="st3" d="M-276,829.7v1.2c0.4-0.9,1.1-1.3,2.2-1.3c0.7,0,1.2,0.2,1.6,0.6c0.4,0.4,0.6,0.9,0.6,1.6v4.7h-1.1v-4.4
						c0-0.5-0.1-0.9-0.4-1.2c-0.3-0.3-0.6-0.4-1.1-0.4c-0.5,0-0.9,0.2-1.3,0.6c-0.4,0.4-0.6,0.9-0.6,1.6v3.7h-1.1v-6.8H-276z"/>
					<path class="st3" d="M-265.6,829.7h1.1v6.8h-1.1v-1.2c-0.4,0.8-1.1,1.3-2.1,1.3c-0.7,0-1.2-0.2-1.6-0.6s-0.6-0.9-0.6-1.6v-4.7
						h1.1v4.4c0,0.5,0.1,0.9,0.4,1.1c0.3,0.3,0.6,0.4,1.1,0.4s0.9-0.2,1.3-0.6c0.3-0.4,0.5-0.9,0.5-1.6V829.7z"/>
					<path class="st3" d="M-259.5,836.6c-1,0-1.9-0.3-2.5-1c-0.6-0.6-1-1.5-1-2.6s0.3-1.9,0.9-2.5c0.6-0.6,1.3-0.9,2.2-0.9
						s1.6,0.3,2.1,0.8c0.5,0.5,0.8,1.3,0.8,2.3c0,0.3,0,0.6-0.1,0.8h-4.7c0.1,0.7,0.3,1.2,0.8,1.6c0.4,0.4,1,0.5,1.7,0.5
						c0.7,0,1.3-0.2,1.8-0.5v1C-258.1,836.5-258.7,836.6-259.5,836.6z M-258.2,832.7v-0.3c0-0.6-0.2-1-0.5-1.4
						c-0.3-0.3-0.7-0.5-1.2-0.5s-1,0.2-1.3,0.6c-0.4,0.4-0.6,0.9-0.6,1.6H-258.2z"/>
					<path class="st3" d="M-253.5,830.6c-0.4,0-0.6,0.1-0.9,0.2c-0.2,0.2-0.3,0.4-0.3,0.6c0,0.2,0,0.4,0.1,0.5
						c0.1,0.1,0.2,0.2,0.4,0.4c0.2,0.1,0.6,0.3,1.1,0.5c0.5,0.2,0.9,0.5,1.2,0.8c0.3,0.3,0.5,0.7,0.5,1.3s-0.2,1-0.6,1.3
						c-0.4,0.3-1,0.5-1.8,0.5s-1.4-0.1-1.9-0.4v-1c0.6,0.4,1.3,0.5,1.9,0.5c0.4,0,0.7-0.1,0.9-0.2s0.3-0.4,0.3-0.7s-0.1-0.5-0.4-0.7
						c-0.2-0.2-0.6-0.4-1.2-0.6c-0.5-0.2-1-0.5-1.3-0.8s-0.5-0.7-0.5-1.2c0-0.5,0.2-1,0.6-1.3c0.4-0.3,1-0.5,1.7-0.5
						c0.7,0,1.2,0.1,1.7,0.3v1C-252.2,830.7-252.7,830.6-253.5,830.6z"/>
					<path class="st3" d="M-245.2,836.5l-2.1-6.8h1.1c0.9,3,1.4,5,1.6,5.8c0.1-0.4,0.6-2.4,1.6-5.8h1.1l1.7,5.8
						c0.1-0.5,0.7-2.4,1.7-5.8h1.1l-2.2,6.8h-1.3l-0.6-2.2l-0.9-3.4c-0.1,0.4-0.6,2.3-1.5,5.7H-245.2z"/>
					<path class="st3" d="M-235.8,828c-0.1-0.1-0.2-0.3-0.2-0.5c0-0.2,0.1-0.4,0.2-0.5c0.1-0.1,0.3-0.2,0.5-0.2
						c0.2,0,0.4,0.1,0.5,0.2c0.1,0.1,0.2,0.3,0.2,0.5c0,0.2-0.1,0.4-0.2,0.5c-0.1,0.1-0.3,0.2-0.5,0.2
						C-235.5,828.2-235.7,828.2-235.8,828z M-235.9,836.5v-6.8h1.1v6.8H-235.9z"/>
					<path class="st3" d="M-231.3,830.6v4c0,0.7,0.3,1.1,1,1.1c0.4,0,0.7-0.1,0.9-0.3v1c-0.3,0.2-0.6,0.2-1,0.2c-1.3,0-2-0.7-2-2.1
						v-4h-1.1v-0.9h1.1V828h1.1v1.7h1.9v0.9H-231.3z"/>
					<path class="st3" d="M-226.7,827v3.9c0.4-0.9,1.1-1.3,2.2-1.3c0.7,0,1.2,0.2,1.6,0.6c0.4,0.4,0.6,1,0.6,1.6v4.7h-1.1v-4.4
						c0-0.5-0.1-0.9-0.4-1.1c-0.3-0.3-0.6-0.4-1.1-0.4s-0.9,0.2-1.3,0.6c-0.4,0.4-0.6,0.9-0.6,1.7v3.7h-1.1V827H-226.7z"/>
					<path class="st3" d="M-217.1,838.9c-0.2,0-0.4,0-0.6-0.1v-1c0.1,0,0.3,0.1,0.5,0.1c0.9,0,1.6-0.5,1.9-1.6l-2.8-6.7h1.2l2.1,5.4
						c0.1-0.3,0.7-2,1.9-5.4h1.1l-2.5,6.7c-0.4,0.9-0.8,1.6-1.2,2S-216.5,838.9-217.1,838.9z"/>
					<path class="st3" d="M-204.5,833.1c0,1-0.3,1.9-0.9,2.5c-0.6,0.7-1.4,1-2.4,1c-1,0-1.8-0.3-2.3-1c-0.6-0.7-0.9-1.5-0.9-2.5
						s0.3-1.9,0.9-2.5c0.6-0.7,1.4-1,2.4-1c1,0,1.8,0.3,2.3,1C-204.8,831.3-204.5,832.1-204.5,833.1z M-205.6,833.1
						c0-0.7-0.2-1.4-0.5-1.8c-0.4-0.5-0.9-0.7-1.6-0.7c-0.7,0-1.2,0.3-1.6,0.8c-0.4,0.5-0.6,1.1-0.6,1.8c0,0.7,0.2,1.3,0.6,1.8
						c0.4,0.5,0.9,0.7,1.6,0.7s1.2-0.2,1.5-0.7C-205.8,834.5-205.6,833.9-205.6,833.1z"/>
					<path class="st3" d="M-198.7,829.7h1.1v6.8h-1.1v-1.2c-0.4,0.8-1.1,1.3-2.1,1.3c-0.7,0-1.2-0.2-1.6-0.6s-0.6-0.9-0.6-1.6v-4.7
						h1.1v4.4c0,0.5,0.1,0.9,0.4,1.1c0.3,0.3,0.6,0.4,1.1,0.4c0.5,0,0.9-0.2,1.3-0.6c0.3-0.4,0.5-0.9,0.5-1.6V829.7z"/>
					<path class="st3" d="M-195,836.6c-0.2,0-0.4-0.1-0.6-0.2c-0.1-0.2-0.2-0.3-0.2-0.6s0.1-0.4,0.2-0.6c0.2-0.2,0.3-0.2,0.6-0.2
						c0.2,0,0.4,0.1,0.6,0.2c0.2,0.2,0.2,0.3,0.2,0.6s-0.1,0.4-0.2,0.6C-194.6,836.6-194.8,836.6-195,836.6z M-195.5,833.8v-6.3h1
						v6.3H-195.5z"/>
				</g>
			</g>
		</g>
	</g>
</g>
</svg>
