<?xml version="1.0" encoding="utf-8"?>
<!-- Generator: Adobe Illustrator 19.0.0, SVG Export Plug-In . SVG Version: 6.00 Build 0)  -->
<svg version="1.1" id="InteractiveSVG" xmlns="http://www.w3.org/2000/svg" xmlns:xlink="http://www.w3.org/1999/xlink" x="0px"
	 y="0px" viewBox="-186 20 586.4 761" style="enable-background:new -186 20 586.4 761;" xml:space="preserve">
<style type="text/css">
	.st0{fill:#335B7D;}
	.st1{fill:none;stroke:#F04861;stroke-width:3;stroke-miterlimit:10;}
	.st2{fill:#F04861;}
	.st3{enable-background:new    ;}
	.st4{fill:#FFFFFF;}
	.st5{fill:none;}
	.st6{fill:none;stroke:#0EBECC;stroke-width:3;stroke-miterlimit:10;}
	.st7{fill:#0EBECC;}
	.st8{fill:none;stroke:#51234D;stroke-width:3;stroke-miterlimit:10;}
	.st9{fill:#51234D;}
</style>
<g id="background_1_">
	<rect id="XMLID_4_" x="-186" y="20" class="st0" width="586.4" height="761"/>
</g>
<g id="timeline">
	<g id="morning">
		<line id="morning-bar" class="st1" x1="106.9" y1="20" x2="106.9" y2="164"/>
		<polygon id="morning-arrow" class="st2" points="106.9,127.4 106.9,56.6 71.5,92 		"/>
		<g id="morning-time">
			<g class="st3">
				<path class="st4" d="M180.5,92.5v-3.6h8.1v1.9l-4.5,9.3h-2.7l4.3-9h-2.8v1.4C182.9,92.5,180.5,92.5,180.5,92.5z"/>
				<path class="st4" d="M190.4,95.6c-0.3-0.3-0.4-0.6-0.4-1s0.1-0.7,0.4-1c0.3-0.3,0.6-0.4,1-0.4s0.7,0.1,1,0.4s0.4,0.6,0.4,1
					s-0.1,0.7-0.4,1c-0.3,0.3-0.6,0.4-1,0.4S190.7,95.9,190.4,95.6z M190.4,99.8c-0.3-0.3-0.4-0.6-0.4-1s0.1-0.7,0.4-1
					c0.3-0.3,0.6-0.4,1-0.4s0.7,0.1,1,0.4s0.4,0.6,0.4,1s-0.1,0.7-0.4,1c-0.3,0.3-0.6,0.4-1,0.4S190.7,100.1,190.4,99.8z"/>
				<path class="st4" d="M195.1,91v-2.1h6.8v1.7l-2.3,2.6c0.9,0.1,1.6,0.5,2.1,1.1s0.7,1.3,0.7,2.1c0,1.2-0.4,2.1-1.2,2.8
					c-0.8,0.7-1.8,1-3,1s-2.5-0.4-3.8-1.3l1-2c1.1,0.7,2,1.1,2.8,1.1c0.5,0,0.9-0.1,1.2-0.4s0.5-0.6,0.5-1.1s-0.2-0.8-0.6-1.1
					c-0.4-0.3-0.9-0.4-1.6-0.4c-0.4,0-0.8,0.1-1.5,0.3v-1.8l2.1-2.5C198.3,91,195.1,91,195.1,91z"/>
				<path class="st4" d="M208.9,100.2c-1.5,0-2.7-0.5-3.5-1.6c-0.8-1-1.2-2.5-1.2-4.2c0-1.8,0.4-3.2,1.2-4.2s1.9-1.6,3.5-1.6
					s2.7,0.5,3.5,1.6s1.2,2.5,1.2,4.2c0,1.8-0.4,3.2-1.2,4.2C211.6,99.7,210.4,100.2,208.9,100.2z M207.3,91.7
					c-0.4,0.7-0.5,1.6-0.5,2.7s0.2,2,0.5,2.7s0.9,1,1.6,1c0.7,0,1.3-0.3,1.6-1s0.5-1.6,0.5-2.7s-0.2-2-0.5-2.7s-0.9-1-1.6-1
					S207.6,91.1,207.3,91.7z"/>
				<path class="st4" d="M228,100.1l-1-2.4h-4.7l-1,2.4h-2.7l4.8-11.2h2.4l4.8,11.2H228z M224.6,92.2l-1.4,3.2h2.8L224.6,92.2z"/>
				<path class="st4" d="M231.9,99.8c-0.3-0.3-0.4-0.6-0.4-1s0.1-0.7,0.4-1c0.3-0.3,0.6-0.4,1-0.4s0.7,0.1,1,0.4s0.4,0.6,0.4,1
					s-0.1,0.7-0.4,1c-0.3,0.3-0.6,0.4-1,0.4C232.5,100.2,232.1,100.1,231.9,99.8z"/>
				<path class="st4" d="M246.6,93.1l-3,6.1h-1.5l-3-6.1v7h-2.5V88.9h3.4l2.9,6.1l2.9-6.1h3.4v11.2h-2.5L246.6,93.1L246.6,93.1z"/>
				<path class="st4" d="M251.7,99.8c-0.3-0.3-0.4-0.6-0.4-1s0.1-0.7,0.4-1c0.3-0.3,0.6-0.4,1-0.4s0.7,0.1,1,0.4s0.4,0.6,0.4,1
					s-0.1,0.7-0.4,1c-0.3,0.3-0.6,0.4-1,0.4S252,100.1,251.7,99.8z"/>
			</g>
		</g>
		<g id="morning-badge">
			<rect id="morning-square" x="-185.6" y="20" class="st2" width="227.5" height="144"/>
			<g id="morning-title">
				<g class="st3">
					<path class="st4" d="M-102.2,45.1l-3,6.1h-1.5l-3-6.1v7h-2.5V40.9h3.4l2.9,6.1l2.9-6.1h3.4v11.2h-2.5v-7H-102.2z"/>
					<path class="st4" d="M-87.6,50.6c-1.1,1.1-2.5,1.7-4.2,1.7s-3-0.6-4.2-1.7c-1.1-1.1-1.7-2.5-1.7-4.1s0.6-3,1.7-4.1
						s2.5-1.7,4.2-1.7s3,0.6,4.2,1.7c1.1,1.1,1.7,2.5,1.7,4.1S-86.4,49.5-87.6,50.6z M-88.4,46.5c0-1-0.3-1.8-1-2.6
						s-1.4-1.1-2.4-1.1c-0.9,0-1.7,0.4-2.4,1.1c-0.6,0.7-1,1.6-1,2.6s0.3,1.8,1,2.5c0.6,0.7,1.4,1,2.4,1c0.9,0,1.7-0.3,2.4-1
						S-88.4,47.5-88.4,46.5z"/>
					<path class="st4" d="M-74.7,44.6c0,1.8-0.7,2.9-2.1,3.5l2.8,4h-3.1l-2.5-3.6h-1.7v3.6h-2.5V40.9h4.2c1.7,0,3,0.3,3.7,0.9
						S-74.7,43.3-74.7,44.6z M-77.7,46c0.3-0.3,0.5-0.7,0.5-1.3s-0.2-1-0.5-1.2s-0.9-0.3-1.7-0.3h-1.9v3.3h1.8
						C-78.6,46.4-78,46.2-77.7,46z"/>
					<path class="st4" d="M-64.3,40.9h2.5v11.2h-2.5l-5.3-7v7h-2.5V40.9h2.3l5.5,7.2V40.9z"/>
					<path class="st4" d="M-59.1,40.9h2.5v11.2h-2.5V40.9z"/>
					<path class="st4" d="M-46,40.9h2.5v11.2H-46l-5.3-7v7h-2.5V40.9h2.3l5.5,7.2V40.9z"/>
					<path class="st4" d="M-33.5,46.4h2.5v4c-1.1,1.2-2.6,1.9-4.6,1.9c-1.6,0-3-0.5-4.1-1.6s-1.7-2.5-1.7-4.1c0-1.7,0.6-3,1.7-4.2
						c1.1-1.1,2.5-1.7,4.1-1.7s3,0.5,4.2,1.6l-1.3,1.9c-0.5-0.4-1-0.7-1.4-0.9s-0.9-0.2-1.4-0.2c-0.9,0-1.7,0.3-2.4,1
						c-0.7,0.6-1,1.5-1,2.6s0.3,1.9,0.9,2.5s1.4,1,2.2,1c0.9,0,1.6-0.2,2.2-0.5L-33.5,46.4L-33.5,46.4z"/>
				</g>
			</g>
			<g id="morning-details">
				<path id="morning-icon" class="st4" d="M-51.4,93.3l-7.2,2.4v7.5c0,0.2-0.1,0.5-0.3,0.6s-0.5,0.2-0.7,0.1l-7.2-2.3l-4.4,6.1
					c-0.1,0.2-0.4,0.3-0.6,0.3s-0.5-0.1-0.6-0.3l-4.4-6.1l-7.2,2.3c-0.2,0.1-0.5,0-0.7-0.1s-0.3-0.4-0.3-0.6v-7.5l-7.2-2.4
					c-0.2-0.1-0.4-0.2-0.5-0.5c-0.1-0.2,0-0.5,0.1-0.7l4.4-6.1l-4.4-6.1c-0.1-0.2-0.2-0.5-0.1-0.7s0.3-0.4,0.5-0.5l7.2-2.4v-7.5
					c0-0.2,0.1-0.5,0.3-0.6c0.2-0.1,0.5-0.2,0.7-0.1l7.2,2.3l4.4-6.1c0.3-0.4,1-0.4,1.3,0l4.4,6.1l7.2-2.3c0.2-0.1,0.5,0,0.7,0.1
					s0.3,0.4,0.3,0.6v7.5l7.2,2.4c0.2,0.1,0.4,0.2,0.5,0.5c0.1,0.2,0,0.5-0.1,0.7l-4.4,6.1l4.4,6.1c0.1,0.2,0.2,0.5,0.1,0.7
					C-51,93-51.2,93.2-51.4,93.3z M-71.9,71.8c-7.8,0-14.1,6.3-14.1,14.1s6.3,14.1,14.1,14.1s14.1-6.3,14.1-14.1
					S-64.1,71.8-71.9,71.8z"/>
				<rect id="XMLID_74_" x="-142.3" y="118.8" class="st5" width="140.9" height="33.9"/>
				<g class="st3">
					<path class="st4" d="M-155.7,124.8h-1.4v3.6h-1.1v-9.1h2.3c1.1,0,1.9,0.2,2.4,0.7s0.8,1.2,0.8,2.1c0,0.6-0.2,1.2-0.5,1.6
						s-0.8,0.8-1.3,0.9l2.4,3.8h-1.3L-155.7,124.8z M-157.1,120.2v3.6h1.4c0.6,0,1.1-0.2,1.4-0.5c0.3-0.3,0.5-0.8,0.5-1.3
						c0-1.2-0.7-1.8-2-1.8C-155.8,120.2-157.1,120.2-157.1,120.2z"/>
					<path class="st4" d="M-147.8,128.4c-1,0-1.9-0.3-2.5-1c-0.6-0.6-1-1.5-1-2.6s0.3-1.9,0.9-2.5s1.3-0.9,2.2-0.9s1.6,0.3,2.1,0.8
						s0.8,1.3,0.8,2.3c0,0.3,0,0.6-0.1,0.8h-4.7c0.1,0.7,0.3,1.2,0.8,1.6c0.4,0.4,1,0.5,1.7,0.5s1.3-0.2,1.8-0.5v1
						C-146.4,128.3-147.1,128.4-147.8,128.4z M-146.5,124.5v-0.3c0-0.6-0.2-1-0.5-1.4c-0.3-0.3-0.7-0.5-1.2-0.5s-1,0.2-1.3,0.6
						c-0.4,0.4-0.6,0.9-0.6,1.6C-150.1,124.5-146.5,124.5-146.5,124.5z"/>
					<path class="st4" d="M-142.1,128.4l-2.4-6.8h1.1l1.9,6c0.1-0.4,0.4-1.4,1-3.1l1-2.9h1.1l-2.4,6.8H-142.1z"/>
					<path class="st4" d="M-136.9,119.9c-0.1-0.1-0.2-0.3-0.2-0.5s0.1-0.4,0.2-0.5c0.1-0.1,0.3-0.2,0.5-0.2s0.4,0.1,0.5,0.2
						s0.2,0.3,0.2,0.5s-0.1,0.4-0.2,0.5c-0.1,0.1-0.3,0.2-0.5,0.2C-136.6,120.1-136.8,120-136.9,119.9z M-137,128.4v-6.8h1.1v6.8
						H-137z"/>
					<path class="st4" d="M-130.8,128.4c-1,0-1.9-0.3-2.5-1c-0.6-0.6-1-1.5-1-2.6s0.3-1.9,0.9-2.5c0.6-0.6,1.3-0.9,2.2-0.9
						s1.6,0.3,2.1,0.8s0.8,1.3,0.8,2.3c0,0.3,0,0.6-0.1,0.8h-4.7c0.1,0.7,0.3,1.2,0.8,1.6c0.4,0.4,1,0.5,1.7,0.5s1.3-0.2,1.8-0.5v1
						C-129.4,128.3-130.1,128.4-130.8,128.4z M-129.5,124.5v-0.3c0-0.6-0.2-1-0.5-1.4c-0.3-0.3-0.7-0.5-1.2-0.5s-1,0.2-1.3,0.6
						s-0.6,0.9-0.6,1.6C-133.1,124.5-129.5,124.5-129.5,124.5z"/>
					<path class="st4" d="M-125.4,128.4l-2.1-6.8h1.1c0.9,3,1.4,5,1.6,5.8c0.1-0.4,0.6-2.4,1.6-5.8h1.1l1.7,5.8
						c0.1-0.5,0.7-2.4,1.7-5.8h1.1l-2.2,6.8h-1.3l-0.6-2.2l-0.9-3.4c-0.1,0.4-0.6,2.3-1.5,5.7h-1.3V128.4z"/>
					<path class="st4" d="M-112.8,130.7c-0.2,0-0.4,0-0.6-0.1v-1c0.1,0,0.3,0.1,0.5,0.1c0.9,0,1.6-0.5,1.9-1.6l-2.8-6.7h1.2l2.1,5.4
						c0.1-0.3,0.7-2,1.9-5.4h1.1l-2.5,6.7c-0.4,0.9-0.8,1.6-1.2,2S-112.1,130.7-112.8,130.7z"/>
					<path class="st4" d="M-100.2,125c0,1-0.3,1.9-0.9,2.5c-0.6,0.7-1.4,1-2.4,1s-1.8-0.3-2.3-1c-0.6-0.7-0.9-1.5-0.9-2.5
						s0.3-1.9,0.9-2.5c0.6-0.7,1.4-1,2.4-1s1.8,0.3,2.3,1C-100.4,123.1-100.2,123.9-100.2,125z M-101.3,125c0-0.7-0.2-1.4-0.5-1.8
						c-0.4-0.5-0.9-0.7-1.6-0.7s-1.2,0.3-1.6,0.8s-0.6,1.1-0.6,1.8c0,0.7,0.2,1.3,0.6,1.8s0.9,0.7,1.6,0.7s1.2-0.2,1.5-0.7
						C-101.5,126.3-101.3,125.7-101.3,125z"/>
					<path class="st4" d="M-94.3,121.5h1.1v6.8h-1.1v-1.2c-0.4,0.8-1.1,1.3-2.1,1.3c-0.7,0-1.2-0.2-1.6-0.6s-0.6-0.9-0.6-1.6v-4.7
						h1.1v4.4c0,0.5,0.1,0.9,0.4,1.1c0.3,0.3,0.6,0.4,1.1,0.4s0.9-0.2,1.3-0.6c0.3-0.4,0.5-0.9,0.5-1.6v-3.7H-94.3z"/>
					<path class="st4" d="M-90.2,121.5v1.2c0.4-0.8,1-1.3,1.9-1.3c0.2,0,0.3,0,0.4,0v1.1c-0.2-0.1-0.4-0.1-0.6-0.1
						c-0.5,0-0.9,0.2-1.2,0.7c-0.3,0.4-0.5,0.9-0.5,1.5v3.7h-1.1v-6.8L-90.2,121.5L-90.2,121.5z"/>
					<path class="st4" d="M-81.6,122.4c-0.4,0-0.6,0.1-0.9,0.2c-0.2,0.2-0.3,0.4-0.3,0.6s0,0.4,0.1,0.5s0.2,0.2,0.4,0.4
						c0.2,0.1,0.6,0.3,1.1,0.5s0.9,0.5,1.2,0.8c0.3,0.3,0.5,0.7,0.5,1.3s-0.2,1-0.6,1.3c-0.4,0.3-1,0.5-1.8,0.5s-1.4-0.1-1.9-0.4v-1
						c0.6,0.4,1.3,0.5,1.9,0.5c0.4,0,0.7-0.1,0.9-0.2s0.3-0.4,0.3-0.7s-0.1-0.5-0.4-0.7c-0.2-0.2-0.6-0.4-1.2-0.6
						c-0.5-0.2-1-0.5-1.3-0.8s-0.5-0.7-0.5-1.2s0.2-1,0.6-1.3s1-0.5,1.7-0.5s1.2,0.1,1.7,0.3v1C-80.3,122.5-80.9,122.4-81.6,122.4z"
						/>
					<path class="st4" d="M-78,128.4v-9.5h1.1v9.5H-78z"/>
					<path class="st4" d="M-71.8,128.4c-1,0-1.9-0.3-2.5-1c-0.6-0.6-1-1.5-1-2.6s0.3-1.9,0.9-2.5s1.3-0.9,2.2-0.9s1.6,0.3,2.1,0.8
						s0.8,1.3,0.8,2.3c0,0.3,0,0.6-0.1,0.8h-4.7c0.1,0.7,0.3,1.2,0.8,1.6c0.4,0.4,1,0.5,1.7,0.5s1.3-0.2,1.8-0.5v1
						C-70.4,128.3-71.1,128.4-71.8,128.4z M-70.5,124.5v-0.3c0-0.6-0.2-1-0.5-1.4c-0.3-0.3-0.7-0.5-1.2-0.5s-1,0.2-1.3,0.6
						s-0.6,0.9-0.6,1.6C-74.1,124.5-70.5,124.5-70.5,124.5z"/>
					<path class="st4" d="M-64.8,128.4c-1,0-1.9-0.3-2.5-1c-0.6-0.6-1-1.5-1-2.6s0.3-1.9,0.9-2.5s1.3-0.9,2.2-0.9s1.6,0.3,2.1,0.8
						s0.8,1.3,0.8,2.3c0,0.3,0,0.6-0.1,0.8h-4.7c0.1,0.7,0.3,1.2,0.8,1.6c0.4,0.4,1,0.5,1.7,0.5c0.7,0,1.3-0.2,1.8-0.5v1
						C-63.4,128.3-64,128.4-64.8,128.4z M-63.5,124.5v-0.3c0-0.6-0.2-1-0.5-1.4c-0.3-0.3-0.7-0.5-1.2-0.5s-1,0.2-1.3,0.6
						s-0.6,0.9-0.6,1.6C-67.1,124.5-63.5,124.5-63.5,124.5z"/>
					<path class="st4" d="M-59.8,121.5v1c0.5-0.8,1.2-1.1,2.1-1.1c0.9,0,1.6,0.3,2.2,1c0.5,0.7,0.8,1.5,0.8,2.5s-0.3,1.9-0.8,2.5
						c-0.5,0.7-1.3,1-2.1,1c-0.9,0-1.6-0.4-2.1-1.1v3.7h-1.1v-9.5H-59.8z M-59.8,124.9c0,0.9,0.2,1.5,0.6,2c0.4,0.4,0.9,0.6,1.4,0.6
						s1-0.2,1.4-0.7s0.6-1.1,0.6-1.9s-0.2-1.4-0.5-1.9c-0.4-0.5-0.8-0.7-1.4-0.7s-1,0.2-1.4,0.6S-59.8,124-59.8,124.9z"/>
					<path class="st4" d="M-53.1,119.9c-0.1-0.1-0.2-0.3-0.2-0.5s0.1-0.4,0.2-0.5c0.1-0.1,0.3-0.2,0.5-0.2s0.4,0.1,0.5,0.2
						s0.2,0.3,0.2,0.5s-0.1,0.4-0.2,0.5c-0.1,0.1-0.3,0.2-0.5,0.2S-52.9,120-53.1,119.9z M-53.1,128.4v-6.8h1.1v6.8H-53.1z"/>
					<path class="st4" d="M-49,121.5v1.2c0.4-0.9,1.1-1.3,2.2-1.3c0.7,0,1.2,0.2,1.6,0.6c0.4,0.4,0.6,0.9,0.6,1.6v4.7h-1.1v-4.4
						c0-0.5-0.1-0.9-0.4-1.2c-0.3-0.3-0.6-0.4-1.1-0.4s-0.9,0.2-1.3,0.6c-0.4,0.4-0.6,0.9-0.6,1.6v3.7H-50v-6.8h1V121.5z"/>
					<path class="st4" d="M-38.3,121.5h1.1v6.3c0,1-0.3,1.8-0.9,2.4c-0.6,0.5-1.3,0.8-2.2,0.8s-1.6-0.1-2.2-0.4v-1.1
						c0.6,0.3,1.2,0.5,1.9,0.5c1.5,0,2.2-0.7,2.2-2.2V127c-0.5,0.8-1.1,1.2-1.9,1.2s-1.5-0.3-2.1-0.9s-0.8-1.4-0.8-2.4
						s0.3-1.9,0.8-2.5c0.5-0.7,1.2-1,2.1-1c0.9,0,1.5,0.4,2,1.2C-38.3,122.6-38.3,121.5-38.3,121.5z M-42,124.9
						c0,0.8,0.2,1.3,0.6,1.7c0.4,0.4,0.8,0.6,1.3,0.6s0.9-0.2,1.3-0.6s0.6-1,0.6-1.8s-0.2-1.4-0.6-1.9s-0.8-0.6-1.4-0.6
						c-0.5,0-1,0.2-1.3,0.7S-42,124.1-42,124.9z"/>
					<path class="st4" d="M-31,121.5v1c0.5-0.8,1.2-1.1,2.1-1.1s1.6,0.3,2.2,1c0.5,0.7,0.8,1.5,0.8,2.5s-0.3,1.9-0.8,2.5
						c-0.5,0.7-1.3,1-2.1,1c-0.9,0-1.6-0.4-2.1-1.1v3.7H-32v-9.5H-31z M-31,124.9c0,0.9,0.2,1.5,0.6,2c0.4,0.4,0.9,0.6,1.4,0.6
						s1-0.2,1.4-0.7s0.6-1.1,0.6-1.9s-0.2-1.4-0.5-1.9c-0.4-0.5-0.8-0.7-1.4-0.7s-1,0.2-1.4,0.6S-31,124-31,124.9z"/>
					<path class="st4" d="M-22.2,121.4c1.7,0,2.6,0.9,2.6,2.6v4.3h-1.1v-0.8c-0.4,0.6-1,0.9-1.9,0.9c-0.6,0-1.2-0.2-1.5-0.6
						c-0.4-0.4-0.6-0.9-0.6-1.5s0.2-1.1,0.7-1.5s1.2-0.5,2-0.5h1.2V124c0-0.5-0.1-0.9-0.4-1.2s-0.7-0.4-1.3-0.4
						c-0.7,0-1.3,0.2-1.8,0.6v-1.1C-23.7,121.6-23,121.4-22.2,121.4z M-20.7,125.2h-1.2c-0.6,0-1,0.1-1.3,0.3s-0.4,0.5-0.4,0.9
						s0.1,0.6,0.3,0.8c0.2,0.2,0.6,0.3,1,0.3s0.8-0.1,1.1-0.4s0.4-0.6,0.4-1v-0.9H-20.7z"/>
					<path class="st4" d="M-16.2,122.4v4c0,0.7,0.3,1.1,1,1.1c0.4,0,0.7-0.1,0.9-0.3v1c-0.3,0.2-0.6,0.2-1,0.2c-1.4,0-2-0.7-2-2.1
						v-4h-1.1v-0.9h1.1v-1.7h1.1v1.7h1.9v0.9h-1.9V122.4z"/>
					<path class="st4" d="M-11.3,122.4v4c0,0.7,0.3,1.1,1,1.1c0.4,0,0.7-0.1,0.9-0.3v1c-0.3,0.2-0.6,0.2-1,0.2c-1.4,0-2-0.7-2-2.1
						v-4h-1.1v-0.9h1.1v-1.7h1.1v1.7h1.9v0.9h-1.9V122.4z"/>
					<path class="st4" d="M-4.7,128.4c-1,0-1.9-0.3-2.5-1c-0.6-0.6-1-1.5-1-2.6s0.3-1.9,0.9-2.5s1.3-0.9,2.2-0.9s1.6,0.3,2.1,0.8
						s0.8,1.3,0.8,2.3c0,0.3,0,0.6-0.1,0.8H-7c0.1,0.7,0.3,1.2,0.8,1.6c0.4,0.4,1,0.5,1.7,0.5s1.3-0.2,1.8-0.5v1
						C-3.3,128.3-3.9,128.4-4.7,128.4z M-3.4,124.5v-0.3c0-0.6-0.2-1-0.5-1.4c-0.3-0.3-0.7-0.5-1.2-0.5s-1,0.2-1.3,0.6
						s-0.6,0.9-0.6,1.6C-7,124.5-3.4,124.5-3.4,124.5z"/>
					<path class="st4" d="M0.3,121.5v1.2c0.4-0.8,1-1.3,1.9-1.3c0.2,0,0.3,0,0.4,0v1.1c-0.2-0.1-0.4-0.1-0.6-0.1
						c-0.5,0-0.9,0.2-1.2,0.7c-0.3,0.4-0.5,0.9-0.5,1.5v3.7h-1.1v-6.8L0.3,121.5L0.3,121.5z"/>
					<path class="st4" d="M4.7,121.5v1.2c0.4-0.9,1.1-1.3,2.2-1.3c0.7,0,1.2,0.2,1.6,0.6c0.4,0.4,0.6,0.9,0.6,1.6v4.7H8v-4.4
						c0-0.5-0.1-0.9-0.4-1.2s-0.6-0.4-1.1-0.4s-0.9,0.2-1.3,0.6s-0.6,0.9-0.6,1.6v3.7H3.7v-6.8h1V121.5z"/>
					<path class="st4" d="M13,122.4c-0.4,0-0.6,0.1-0.9,0.2c-0.2,0.2-0.3,0.4-0.3,0.6s0,0.4,0.1,0.5s0.2,0.2,0.4,0.4
						c0.2,0.1,0.6,0.3,1.1,0.5s0.9,0.5,1.2,0.8s0.5,0.7,0.5,1.3s-0.2,1-0.6,1.3c-0.4,0.3-1,0.5-1.8,0.5s-1.4-0.1-1.9-0.4v-1
						c0.6,0.4,1.3,0.5,1.9,0.5c0.4,0,0.7-0.1,0.9-0.2s0.3-0.4,0.3-0.7s-0.1-0.5-0.4-0.7c-0.2-0.2-0.6-0.4-1.2-0.6
						c-0.5-0.2-1-0.5-1.3-0.8s-0.5-0.7-0.5-1.2s0.2-1,0.6-1.3c0.4-0.3,1-0.5,1.7-0.5s1.2,0.1,1.7,0.3v1
						C14.3,122.5,13.7,122.4,13,122.4z"/>
				</g>
				<g class="st3">
					<path class="st4" d="M-140.1,137.8c-0.2-0.1-0.4-0.1-0.7-0.1s-0.5,0.1-0.6,0.3c-0.2,0.2-0.3,0.5-0.3,0.9v0.6h1.5v0.9h-1.5v6
						h-1.1v-6h-1.2v-0.9h1.2v-0.6c0-0.7,0.2-1.2,0.5-1.6s0.8-0.6,1.5-0.6c0.2,0,0.4,0,0.7,0.1L-140.1,137.8L-140.1,137.8z"/>
					<path class="st4" d="M-137.9,139.5v1.2c0.4-0.8,1-1.3,1.9-1.3c0.2,0,0.3,0,0.4,0v1.1c-0.2-0.1-0.4-0.1-0.6-0.1
						c-0.5,0-0.9,0.2-1.2,0.7c-0.3,0.4-0.5,0.9-0.5,1.5v3.7h-1.1v-6.8L-137.9,139.5L-137.9,139.5z"/>
					<path class="st4" d="M-128.5,143c0,1-0.3,1.9-0.9,2.5c-0.6,0.7-1.4,1-2.4,1s-1.8-0.3-2.3-1c-0.6-0.7-0.9-1.5-0.9-2.5
						s0.3-1.9,0.9-2.5c0.6-0.7,1.4-1,2.4-1s1.8,0.3,2.3,1C-128.8,141.1-128.5,141.9-128.5,143z M-129.6,143c0-0.7-0.2-1.4-0.5-1.8
						c-0.4-0.5-0.9-0.7-1.6-0.7s-1.2,0.3-1.6,0.8c-0.4,0.5-0.6,1.1-0.6,1.8s0.2,1.3,0.6,1.8c0.4,0.5,0.9,0.7,1.6,0.7
						c0.7,0,1.2-0.2,1.5-0.7C-129.8,144.3-129.6,143.7-129.6,143z"/>
					<path class="st4" d="M-125.9,139.5v1.1c0.4-0.8,1-1.2,1.9-1.2c1.1,0,1.7,0.4,2,1.3c0.2-0.4,0.5-0.8,0.8-1
						c0.4-0.2,0.8-0.3,1.2-0.3c0.7,0,1.2,0.2,1.6,0.6c0.4,0.4,0.5,0.9,0.5,1.6v4.7h-1.1v-4.4c0-1-0.4-1.6-1.3-1.6
						c-0.4,0-0.8,0.2-1.2,0.6c-0.3,0.4-0.5,0.9-0.5,1.7v3.7h-1.1v-4.4c0-1-0.4-1.6-1.3-1.6c-0.4,0-0.8,0.2-1.2,0.6
						c-0.3,0.4-0.5,0.9-0.5,1.7v3.7h-1.1v-6.8L-125.9,139.5L-125.9,139.5z"/>
					<path class="st4" d="M-111.1,140.4v4c0,0.7,0.3,1.1,1,1.1c0.4,0,0.7-0.1,0.9-0.3v1c-0.3,0.2-0.6,0.2-1,0.2c-1.4,0-2-0.7-2-2.1
						v-4h-1.1v-0.9h1.1v-1.7h1.1v1.7h1.9v0.9h-1.9V140.4z"/>
					<path class="st4" d="M-106.6,136.8v3.9c0.4-0.9,1.1-1.3,2.2-1.3c0.7,0,1.2,0.2,1.6,0.6c0.4,0.4,0.6,1,0.6,1.6v4.7h-1.1v-4.4
						c0-0.5-0.1-0.9-0.4-1.1c-0.3-0.3-0.6-0.4-1.1-0.4s-0.9,0.2-1.3,0.6c-0.4,0.4-0.6,0.9-0.6,1.7v3.7h-1.1v-9.5h1.2V136.8z"/>
					<path class="st4" d="M-97.3,146.4c-1,0-1.9-0.3-2.5-1c-0.6-0.6-1-1.5-1-2.6s0.3-1.9,0.9-2.5s1.3-0.9,2.2-0.9s1.6,0.3,2.1,0.8
						s0.8,1.3,0.8,2.3c0,0.3,0,0.6-0.1,0.8h-4.7c0.1,0.7,0.3,1.2,0.8,1.6c0.4,0.4,1,0.5,1.7,0.5s1.3-0.2,1.8-0.5v1
						C-95.9,146.3-96.5,146.4-97.3,146.4z M-96,142.5v-0.3c0-0.6-0.2-1-0.5-1.4c-0.3-0.3-0.7-0.5-1.2-0.5s-1,0.2-1.3,0.6
						c-0.4,0.4-0.6,0.9-0.6,1.6L-96,142.5L-96,142.5z"/>
					<path class="st4" d="M-86.9,146.4c-1,0-1.9-0.3-2.5-1c-0.6-0.6-1-1.5-1-2.6s0.3-1.9,0.9-2.5s1.3-0.9,2.2-0.9s1.6,0.3,2.1,0.8
						s0.8,1.3,0.8,2.3c0,0.3,0,0.6-0.1,0.8h-4.7c0.1,0.7,0.3,1.2,0.8,1.6c0.4,0.4,1,0.5,1.7,0.5s1.3-0.2,1.8-0.5v1
						C-85.5,146.3-86.2,146.4-86.9,146.4z M-85.6,142.5v-0.3c0-0.6-0.2-1-0.5-1.4c-0.3-0.3-0.7-0.5-1.2-0.5s-1,0.2-1.3,0.6
						c-0.4,0.4-0.6,0.9-0.6,1.6L-85.6,142.5L-85.6,142.5z"/>
					<path class="st4" d="M-81.2,146.4l-2.4-6.8h1.1l1.9,6c0.1-0.4,0.4-1.4,1-3.1l1-2.9h1.1l-2.4,6.8H-81.2z"/>
					<path class="st4" d="M-73.1,146.4c-1,0-1.9-0.3-2.5-1c-0.6-0.6-1-1.5-1-2.6s0.3-1.9,0.9-2.5s1.3-0.9,2.2-0.9s1.6,0.3,2.1,0.8
						s0.8,1.3,0.8,2.3c0,0.3,0,0.6-0.1,0.8h-4.7c0.1,0.7,0.3,1.2,0.8,1.6c0.4,0.4,1,0.5,1.7,0.5s1.3-0.2,1.8-0.5v1
						C-71.7,146.3-72.3,146.4-73.1,146.4z M-71.8,142.5v-0.3c0-0.6-0.2-1-0.5-1.4c-0.3-0.3-0.7-0.5-1.2-0.5s-1,0.2-1.3,0.6
						c-0.4,0.4-0.6,0.9-0.6,1.6L-71.8,142.5L-71.8,142.5z"/>
					<path class="st4" d="M-68,139.5v1.2c0.4-0.9,1.1-1.3,2.2-1.3c0.7,0,1.2,0.2,1.6,0.6c0.4,0.4,0.6,0.9,0.6,1.6v4.7h-1.1v-4.4
						c0-0.5-0.1-0.9-0.4-1.2s-0.6-0.4-1.1-0.4s-0.9,0.2-1.3,0.6c-0.4,0.4-0.6,0.9-0.6,1.6v3.7h-1.1v-6.8L-68,139.5L-68,139.5z"/>
					<path class="st4" d="M-61.7,137.9c-0.1-0.1-0.2-0.3-0.2-0.5s0.1-0.4,0.2-0.5c0.1-0.1,0.3-0.2,0.5-0.2s0.4,0.1,0.5,0.2
						c0.1,0.1,0.2,0.3,0.2,0.5s-0.1,0.4-0.2,0.5c-0.1,0.1-0.3,0.2-0.5,0.2S-61.6,138-61.7,137.9z M-61.7,146.4v-6.8h1.1v6.8H-61.7z"
						/>
					<path class="st4" d="M-57.6,139.5v1.2c0.4-0.9,1.1-1.3,2.2-1.3c0.7,0,1.2,0.2,1.6,0.6c0.4,0.4,0.6,0.9,0.6,1.6v4.7h-1.1v-4.4
						c0-0.5-0.1-0.9-0.4-1.2c-0.3-0.3-0.6-0.4-1.1-0.4s-0.9,0.2-1.3,0.6c-0.4,0.4-0.6,0.9-0.6,1.6v3.7h-1.1v-6.8L-57.6,139.5
						L-57.6,139.5z"/>
					<path class="st4" d="M-46.9,139.5h1.1v6.3c0,1-0.3,1.8-0.9,2.4c-0.6,0.5-1.3,0.8-2.2,0.8s-1.6-0.1-2.2-0.4v-1.1
						c0.6,0.3,1.2,0.5,1.9,0.5c1.5,0,2.2-0.7,2.2-2.2V145c-0.5,0.8-1.1,1.2-1.9,1.2c-0.8,0-1.5-0.3-2.1-0.9
						c-0.6-0.6-0.8-1.4-0.8-2.4s0.3-1.9,0.8-2.5c0.5-0.7,1.2-1,2.1-1c0.9,0,1.5,0.4,2,1.2C-46.9,140.6-46.9,139.5-46.9,139.5z
						 M-50.6,142.9c0,0.8,0.2,1.3,0.6,1.7c0.4,0.4,0.8,0.6,1.3,0.6s0.9-0.2,1.3-0.6c0.4-0.4,0.6-1,0.6-1.8s-0.2-1.4-0.6-1.9
						c-0.4-0.4-0.8-0.6-1.4-0.6c-0.5,0-1,0.2-1.3,0.7C-50.5,141.5-50.6,142.1-50.6,142.9z"/>
					<path class="st4" d="M-39.6,139.5v1c0.5-0.8,1.2-1.1,2.1-1.1s1.6,0.3,2.2,1c0.5,0.7,0.8,1.5,0.8,2.5s-0.3,1.9-0.8,2.5
						c-0.5,0.7-1.3,1-2.1,1c-0.9,0-1.6-0.4-2.1-1.1v3.7h-1.1v-9.5L-39.6,139.5L-39.6,139.5z M-39.6,142.9c0,0.9,0.2,1.5,0.6,2
						c0.4,0.4,0.9,0.6,1.4,0.6s1-0.2,1.4-0.7s0.6-1.1,0.6-1.9s-0.2-1.4-0.5-1.9s-0.8-0.7-1.4-0.7s-1,0.2-1.4,0.6
						S-39.6,142-39.6,142.9z"/>
					<path class="st4" d="M-31.9,139.5v1.2c0.4-0.8,1-1.3,1.9-1.3c0.2,0,0.3,0,0.4,0v1.1c-0.2-0.1-0.4-0.1-0.6-0.1
						c-0.5,0-0.9,0.2-1.2,0.7c-0.3,0.4-0.5,0.9-0.5,1.5v3.7H-33v-6.8L-31.9,139.5L-31.9,139.5z"/>
					<path class="st4" d="M-28.5,137.9c-0.1-0.1-0.2-0.3-0.2-0.5s0.1-0.4,0.2-0.5s0.3-0.2,0.5-0.2s0.4,0.1,0.5,0.2
						c0.1,0.1,0.2,0.3,0.2,0.5s-0.1,0.4-0.2,0.5s-0.3,0.2-0.5,0.2S-28.4,138-28.5,137.9z M-28.5,146.4v-6.8h1.1v6.8H-28.5z"/>
					<path class="st4" d="M-19.4,143c0,1-0.3,1.9-0.9,2.5c-0.6,0.7-1.4,1-2.4,1s-1.8-0.3-2.3-1c-0.6-0.7-0.9-1.5-0.9-2.5
						s0.3-1.9,0.9-2.5c0.6-0.7,1.4-1,2.4-1s1.8,0.3,2.3,1C-19.7,141.1-19.4,141.9-19.4,143z M-20.5,143c0-0.7-0.2-1.4-0.5-1.8
						c-0.4-0.5-0.9-0.7-1.6-0.7s-1.2,0.3-1.6,0.8s-0.6,1.1-0.6,1.8s0.2,1.3,0.6,1.8s0.9,0.7,1.6,0.7s1.2-0.2,1.5-0.7
						C-20.7,144.3-20.5,143.7-20.5,143z"/>
					<path class="st4" d="M-16.8,139.5v1.2c0.4-0.8,1-1.3,1.9-1.3c0.2,0,0.3,0,0.4,0v1.1c-0.2-0.1-0.4-0.1-0.6-0.1
						c-0.5,0-0.9,0.2-1.2,0.7c-0.3,0.4-0.5,0.9-0.5,1.5v3.7h-1.1v-6.8L-16.8,139.5L-16.8,139.5z"/>
					<path class="st4" d="M-13.9,146.2c-0.2-0.2-0.2-0.3-0.2-0.6s0.1-0.4,0.2-0.6c0.2-0.2,0.3-0.2,0.6-0.2c0.2,0,0.4,0.1,0.6,0.2
						c0.2,0.2,0.2,0.3,0.2,0.6s-0.1,0.4-0.2,0.6c-0.2,0.2-0.3,0.2-0.6,0.2C-13.6,146.5-13.7,146.4-13.9,146.2z"/>
				</g>
			</g>
		</g>
	</g>
	<g id="mid-morning">
		<line id="mid-morning-bar" class="st6" x1="106.9" y1="174" x2="106.9" y2="318"/>
		<polygon id="mid-morning-arrow" class="st7" points="106.9,281.4 106.9,210.6 142.2,246 		"/>
		<g id="mid-morning-time">
			<g class="st3">
				<path class="st4" d="M-31.7,242.9h4.5v11.2h-2.4V245h-2.1V242.9z"/>
				<path class="st4" d="M-20.2,254.2c-1.5,0-2.7-0.5-3.5-1.6c-0.8-1-1.2-2.5-1.2-4.2c0-1.8,0.4-3.2,1.2-4.2c0.8-1,1.9-1.6,3.5-1.6
					c1.5,0,2.7,0.5,3.5,1.6c0.8,1.1,1.2,2.5,1.2,4.2c0,1.8-0.4,3.2-1.2,4.2C-17.5,253.7-18.6,254.2-20.2,254.2z M-21.8,245.7
					c-0.4,0.7-0.5,1.6-0.5,2.7c0,1.1,0.2,2,0.5,2.7s0.9,1,1.6,1s1.3-0.3,1.6-1s0.5-1.6,0.5-2.7c0-1.1-0.2-2-0.5-2.7s-0.9-1-1.6-1
					S-21.5,245.1-21.8,245.7z"/>
				<path class="st4" d="M-13.2,249.6c-0.3-0.3-0.4-0.6-0.4-1s0.1-0.7,0.4-1c0.3-0.3,0.6-0.4,1-0.4s0.7,0.1,1,0.4
					c0.3,0.3,0.4,0.6,0.4,1s-0.1,0.7-0.4,1c-0.3,0.3-0.6,0.4-1,0.4S-12.9,249.9-13.2,249.6z M-13.2,253.8c-0.3-0.3-0.4-0.6-0.4-1
					s0.1-0.7,0.4-1c0.3-0.3,0.6-0.4,1-0.4s0.7,0.1,1,0.4c0.3,0.3,0.4,0.6,0.4,1s-0.1,0.7-0.4,1c-0.3,0.3-0.6,0.4-1,0.4
					S-12.9,254.1-13.2,253.8z"/>
				<path class="st4" d="M-9.2,242.9h4.5v11.2h-2.4V245h-2.1V242.9z"/>
				<path class="st4" d="M4.8,242.9v2.2H0.4v1.9c0.3-0.1,0.7-0.1,1.1-0.1c1.1,0,2,0.3,2.8,1s1.2,1.5,1.2,2.6s-0.4,2-1.2,2.7
					s-1.8,1.1-3,1.1c-1.5,0-2.8-0.6-3.8-1.7l1.3-1.8c0.1,0.1,0.2,0.2,0.4,0.4c0.2,0.1,0.5,0.3,0.9,0.6S1,252,1.4,252
					s0.8-0.1,1.1-0.4S3,251,3,250.5s-0.2-0.9-0.5-1.2c-0.4-0.3-0.8-0.4-1.4-0.4s-1.2,0.2-2,0.6l-1-1.1v-5.5L4.8,242.9L4.8,242.9z"/>
				<path class="st4" d="M19.8,254.1l-1-2.4h-4.7l-1,2.4h-2.7l4.8-11.2h2.4l4.8,11.2H19.8z M16.5,246.2l-1.4,3.2h2.8L16.5,246.2z"/>
				<path class="st4" d="M23.7,253.8c-0.3-0.3-0.4-0.6-0.4-1s0.1-0.7,0.4-1s0.6-0.4,1-0.4s0.7,0.1,1,0.4c0.3,0.3,0.4,0.6,0.4,1
					s-0.1,0.7-0.4,1s-0.6,0.4-1,0.4C24.3,254.2,24,254.1,23.7,253.8z"/>
				<path class="st4" d="M38.4,247.1l-3,6.1h-1.5l-3-6.1v7h-2.5v-11.2h3.4l2.9,6.1l2.9-6.1H41v11.2h-2.5v-7H38.4z"/>
				<path class="st4" d="M43.6,253.8c-0.3-0.3-0.4-0.6-0.4-1s0.1-0.7,0.4-1c0.3-0.3,0.6-0.4,1-0.4s0.7,0.1,1,0.4
					c0.3,0.3,0.4,0.6,0.4,1s-0.1,0.7-0.4,1c-0.3,0.3-0.6,0.4-1,0.4C44.2,254.2,43.9,254.1,43.6,253.8z"/>
			</g>
		</g>
		<g id="mid-morning-badge">
			<rect id="mid-morning-square" x="172.9" y="174" class="st7" width="227.5" height="144"/>
			<g id="mid-morning-title">
				<g class="st3">
					<path class="st4" d="M235.9,196.9l-3,6.1h-1.5l-3-6.1v7h-2.5v-11.2h3.4l2.9,6.1l2.9-6.1h3.4v11.2H236L235.9,196.9L235.9,196.9z
						"/>
					<path class="st4" d="M241.2,192.7h2.5v11.2h-2.5V192.7z"/>
					<path class="st4" d="M255,194.2c1.1,1,1.6,2.3,1.6,4.1c0,1.7-0.5,3.1-1.6,4.1c-1,1-2.6,1.5-4.8,1.5h-3.8v-11.2h4
						C252.4,192.7,253.9,193.2,255,194.2z M253.1,200.8c0.6-0.6,0.9-1.4,0.9-2.5s-0.3-1.9-0.9-2.5s-1.6-0.9-2.8-0.9h-1.4v6.8h1.6
						C251.7,201.7,252.5,201.4,253.1,200.8z"/>
					<path class="st4" d="M258.4,200.2V198h5.7v2.1L258.4,200.2L258.4,200.2z"/>
					<path class="st4" d="M276.6,196.9l-3,6.1h-1.5l-3-6.1v7h-2.5v-11.2h3.4l2.9,6.1l2.9-6.1h3.4v11.2h-2.5L276.6,196.9L276.6,196.9
						z"/>
					<path class="st4" d="M291.2,202.4c-1.1,1.1-2.5,1.7-4.2,1.7s-3-0.6-4.2-1.7c-1.1-1.1-1.7-2.5-1.7-4.1s0.6-3,1.7-4.1
						s2.5-1.7,4.2-1.7s3,0.6,4.2,1.7c1.1,1.1,1.7,2.5,1.7,4.1S292.4,201.3,291.2,202.4z M290.4,198.2c0-1-0.3-1.8-1-2.6
						c-0.6-0.7-1.4-1.1-2.4-1.1s-1.7,0.4-2.4,1.1c-0.6,0.7-1,1.6-1,2.6s0.3,1.8,1,2.5c0.6,0.7,1.4,1,2.4,1s1.7-0.3,2.4-1
						C290.1,200.1,290.4,199.2,290.4,198.2z"/>
					<path class="st4" d="M304.1,196.4c0,1.8-0.7,2.9-2.1,3.5l2.8,4h-3.1l-2.5-3.6h-1.7v3.6H295v-11.2h4.2c1.7,0,3,0.3,3.7,0.9
						S304.1,195.1,304.1,196.4z M301.1,197.8c0.3-0.3,0.5-0.7,0.5-1.3s-0.2-1-0.5-1.2s-0.9-0.3-1.7-0.3h-1.9v3.3h1.8
						C300.2,198.2,300.8,198,301.1,197.8z"/>
					<path class="st4" d="M314.5,192.7h2.5v11.2h-2.5l-5.3-7v7h-2.5v-11.2h2.3l5.5,7.2V192.7z"/>
					<path class="st4" d="M319.8,192.7h2.5v11.2h-2.5V192.7z"/>
					<path class="st4" d="M332.8,192.7h2.5v11.2h-2.5l-5.3-7v7H325v-11.2h2.3l5.5,7.2V192.7z"/>
					<path class="st4" d="M345.3,198.2h2.5v4c-1.1,1.2-2.6,1.9-4.6,1.9c-1.6,0-3-0.5-4.1-1.6s-1.7-2.5-1.7-4.1c0-1.7,0.6-3,1.7-4.2
						c1.1-1.1,2.5-1.7,4.1-1.7s3,0.5,4.2,1.6l-1.3,1.9c-0.5-0.4-1-0.7-1.4-0.9s-0.9-0.2-1.4-0.2c-0.9,0-1.7,0.3-2.4,1
						c-0.7,0.6-1,1.5-1,2.6s0.3,1.9,0.9,2.5s1.4,1,2.2,1c0.9,0,1.6-0.2,2.2-0.5L345.3,198.2L345.3,198.2z"/>
				</g>
			</g>
			<g id="mid-morning-details">
				<path id="mid-morning-icon" class="st4" d="M308.6,252.6c0,2.6-1.8,4.7-4.1,4.7h-35.7c-2.3,0-4.1-2.1-4.1-4.7v-26.7h5.5v-3.1
					h38.5L308.6,252.6L308.6,252.6z M270.1,229h-2.7v23.6c0,0.9,0.6,1.6,1.4,1.6s1.4-0.7,1.4-1.6L270.1,229L270.1,229z M305.9,225.9
					h-33v26.7c0,0.5-0.1,1.1-0.2,1.6h31.9c0.8,0,1.4-0.7,1.4-1.6L305.9,225.9L305.9,225.9z M289.4,244.7h-13.7V229h13.7V244.7z
					 M289.4,251h-13.7v-3.1h13.7V251z M278.4,232.1v9.4h8.2v-9.4H278.4z M303.1,232.1h-11V229h11V232.1z M303.1,238.4h-11v-3.1h11
					V238.4z M303.1,244.7h-11v-3.1h11V244.7z M303.1,251h-11v-3.1h11V251z"/>
				<rect id="XMLID_23_" x="216.2" y="274.6" class="st5" width="140.9" height="33.9"/>
				<g class="st3">
					<path class="st4" d="M215.5,276c-1,0-1.8,0.3-2.5,1s-1,1.5-1,2.6s0.3,2,1,2.6c0.6,0.7,1.5,1,2.6,1c0.9,0,1.6-0.2,2.2-0.7v1.1
						c-0.6,0.4-1.3,0.6-2.3,0.6c-1.4,0-2.5-0.4-3.3-1.3s-1.3-2-1.3-3.4s0.4-2.5,1.3-3.4c0.9-0.9,2-1.3,3.3-1.3
						c0.9,0,1.7,0.2,2.3,0.5v1.1c-0.4-0.2-0.8-0.4-1.1-0.4C216.4,276,216,276,215.5,276z"/>
					<path class="st4" d="M220.4,274.6v3.9c0.4-0.9,1.1-1.3,2.2-1.3c0.7,0,1.2,0.2,1.6,0.6c0.4,0.4,0.6,1,0.6,1.6v4.7h-1.1v-4.4
						c0-0.5-0.1-0.9-0.4-1.1c-0.3-0.3-0.6-0.4-1.1-0.4s-0.9,0.2-1.3,0.6c-0.4,0.4-0.6,0.9-0.6,1.7v3.7h-1.1v-9.5h1.2V274.6z"/>
					<path class="st4" d="M229.7,284.2c-1,0-1.9-0.3-2.5-1c-0.6-0.6-1-1.5-1-2.6s0.3-1.9,0.9-2.5c0.6-0.6,1.3-0.9,2.2-0.9
						s1.6,0.3,2.1,0.8s0.8,1.3,0.8,2.3c0,0.3,0,0.6-0.1,0.8h-4.7c0.1,0.7,0.3,1.2,0.8,1.6c0.4,0.4,1,0.5,1.7,0.5s1.3-0.2,1.8-0.5v1
						C231.1,284.1,230.5,284.2,229.7,284.2z M231,280.3V280c0-0.6-0.2-1-0.5-1.4c-0.3-0.3-0.7-0.5-1.2-0.5s-1,0.2-1.3,0.6
						s-0.6,0.9-0.6,1.6L231,280.3L231,280.3z"/>
					<path class="st4" d="M236.9,283.3c0.5,0,1-0.1,1.5-0.4v1c-0.4,0.3-1,0.4-1.6,0.4c-1.1,0-1.9-0.3-2.6-1s-1-1.5-1-2.5
						s0.3-1.8,1-2.5s1.5-1.1,2.6-1.1c0.6,0,1.1,0.1,1.6,0.4v1c-0.4-0.3-0.9-0.4-1.5-0.4c-0.8,0-1.4,0.2-1.9,0.7s-0.7,1.1-0.7,1.9
						c0,0.7,0.2,1.4,0.7,1.8C235.5,283.1,236.1,283.3,236.9,283.3z"/>
					<path class="st4" d="M240,284.2v-9.5h1.1v9.5H240z M242.5,280.6l2.8,3.6H244l-2.8-3.6l2.7-3.3h1.3L242.5,280.6z"/>
					<path class="st4" d="M249.9,286.5c-0.2,0-0.4,0-0.6-0.1v-1c0.1,0,0.3,0.1,0.5,0.1c0.9,0,1.6-0.5,1.9-1.6l-2.8-6.7h1.2l2.1,5.4
						c0.1-0.3,0.7-2,1.9-5.4h1.1l-2.5,6.7c-0.4,0.9-0.8,1.6-1.2,2S250.5,286.5,249.9,286.5z"/>
					<path class="st4" d="M262.5,280.7c0,1-0.3,1.9-0.9,2.5c-0.6,0.7-1.4,1-2.4,1s-1.8-0.3-2.3-1c-0.6-0.7-0.9-1.5-0.9-2.5
						s0.3-1.9,0.9-2.5s1.4-1,2.4-1s1.8,0.3,2.3,1C262.2,278.9,262.5,279.7,262.5,280.7z M261.4,280.7c0-0.7-0.2-1.4-0.5-1.8
						c-0.4-0.5-0.9-0.7-1.6-0.7s-1.2,0.3-1.6,0.8s-0.6,1.1-0.6,1.8c0,0.7,0.2,1.3,0.6,1.8s0.9,0.7,1.6,0.7s1.2-0.2,1.5-0.7
						C261.2,282.1,261.4,281.5,261.4,280.7z"/>
					<path class="st4" d="M268.3,277.3h1.1v6.8h-1.1V283c-0.4,0.8-1.1,1.3-2.1,1.3c-0.7,0-1.2-0.2-1.6-0.6s-0.6-0.9-0.6-1.6v-4.7
						h1.1v4.4c0,0.5,0.1,0.9,0.4,1.1c0.3,0.3,0.6,0.4,1.1,0.4s0.9-0.2,1.3-0.6c0.3-0.4,0.5-0.9,0.5-1.6L268.3,277.3L268.3,277.3z"/>
					<path class="st4" d="M272.4,277.3v1.2c0.4-0.8,1-1.3,1.9-1.3c0.2,0,0.3,0,0.4,0v1.1c-0.2-0.1-0.4-0.1-0.6-0.1
						c-0.5,0-0.9,0.2-1.2,0.7c-0.3,0.4-0.5,0.9-0.5,1.5v3.7h-1.1v-6.8L272.4,277.3L272.4,277.3z"/>
					<path class="st4" d="M280.8,284.2l-2.4-6.8h1.1l1.9,6c0.1-0.4,0.4-1.4,1-3.1l1-2.9h1.1l-2.4,6.8H280.8z"/>
					<path class="st4" d="M286,275.7c-0.1-0.1-0.2-0.3-0.2-0.5s0.1-0.4,0.2-0.5s0.3-0.2,0.5-0.2s0.4,0.1,0.5,0.2s0.2,0.3,0.2,0.5
						s-0.1,0.4-0.2,0.5s-0.3,0.2-0.5,0.2C286.3,275.8,286.1,275.8,286,275.7z M285.9,284.2v-6.8h1.1v6.8H285.9z"/>
					<path class="st4" d="M290.5,278.2v4c0,0.7,0.3,1.1,1,1.1c0.4,0,0.7-0.1,0.9-0.3v1c-0.3,0.2-0.6,0.2-1,0.2c-1.4,0-2-0.7-2-2.1
						v-4h-1.1v-0.9h1.1v-1.7h1.1v1.7h1.9v0.9L290.5,278.2L290.5,278.2z"/>
					<path class="st4" d="M296.2,277.2c1.7,0,2.6,0.9,2.6,2.6v4.3h-1.1v-0.8c-0.4,0.6-1,0.9-1.9,0.9c-0.6,0-1.2-0.2-1.5-0.6
						c-0.4-0.4-0.6-0.9-0.6-1.5s0.2-1.1,0.7-1.5s1.2-0.5,2-0.5h1.2v-0.4c0-0.5-0.1-0.9-0.4-1.2s-0.7-0.4-1.3-0.4
						c-0.7,0-1.3,0.2-1.8,0.6v-1.1C294.7,277.4,295.3,277.2,296.2,277.2z M297.7,281h-1.2c-0.6,0-1,0.1-1.3,0.3s-0.4,0.5-0.4,0.9
						s0.1,0.6,0.3,0.8c0.2,0.2,0.6,0.3,1,0.3s0.8-0.1,1.1-0.4s0.4-0.6,0.4-1V281H297.7z"/>
					<path class="st4" d="M300.7,284.2v-9.5h1.1v9.5H300.7z"/>
					<path class="st4" d="M305.8,278.2c-0.4,0-0.6,0.1-0.9,0.2c-0.2,0.2-0.3,0.4-0.3,0.6s0,0.4,0.1,0.5s0.2,0.2,0.4,0.4
						c0.2,0.1,0.6,0.3,1.1,0.5s0.9,0.5,1.2,0.8c0.3,0.3,0.5,0.7,0.5,1.3s-0.2,1-0.6,1.3s-1,0.5-1.8,0.5s-1.4-0.1-1.9-0.4v-1
						c0.6,0.4,1.3,0.5,1.9,0.5c0.4,0,0.7-0.1,0.9-0.2s0.3-0.4,0.3-0.7s-0.1-0.5-0.4-0.7c-0.2-0.2-0.6-0.4-1.2-0.6
						c-0.5-0.2-1-0.5-1.3-0.8s-0.5-0.7-0.5-1.2s0.2-1,0.6-1.3s1-0.5,1.7-0.5s1.2,0.1,1.7,0.3v1C307.1,278.3,306.5,278.2,305.8,278.2
						z"/>
					<path class="st4" d="M315.9,275.6c-0.2-0.1-0.4-0.1-0.7-0.1s-0.5,0.1-0.6,0.3c-0.2,0.2-0.3,0.5-0.3,0.9v0.6h1.5v0.9h-1.5v6
						h-1.1v-6H312v-0.9h1.2v-0.6c0-0.7,0.2-1.2,0.5-1.6s0.8-0.6,1.5-0.6c0.2,0,0.4,0,0.7,0.1V275.6z"/>
					<path class="st4" d="M318.1,277.3v1.2c0.4-0.8,1-1.3,1.9-1.3c0.2,0,0.3,0,0.4,0v1.1c-0.2-0.1-0.4-0.1-0.6-0.1
						c-0.5,0-0.9,0.2-1.2,0.7c-0.3,0.4-0.5,0.9-0.5,1.5v3.7H317v-6.8L318.1,277.3L318.1,277.3z"/>
					<path class="st4" d="M327.5,280.7c0,1-0.3,1.9-0.9,2.5c-0.6,0.7-1.4,1-2.4,1s-1.8-0.3-2.3-1c-0.6-0.7-0.9-1.5-0.9-2.5
						s0.3-1.9,0.9-2.5s1.4-1,2.4-1s1.8,0.3,2.3,1C327.2,278.9,327.5,279.7,327.5,280.7z M326.4,280.7c0-0.7-0.2-1.4-0.5-1.8
						c-0.4-0.5-0.9-0.7-1.6-0.7s-1.2,0.3-1.6,0.8s-0.6,1.1-0.6,1.8c0,0.7,0.2,1.3,0.6,1.8s0.9,0.7,1.6,0.7s1.2-0.2,1.5-0.7
						C326.2,282.1,326.4,281.5,326.4,280.7z"/>
					<path class="st4" d="M330.1,277.3v1.1c0.4-0.8,1-1.2,1.9-1.2c1.1,0,1.7,0.4,2,1.3c0.2-0.4,0.5-0.8,0.8-1
						c0.4-0.2,0.8-0.3,1.2-0.3c0.7,0,1.2,0.2,1.6,0.6s0.5,0.9,0.5,1.6v4.7H337v-4.4c0-1-0.4-1.6-1.3-1.6c-0.4,0-0.8,0.2-1.2,0.6
						s-0.5,0.9-0.5,1.7v3.7h-1.1v-4.4c0-1-0.4-1.6-1.3-1.6c-0.4,0-0.8,0.2-1.2,0.6s-0.5,0.9-0.5,1.7v3.7h-1.1v-6.8L330.1,277.3
						L330.1,277.3z"/>
					<path class="st4" d="M344.9,278.2v4c0,0.7,0.3,1.1,1,1.1c0.4,0,0.7-0.1,0.9-0.3v1c-0.3,0.2-0.6,0.2-1,0.2c-1.3,0-2-0.7-2-2.1
						v-4h-1.1v-0.9h1.1v-1.7h1.1v1.7h1.9v0.9L344.9,278.2L344.9,278.2z"/>
					<path class="st4" d="M349.4,274.6v3.9c0.4-0.9,1.1-1.3,2.2-1.3c0.7,0,1.2,0.2,1.6,0.6s0.6,1,0.6,1.6v4.7h-1.1v-4.4
						c0-0.5-0.1-0.9-0.4-1.1c-0.3-0.3-0.6-0.4-1.1-0.4s-0.9,0.2-1.3,0.6s-0.6,0.9-0.6,1.7v3.7h-1.1v-9.5h1.2V274.6z"/>
					<path class="st4" d="M358.7,284.2c-1,0-1.9-0.3-2.5-1c-0.6-0.6-1-1.5-1-2.6s0.3-1.9,0.9-2.5s1.3-0.9,2.2-0.9s1.6,0.3,2.1,0.8
						s0.8,1.3,0.8,2.3c0,0.3,0,0.6-0.1,0.8h-4.7c0.1,0.7,0.3,1.2,0.8,1.6c0.4,0.4,1,0.5,1.7,0.5s1.3-0.2,1.8-0.5v1
						C360.1,284.1,359.5,284.2,358.7,284.2z M360,280.3V280c0-0.6-0.2-1-0.5-1.4c-0.3-0.3-0.7-0.5-1.2-0.5s-1,0.2-1.3,0.6
						c-0.4,0.4-0.6,0.9-0.6,1.6L360,280.3L360,280.3z"/>
				</g>
				<g class="st3">
					<path class="st4" d="M210.2,295.3v1.1c0.4-0.8,1-1.2,1.9-1.2c1.1,0,1.7,0.4,2,1.3c0.2-0.4,0.5-0.8,0.8-1s0.8-0.3,1.2-0.3
						c0.7,0,1.2,0.2,1.6,0.6c0.4,0.4,0.5,0.9,0.5,1.6v4.7h-1.1v-4.4c0-1-0.4-1.6-1.3-1.6c-0.4,0-0.8,0.2-1.2,0.6
						c-0.3,0.4-0.5,0.9-0.5,1.7v3.7H213v-4.4c0-1-0.4-1.6-1.3-1.6c-0.4,0-0.8,0.2-1.2,0.6c-0.3,0.4-0.5,0.9-0.5,1.7v3.7h-1.1v-6.8
						L210.2,295.3L210.2,295.3z"/>
					<path class="st4" d="M226.2,298.7c0,1-0.3,1.9-0.9,2.5c-0.6,0.7-1.4,1-2.4,1s-1.8-0.3-2.3-1c-0.6-0.7-0.9-1.5-0.9-2.5
						s0.3-1.9,0.9-2.5c0.6-0.7,1.4-1,2.4-1s1.8,0.3,2.3,1C225.9,296.9,226.2,297.7,226.2,298.7z M225.1,298.7c0-0.7-0.2-1.4-0.5-1.8
						c-0.4-0.5-0.9-0.7-1.6-0.7c-0.7,0-1.2,0.3-1.6,0.8c-0.4,0.5-0.6,1.1-0.6,1.8c0,0.7,0.2,1.3,0.6,1.8c0.4,0.5,0.9,0.7,1.6,0.7
						s1.2-0.2,1.5-0.7C224.9,300.1,225.1,299.5,225.1,298.7z"/>
					<path class="st4" d="M228.8,295.3v1.2c0.4-0.8,1-1.3,1.9-1.3c0.2,0,0.3,0,0.4,0v1.1c-0.2-0.1-0.4-0.1-0.6-0.1
						c-0.5,0-0.9,0.2-1.2,0.7c-0.3,0.4-0.5,0.9-0.5,1.5v3.7h-1.1v-6.8L228.8,295.3L228.8,295.3z"/>
					<path class="st4" d="M233.2,295.3v1.2c0.4-0.9,1.1-1.3,2.2-1.3c0.7,0,1.2,0.2,1.6,0.6c0.4,0.4,0.6,0.9,0.6,1.6v4.7h-1.1v-4.4
						c0-0.5-0.1-0.9-0.4-1.2s-0.6-0.4-1.1-0.4s-0.9,0.2-1.3,0.6c-0.4,0.4-0.6,0.9-0.6,1.6v3.7H232v-6.8L233.2,295.3L233.2,295.3z"/>
					<path class="st4" d="M239.5,293.7c-0.1-0.1-0.2-0.3-0.2-0.5s0.1-0.4,0.2-0.5c0.1-0.1,0.3-0.2,0.5-0.2s0.4,0.1,0.5,0.2
						s0.2,0.3,0.2,0.5s-0.1,0.4-0.2,0.5c-0.1,0.1-0.3,0.2-0.5,0.2C239.8,293.8,239.7,293.8,239.5,293.7z M239.5,302.2v-6.8h1.1v6.8
						H239.5z"/>
					<path class="st4" d="M243.6,295.3v1.2c0.4-0.9,1.1-1.3,2.2-1.3c0.7,0,1.2,0.2,1.6,0.6c0.4,0.4,0.6,0.9,0.6,1.6v4.7h-1.1v-4.4
						c0-0.5-0.1-0.9-0.4-1.2c-0.3-0.3-0.6-0.4-1.1-0.4s-0.9,0.2-1.3,0.6c-0.4,0.4-0.6,0.9-0.6,1.6v3.7h-1.1v-6.8L243.6,295.3
						L243.6,295.3z"/>
					<path class="st4" d="M254.3,295.3h1.1v6.3c0,1-0.3,1.8-0.9,2.4c-0.6,0.5-1.3,0.8-2.2,0.8s-1.6-0.1-2.2-0.4v-1.1
						c0.6,0.3,1.2,0.5,1.9,0.5c1.5,0,2.2-0.7,2.2-2.2v-0.8c-0.5,0.8-1.1,1.2-1.9,1.2s-1.5-0.3-2.1-0.9s-0.8-1.4-0.8-2.4
						s0.3-1.9,0.8-2.5c0.5-0.7,1.2-1,2.1-1c0.9,0,1.5,0.4,2,1.2L254.3,295.3L254.3,295.3z M250.6,298.7c0,0.8,0.2,1.3,0.6,1.7
						c0.4,0.4,0.8,0.6,1.3,0.6s0.9-0.2,1.3-0.6s0.6-1,0.6-1.8s-0.2-1.4-0.6-1.9s-0.8-0.6-1.4-0.6c-0.5,0-1,0.2-1.3,0.7
						S250.6,297.9,250.6,298.7z"/>
					<path class="st4" d="M266.6,298.7c0,1-0.3,1.9-0.9,2.5c-0.6,0.7-1.4,1-2.4,1s-1.8-0.3-2.3-1c-0.6-0.7-0.9-1.5-0.9-2.5
						s0.3-1.9,0.9-2.5c0.6-0.7,1.4-1,2.4-1s1.8,0.3,2.3,1C266.3,296.9,266.6,297.7,266.6,298.7z M265.5,298.7c0-0.7-0.2-1.4-0.5-1.8
						c-0.4-0.5-0.9-0.7-1.6-0.7s-1.2,0.3-1.6,0.8s-0.6,1.1-0.6,1.8c0,0.7,0.2,1.3,0.6,1.8s0.9,0.7,1.6,0.7s1.2-0.2,1.5-0.7
						C265.3,300.1,265.5,299.5,265.5,298.7z"/>
					<path class="st4" d="M269.9,302.2l-2.4-6.8h1.1l1.9,6c0.1-0.4,0.4-1.4,1-3.1l1-2.9h1.1l-2.4,6.8H269.9z"/>
					<path class="st4" d="M278,302.2c-1,0-1.9-0.3-2.5-1c-0.6-0.6-1-1.5-1-2.6s0.3-1.9,0.9-2.5s1.3-0.9,2.2-0.9s1.6,0.3,2.1,0.8
						s0.8,1.3,0.8,2.3c0,0.3,0,0.6-0.1,0.8h-4.7c0.1,0.7,0.3,1.2,0.8,1.6c0.4,0.4,1,0.5,1.7,0.5s1.3-0.2,1.8-0.5v1
						C279.5,302.1,278.8,302.2,278,302.2z M279.4,298.3V298c0-0.6-0.2-1-0.5-1.4c-0.3-0.3-0.7-0.5-1.2-0.5s-1,0.2-1.3,0.6
						c-0.4,0.4-0.6,0.9-0.6,1.6L279.4,298.3L279.4,298.3z"/>
					<path class="st4" d="M283.1,295.3v1.2c0.4-0.8,1-1.3,1.9-1.3c0.2,0,0.3,0,0.4,0v1.1c-0.2-0.1-0.4-0.1-0.6-0.1
						c-0.5,0-0.9,0.2-1.2,0.7c-0.3,0.4-0.5,0.9-0.5,1.5v3.7H282v-6.8L283.1,295.3L283.1,295.3z"/>
					<path class="st4" d="M293,301.3c0.5,0,1-0.1,1.5-0.4v1c-0.4,0.3-1,0.4-1.6,0.4c-1.1,0-1.9-0.3-2.6-1c-0.6-0.7-1-1.5-1-2.5
						s0.3-1.8,1-2.5c0.6-0.7,1.5-1.1,2.6-1.1c0.6,0,1.1,0.1,1.6,0.4v1c-0.4-0.3-0.9-0.4-1.5-0.4c-0.8,0-1.4,0.2-1.9,0.7
						s-0.7,1.1-0.7,1.9c0,0.7,0.2,1.4,0.7,1.8C291.6,301.1,292.2,301.3,293,301.3z"/>
					<path class="st4" d="M302.1,298.7c0,1-0.3,1.9-0.9,2.5c-0.6,0.7-1.4,1-2.4,1s-1.8-0.3-2.3-1c-0.6-0.7-0.9-1.5-0.9-2.5
						s0.3-1.9,0.9-2.5s1.4-1,2.4-1s1.8,0.3,2.3,1C301.8,296.9,302.1,297.7,302.1,298.7z M301,298.7c0-0.7-0.2-1.4-0.5-1.8
						c-0.4-0.5-0.9-0.7-1.6-0.7s-1.2,0.3-1.6,0.8s-0.6,1.1-0.6,1.8c0,0.7,0.2,1.3,0.6,1.8s0.9,0.7,1.6,0.7s1.2-0.2,1.5-0.7
						C300.8,300.1,301,299.5,301,298.7z"/>
					<path class="st4" d="M306.9,293.6c-0.2-0.1-0.4-0.1-0.7-0.1s-0.5,0.1-0.6,0.3c-0.2,0.2-0.3,0.5-0.3,0.9v0.6h1.5v0.9h-1.5v6
						h-1.1v-6H303v-0.9h1.2v-0.6c0-0.7,0.2-1.2,0.5-1.6s0.8-0.6,1.5-0.6c0.2,0,0.4,0,0.7,0.1V293.6z"/>
					<path class="st4" d="M311.4,293.6c-0.2-0.1-0.4-0.1-0.7-0.1s-0.5,0.1-0.6,0.3c-0.2,0.2-0.3,0.5-0.3,0.9v0.6h1.5v0.9h-1.5v6
						h-1.1v-6h-1.2v-0.9h1.2v-0.6c0-0.7,0.2-1.2,0.5-1.6s0.8-0.6,1.5-0.6c0.2,0,0.4,0,0.7,0.1V293.6z"/>
					<path class="st4" d="M315.6,302.2c-1,0-1.9-0.3-2.5-1c-0.6-0.6-1-1.5-1-2.6s0.3-1.9,0.9-2.5s1.3-0.9,2.2-0.9s1.6,0.3,2.1,0.8
						s0.8,1.3,0.8,2.3c0,0.3,0,0.6-0.1,0.8h-4.7c0.1,0.7,0.3,1.2,0.8,1.6c0.4,0.4,1,0.5,1.7,0.5s1.3-0.2,1.8-0.5v1
						C317,302.1,316.4,302.2,315.6,302.2z M316.9,298.3V298c0-0.6-0.2-1-0.5-1.4c-0.3-0.3-0.7-0.5-1.2-0.5s-1,0.2-1.3,0.6
						s-0.6,0.9-0.6,1.6L316.9,298.3L316.9,298.3z"/>
					<path class="st4" d="M322.7,302.2c-1,0-1.9-0.3-2.5-1c-0.6-0.6-1-1.5-1-2.6s0.3-1.9,0.9-2.5s1.3-0.9,2.2-0.9s1.6,0.3,2.1,0.8
						s0.8,1.3,0.8,2.3c0,0.3,0,0.6-0.1,0.8h-4.7c0.1,0.7,0.3,1.2,0.8,1.6c0.4,0.4,1,0.5,1.7,0.5s1.3-0.2,1.8-0.5v1
						C324.1,302.1,323.4,302.2,322.7,302.2z M324,298.3V298c0-0.6-0.2-1-0.5-1.4c-0.3-0.3-0.7-0.5-1.2-0.5s-1,0.2-1.3,0.6
						s-0.6,0.9-0.6,1.6L324,298.3L324,298.3z"/>
					<path class="st4" d="M336,298.7c0,1-0.3,1.9-0.9,2.5c-0.6,0.7-1.4,1-2.4,1s-1.8-0.3-2.3-1c-0.6-0.7-0.9-1.5-0.9-2.5
						s0.3-1.9,0.9-2.5s1.4-1,2.4-1s1.8,0.3,2.3,1C335.7,296.9,336,297.7,336,298.7z M334.9,298.7c0-0.7-0.2-1.4-0.5-1.8
						c-0.4-0.5-0.9-0.7-1.6-0.7s-1.2,0.3-1.6,0.8s-0.6,1.1-0.6,1.8c0,0.7,0.2,1.3,0.6,1.8s0.9,0.7,1.6,0.7s1.2-0.2,1.5-0.7
						C334.7,300.1,334.9,299.5,334.9,298.7z"/>
					<path class="st4" d="M338.6,295.3v1.2c0.4-0.8,1-1.3,1.9-1.3c0.2,0,0.3,0,0.4,0v1.1c-0.2-0.1-0.4-0.1-0.6-0.1
						c-0.5,0-0.9,0.2-1.2,0.7c-0.3,0.4-0.5,0.9-0.5,1.5v3.7h-1.1v-6.8L338.6,295.3L338.6,295.3z"/>
					<path class="st4" d="M346.7,296.2v4c0,0.7,0.3,1.1,1,1.1c0.4,0,0.7-0.1,0.9-0.3v1c-0.3,0.2-0.6,0.2-1,0.2c-1.4,0-2-0.7-2-2.1
						v-4h-1.1v-0.9h1.1v-1.7h1.1v1.7h1.9v0.9L346.7,296.2L346.7,296.2z"/>
					<path class="st4" d="M353.3,302.2c-1,0-1.9-0.3-2.5-1c-0.6-0.6-1-1.5-1-2.6s0.3-1.9,0.9-2.5s1.3-0.9,2.2-0.9s1.6,0.3,2.1,0.8
						s0.8,1.3,0.8,2.3c0,0.3,0,0.6-0.1,0.8H351c0.1,0.7,0.3,1.2,0.8,1.6c0.4,0.4,1,0.5,1.7,0.5s1.3-0.2,1.8-0.5v1
						C354.7,302.1,354,302.2,353.3,302.2z M354.6,298.3V298c0-0.6-0.2-1-0.5-1.4c-0.3-0.3-0.7-0.5-1.2-0.5s-1,0.2-1.3,0.6
						s-0.6,0.9-0.6,1.6L354.6,298.3L354.6,298.3z"/>
					<path class="st4" d="M359.4,295.2c1.7,0,2.6,0.9,2.6,2.6v4.3h-1v-0.8c-0.4,0.6-1,0.9-1.9,0.9c-0.6,0-1.2-0.2-1.5-0.6
						c-0.4-0.4-0.6-0.9-0.6-1.5s0.2-1.1,0.7-1.5s1.2-0.5,2-0.5h1.2v-0.4c0-0.5-0.1-0.9-0.4-1.2s-0.7-0.4-1.3-0.4
						c-0.7,0-1.3,0.2-1.8,0.6v-1.1C357.9,295.4,358.6,295.2,359.4,295.2z M360.9,299h-1.2c-0.6,0-1,0.1-1.3,0.3s-0.4,0.5-0.4,0.9
						s0.1,0.6,0.3,0.8c0.2,0.2,0.6,0.3,1,0.3s0.8-0.1,1.1-0.4s0.4-0.6,0.4-1V299H360.9z"/>
					<path class="st4" d="M363.5,302c-0.2-0.2-0.2-0.3-0.2-0.6s0.1-0.4,0.2-0.6c0.2-0.2,0.3-0.2,0.6-0.2s0.4,0.1,0.6,0.2
						c0.2,0.2,0.2,0.3,0.2,0.6s-0.1,0.4-0.2,0.6c-0.2,0.2-0.3,0.2-0.6,0.2S363.6,302.2,363.5,302z"/>
				</g>
			</g>
		</g>
	</g>
	<g id="afternoon">
		<line id="afternoon-bar" class="st8" x1="106.9" y1="328" x2="106.9" y2="472"/>
		<polygon id="afternoon-arrow" class="st9" points="106.9,435.4 106.9,364.6 71.5,400 		"/>
		<g id="afternoon-time">
			<g class="st3">
				<path class="st4" d="M176.9,396.9h4.5v11.2H179V399h-2.1V396.9z"/>
				<path class="st4" d="M188.5,401.3c0.3-0.4,0.4-0.8,0.4-1.2c0-0.4-0.1-0.7-0.4-0.9c-0.2-0.3-0.6-0.4-0.9-0.4
					c-0.7,0-1.4,0.5-2,1.5l-2-1.2c0.5-0.8,1.1-1.4,1.7-1.8s1.4-0.6,2.4-0.6s1.8,0.3,2.5,0.9s1.1,1.4,1.1,2.5c0,0.6-0.1,1.1-0.4,1.7
					c-0.3,0.5-0.8,1.2-1.6,2l-2,2.1h4.4v2.2h-7.9v-1.9l3.3-3.4C187.8,402.2,188.2,401.7,188.5,401.3z"/>
				<path class="st4" d="M194,403.6c-0.3-0.3-0.4-0.6-0.4-1s0.1-0.7,0.4-1c0.3-0.3,0.6-0.4,1-0.4s0.7,0.1,1,0.4s0.4,0.6,0.4,1
					s-0.1,0.7-0.4,1c-0.3,0.3-0.6,0.4-1,0.4S194.3,403.9,194,403.6z M194,407.8c-0.3-0.3-0.4-0.6-0.4-1s0.1-0.7,0.4-1
					c0.3-0.3,0.6-0.4,1-0.4s0.7,0.1,1,0.4s0.4,0.6,0.4,1s-0.1,0.7-0.4,1c-0.3,0.3-0.6,0.4-1,0.4S194.3,408.1,194,407.8z"/>
				<path class="st4" d="M203,408.2c-1.5,0-2.7-0.5-3.5-1.6c-0.8-1-1.2-2.5-1.2-4.2c0-1.8,0.4-3.2,1.2-4.2s1.9-1.6,3.5-1.6
					c1.5,0,2.7,0.5,3.5,1.6s1.2,2.5,1.2,4.2c0,1.8-0.4,3.2-1.2,4.2C205.8,407.7,204.6,408.2,203,408.2z M201.4,399.7
					c-0.4,0.7-0.5,1.6-0.5,2.7s0.2,2,0.5,2.7c0.4,0.7,0.9,1,1.6,1c0.7,0,1.3-0.3,1.6-1c0.4-0.7,0.5-1.6,0.5-2.7s-0.2-2-0.5-2.7
					c-0.4-0.7-0.9-1-1.6-1C202.3,398.7,201.8,399.1,201.4,399.7z"/>
				<path class="st4" d="M214.1,408.2c-1.5,0-2.7-0.5-3.5-1.6c-0.8-1-1.2-2.5-1.2-4.2c0-1.8,0.4-3.2,1.2-4.2s1.9-1.6,3.5-1.6
					c1.5,0,2.7,0.5,3.5,1.6s1.2,2.5,1.2,4.2c0,1.8-0.4,3.2-1.2,4.2C216.8,407.7,215.6,408.2,214.1,408.2z M212.4,399.7
					c-0.4,0.7-0.5,1.6-0.5,2.7s0.2,2,0.5,2.7c0.4,0.7,0.9,1,1.6,1c0.7,0,1.3-0.3,1.6-1c0.4-0.7,0.5-1.6,0.5-2.7s-0.2-2-0.5-2.7
					c-0.4-0.7-0.9-1-1.6-1C213.3,398.7,212.8,399.1,212.4,399.7z"/>
				<path class="st4" d="M232.9,397.9c0.8,0.7,1.2,1.7,1.2,3.1s-0.4,2.4-1.2,3s-2,1-3.7,1h-1.5v3.1h-2.5v-11.2h4
					C230.9,396.9,232.1,397.2,232.9,397.9z M231.1,402.3c0.3-0.3,0.4-0.8,0.4-1.5s-0.2-1.1-0.6-1.4c-0.4-0.3-1-0.4-1.8-0.4h-1.4v3.8
					h1.7C230.2,402.8,230.8,402.6,231.1,402.3z"/>
				<path class="st4" d="M235.1,407.8c-0.3-0.3-0.4-0.6-0.4-1s0.1-0.7,0.4-1c0.3-0.3,0.6-0.4,1-0.4s0.7,0.1,1,0.4s0.4,0.6,0.4,1
					s-0.1,0.7-0.4,1c-0.3,0.3-0.6,0.4-1,0.4C235.7,408.2,235.4,408.1,235.1,407.8z"/>
				<path class="st4" d="M249.8,401.1l-3,6.1h-1.5l-3-6.1v7h-2.5v-11.2h3.4l2.9,6.1l2.9-6.1h3.4v11.2h-2.5L249.8,401.1L249.8,401.1z
					"/>
				<path class="st4" d="M255,407.8c-0.3-0.3-0.4-0.6-0.4-1s0.1-0.7,0.4-1c0.3-0.3,0.6-0.4,1-0.4s0.7,0.1,1,0.4s0.4,0.6,0.4,1
					s-0.1,0.7-0.4,1s-0.6,0.4-1,0.4S255.3,408.1,255,407.8z"/>
			</g>
		</g>
		<g id="afternoon-badge">
			<rect id="afternoon-square" x="-186" y="328" class="st9" width="227.5" height="144"/>
			<g id="afternoon-title">
				<g class="st3">
					<path class="st4" d="M-115.9,357.3l-1-2.4h-4.7l-1,2.4h-2.7l4.8-11.2h2.4l4.8,11.2H-115.9z M-119.3,349.4l-1.4,3.2h2.8
						L-119.3,349.4z"/>
					<path class="st4" d="M-104.3,346.1v2.2h-5.2v2.4h4.9v2.2h-4.9v4.4h-2.5v-11.2H-104.3z"/>
					<path class="st4" d="M-97.4,348.3v9h-2.5v-9h-3.2v-2.2h8.8v2.2H-97.4z"/>
					<path class="st4" d="M-84.4,346.1v2.2H-90v2.3h5v2.1h-5v2.3h5.7v2.2h-8.2V346h8.1V346.1z"/>
					<path class="st4" d="M-72.9,349.8c0,1.8-0.7,2.9-2.1,3.5l2.8,4h-3.1l-2.5-3.6h-1.7v3.6H-82v-11.2h4.2c1.7,0,3,0.3,3.7,0.9
						S-72.9,348.5-72.9,349.8z M-75.9,351.1c0.3-0.3,0.5-0.7,0.5-1.3s-0.2-1-0.5-1.2s-0.9-0.3-1.7-0.3h-1.9v3.3h1.8
						C-76.8,351.6-76.2,351.4-75.9,351.1z"/>
					<path class="st4" d="M-62.5,346.1h2.5v11.2h-2.5l-5.3-7v7h-2.5v-11.2h2.3l5.5,7.2V346.1z"/>
					<path class="st4" d="M-47.9,355.7c-1.1,1.1-2.5,1.7-4.2,1.7s-3-0.6-4.2-1.7c-1.1-1.1-1.7-2.5-1.7-4.1s0.6-3,1.7-4.1
						c1.1-1.1,2.5-1.7,4.2-1.7s3,0.6,4.2,1.7c1.1,1.1,1.7,2.5,1.7,4.1S-46.7,354.6-47.9,355.7z M-48.7,351.6c0-1-0.3-1.8-1-2.6
						s-1.4-1.1-2.4-1.1c-0.9,0-1.7,0.4-2.4,1.1c-0.6,0.7-1,1.6-1,2.6s0.3,1.8,1,2.5c0.6,0.7,1.4,1,2.4,1c0.9,0,1.7-0.3,2.4-1
						C-49,353.5-48.7,352.6-48.7,351.6z"/>
					<path class="st4" d="M-34.7,355.7c-1.1,1.1-2.5,1.7-4.2,1.7s-3-0.6-4.2-1.7c-1.1-1.1-1.7-2.5-1.7-4.1s0.6-3,1.7-4.1
						c1.1-1.1,2.5-1.7,4.2-1.7s3,0.6,4.2,1.7c1.1,1.1,1.7,2.5,1.7,4.1S-33.5,354.6-34.7,355.7z M-35.5,351.6c0-1-0.3-1.8-1-2.6
						s-1.4-1.1-2.4-1.1c-0.9,0-1.7,0.4-2.4,1.1c-0.6,0.7-1,1.6-1,2.6s0.3,1.8,1,2.5c0.6,0.7,1.4,1,2.4,1c0.9,0,1.7-0.3,2.4-1
						C-35.8,353.5-35.5,352.6-35.5,351.6z"/>
					<path class="st4" d="M-23,346.1h2.5v11.2H-23l-5.3-7v7h-2.5v-11.2h2.3l5.5,7.2V346.1z"/>
				</g>
			</g>
			<g id="afternoon-details">
				<path id="afternoon-icon" class="st4" d="M-73.8,388.6c0,1.6-1.3,3-3.1,3.5v15c0,1.3-1.4,2.5-3.1,2.5h-3.1
					c-1.7,0-3.1-1.1-3.1-2.5v-15c-1.9-0.5-3.1-1.9-3.1-3.5v-12.3c0-0.7,0.7-1.2,1.6-1.2s1.6,0.6,1.6,1.2v8c0,0.7,0.7,1.2,1.6,1.2
					s1.6-0.6,1.6-1.2v-8c0-0.7,0.7-1.2,1.6-1.2s1.6,0.6,1.6,1.2v8c0,0.7,0.7,1.2,1.6,1.2s1.6-0.6,1.6-1.2v-8c0-0.7,0.7-1.2,1.6-1.2
					s1.6,0.6,1.6,1.2v12.3H-73.8z M-55,407c0,1.3-1.4,2.5-3.1,2.5h-3.1c-1.7,0-3.1-1.1-3.1-2.5v-9.9h-5.5c-0.4,0-0.8-0.3-0.8-0.6
					v-15.4c0-3.4,3.5-6.2,7.9-6.2h6.3c0.9,0,1.6,0.6,1.6,1.2V407H-55z"/>
				<rect id="XMLID_77_" x="-142.7" y="426" class="st5" width="140.9" height="33.9"/>
				<g class="st3">
					<path class="st4" d="M-158.8,434.6h4v1h-5.1v-9.1h5v1h-3.9v3.1h3.5v1h-3.5V434.6z"/>
					<path class="st4" d="M-152.1,428.7v1.2c0.4-0.9,1.1-1.3,2.2-1.3c0.7,0,1.2,0.2,1.6,0.6c0.4,0.4,0.6,0.9,0.6,1.6v4.7h-1.1v-4.4
						c0-0.5-0.1-0.9-0.4-1.2c-0.3-0.3-0.6-0.4-1.1-0.4s-0.9,0.2-1.3,0.6c-0.4,0.4-0.6,0.9-0.6,1.6v3.7h-1.1v-6.8L-152.1,428.7
						L-152.1,428.7z"/>
					<path class="st4" d="M-146.6,437.2c0.5,0,0.8-0.3,0.8-1v-7.6h1.1v7.6c0,0.6-0.2,1.1-0.5,1.4s-0.7,0.5-1.3,0.5
						c-0.3,0-0.6-0.1-1-0.2V437C-147.1,437.2-146.8,437.2-146.6,437.2z M-145.8,427c-0.1-0.1-0.2-0.3-0.2-0.5s0.1-0.4,0.2-0.5
						c0.1-0.1,0.3-0.2,0.5-0.2s0.4,0.1,0.5,0.2s0.2,0.3,0.2,0.5s-0.1,0.4-0.2,0.5c-0.1,0.1-0.3,0.2-0.5,0.2S-145.7,427.2-145.8,427z
						"/>
					<path class="st4" d="M-136.8,432.1c0,1-0.3,1.9-0.9,2.5c-0.6,0.7-1.4,1-2.4,1s-1.8-0.3-2.3-1c-0.6-0.7-0.9-1.5-0.9-2.5
						s0.3-1.9,0.9-2.5c0.6-0.7,1.4-1,2.4-1s1.8,0.3,2.3,1C-137.1,430.3-136.8,431.1-136.8,432.1z M-137.9,432.1
						c0-0.7-0.2-1.4-0.5-1.8c-0.4-0.5-0.9-0.7-1.6-0.7s-1.2,0.3-1.6,0.8c-0.4,0.5-0.6,1.1-0.6,1.8c0,0.7,0.2,1.3,0.6,1.8
						c0.4,0.5,0.9,0.7,1.6,0.7c0.7,0,1.2-0.2,1.5-0.7C-138.1,433.5-137.9,432.9-137.9,432.1z"/>
					<path class="st4" d="M-135.1,437.9c-0.2,0-0.4,0-0.6-0.1v-1c0.1,0,0.3,0.1,0.5,0.1c0.9,0,1.6-0.5,1.9-1.6l-2.8-6.7h1.2l2.1,5.4
						c0.1-0.3,0.7-2,1.9-5.4h1.1l-2.5,6.7c-0.4,0.9-0.8,1.6-1.2,2S-134.5,437.9-135.1,437.9z"/>
					<path class="st4" d="M-125.2,435.5V426h1.1v9.5H-125.2z"/>
					<path class="st4" d="M-117.9,428.7h1.1v6.8h-1.1v-1.2c-0.4,0.8-1.1,1.3-2.1,1.3c-0.7,0-1.2-0.2-1.6-0.6s-0.6-0.9-0.6-1.6v-4.7
						h1.1v4.4c0,0.5,0.1,0.9,0.4,1.1c0.3,0.3,0.6,0.4,1.1,0.4s0.9-0.2,1.3-0.6c0.3-0.4,0.5-0.9,0.5-1.6v-3.7H-117.9z"/>
					<path class="st4" d="M-113.8,428.7v1.2c0.4-0.9,1.1-1.3,2.2-1.3c0.7,0,1.2,0.2,1.6,0.6s0.6,0.9,0.6,1.6v4.7h-1.1v-4.4
						c0-0.5-0.1-0.9-0.4-1.2c-0.3-0.3-0.6-0.4-1.1-0.4s-0.9,0.2-1.3,0.6s-0.6,0.9-0.6,1.6v3.7h-1.1v-6.8L-113.8,428.7L-113.8,428.7z
						"/>
					<path class="st4" d="M-104.3,434.7c0.5,0,1-0.1,1.5-0.4v1c-0.4,0.3-1,0.4-1.6,0.4c-1.1,0-1.9-0.3-2.6-1c-0.6-0.7-1-1.5-1-2.5
						s0.3-1.8,1-2.5c0.6-0.7,1.5-1.1,2.6-1.1c0.6,0,1.1,0.1,1.6,0.4v1c-0.4-0.3-0.9-0.4-1.5-0.4c-0.8,0-1.4,0.2-1.9,0.7
						s-0.7,1.1-0.7,1.9c0,0.7,0.2,1.4,0.7,1.8C-105.7,434.5-105.1,434.7-104.3,434.7z"/>
					<path class="st4" d="M-100.1,426v3.9c0.4-0.9,1.1-1.3,2.2-1.3c0.7,0,1.2,0.2,1.6,0.6s0.6,1,0.6,1.6v4.7h-1.1v-4.4
						c0-0.5-0.1-0.9-0.4-1.1c-0.3-0.3-0.6-0.4-1.1-0.4s-0.9,0.2-1.3,0.6s-0.6,0.9-0.6,1.7v3.7h-1.1V426H-100.1z"/>
					<path class="st4" d="M-90.5,427c-0.1-0.1-0.2-0.3-0.2-0.5s0.1-0.4,0.2-0.5s0.3-0.2,0.5-0.2s0.4,0.1,0.5,0.2s0.2,0.3,0.2,0.5
						s-0.1,0.4-0.2,0.5s-0.3,0.2-0.5,0.2S-90.4,427.2-90.5,427z M-90.5,435.5v-6.8h1.1v6.8H-90.5z"/>
					<path class="st4" d="M-86.4,428.7v1.2c0.4-0.9,1.1-1.3,2.2-1.3c0.7,0,1.2,0.2,1.6,0.6s0.6,0.9,0.6,1.6v4.7h-1.1v-4.4
						c0-0.5-0.1-0.9-0.4-1.2c-0.3-0.3-0.6-0.4-1.1-0.4s-0.9,0.2-1.3,0.6s-0.6,0.9-0.6,1.6v3.7h-1.1v-6.8L-86.4,428.7L-86.4,428.7z"
						/>
					<path class="st4" d="M-75.8,428.7v1c0.5-0.8,1.2-1.1,2.1-1.1s1.6,0.3,2.2,1c0.5,0.7,0.8,1.5,0.8,2.5s-0.3,1.9-0.8,2.5
						c-0.5,0.7-1.3,1-2.1,1c-0.9,0-1.6-0.4-2.1-1.1v3.7h-1.1v-9.5H-75.8z M-75.8,432.1c0,0.9,0.2,1.5,0.6,2c0.4,0.4,0.9,0.6,1.4,0.6
						s1-0.2,1.4-0.7s0.6-1.1,0.6-1.9s-0.2-1.4-0.5-1.9s-0.8-0.7-1.4-0.7s-1,0.2-1.4,0.6S-75.8,431.2-75.8,432.1z"/>
					<path class="st4" d="M-66.2,435.6c-1,0-1.9-0.3-2.5-1c-0.6-0.6-1-1.5-1-2.6s0.3-1.9,0.9-2.5s1.3-0.9,2.2-0.9s1.6,0.3,2.1,0.8
						s0.8,1.3,0.8,2.3c0,0.3,0,0.6-0.1,0.8h-4.7c0.1,0.7,0.3,1.2,0.8,1.6c0.4,0.4,1,0.5,1.7,0.5s1.3-0.2,1.8-0.5v1
						C-64.7,435.5-65.4,435.6-66.2,435.6z M-64.9,431.7v-0.3c0-0.6-0.2-1-0.5-1.4c-0.3-0.3-0.7-0.5-1.2-0.5s-1,0.2-1.3,0.6
						c-0.4,0.4-0.6,0.9-0.6,1.6L-64.9,431.7L-64.9,431.7z"/>
					<path class="st4" d="M-60,428.6c1.7,0,2.6,0.9,2.6,2.6v4.3h-1.1v-0.8c-0.4,0.6-1,0.9-1.9,0.9c-0.6,0-1.2-0.2-1.5-0.6
						c-0.4-0.4-0.6-0.9-0.6-1.5s0.2-1.1,0.7-1.5s1.2-0.5,2-0.5h1.2v-0.4c0-0.5-0.1-0.9-0.4-1.2c-0.2-0.3-0.7-0.4-1.3-0.4
						c-0.7,0-1.3,0.2-1.8,0.6V429C-61.5,428.7-60.8,428.6-60,428.6z M-58.5,432.4h-1.2c-0.6,0-1,0.1-1.3,0.3s-0.4,0.5-0.4,0.9
						s0.1,0.6,0.3,0.8s0.6,0.3,1,0.3s0.8-0.1,1.1-0.4s0.4-0.6,0.4-1v-0.9H-58.5z"/>
					<path class="st4" d="M-52.3,434.7c0.5,0,1-0.1,1.5-0.4v1c-0.4,0.3-1,0.4-1.6,0.4c-1.1,0-1.9-0.3-2.6-1c-0.6-0.7-1-1.5-1-2.5
						s0.3-1.8,1-2.5c0.6-0.7,1.5-1.1,2.6-1.1c0.6,0,1.1,0.1,1.6,0.4v1c-0.4-0.3-0.9-0.4-1.5-0.4c-0.8,0-1.4,0.2-1.9,0.7
						s-0.7,1.1-0.7,1.9c0,0.7,0.2,1.4,0.7,1.8C-53.7,434.5-53.1,434.7-52.3,434.7z"/>
					<path class="st4" d="M-46.1,435.6c-1,0-1.9-0.3-2.5-1c-0.6-0.6-1-1.5-1-2.6s0.3-1.9,0.9-2.5c0.6-0.6,1.3-0.9,2.2-0.9
						s1.6,0.3,2.1,0.8s0.8,1.3,0.8,2.3c0,0.3,0,0.6-0.1,0.8h-4.7c0.1,0.7,0.3,1.2,0.8,1.6c0.4,0.4,1,0.5,1.7,0.5s1.3-0.2,1.8-0.5v1
						C-44.7,435.5-45.3,435.6-46.1,435.6z M-44.8,431.7v-0.3c0-0.6-0.2-1-0.5-1.4c-0.3-0.3-0.7-0.5-1.2-0.5s-1,0.2-1.3,0.6
						c-0.4,0.4-0.6,0.9-0.6,1.6L-44.8,431.7L-44.8,431.7z"/>
					<path class="st4" d="M-37.4,435.5l-2.1-6.8h1.1c0.9,3,1.4,5,1.6,5.8c0.1-0.4,0.6-2.4,1.6-5.8h1.1l1.7,5.8
						c0.1-0.5,0.7-2.4,1.7-5.8h1.1l-2.2,6.8h-1.3l-0.6-2.2l-0.9-3.4c-0.1,0.4-0.6,2.3-1.5,5.7h-1.3V435.5z"/>
					<path class="st4" d="M-27.1,426v3.9c0.4-0.9,1.1-1.3,2.2-1.3c0.7,0,1.2,0.2,1.6,0.6s0.6,1,0.6,1.6v4.7h-1.1v-4.4
						c0-0.5-0.1-0.9-0.4-1.1c-0.3-0.3-0.6-0.4-1.1-0.4s-0.9,0.2-1.3,0.6s-0.6,0.9-0.6,1.7v3.7h-1.1V426H-27.1z"/>
					<path class="st4" d="M-20.8,427c-0.1-0.1-0.2-0.3-0.2-0.5s0.1-0.4,0.2-0.5s0.3-0.2,0.5-0.2s0.4,0.1,0.5,0.2s0.2,0.3,0.2,0.5
						s-0.1,0.4-0.2,0.5s-0.3,0.2-0.5,0.2S-20.6,427.2-20.8,427z M-20.8,435.5v-6.8h1.1v6.8H-20.8z"/>
					<path class="st4" d="M-17.6,435.5V426h1.1v9.5H-17.6z"/>
					<path class="st4" d="M-11.5,435.6c-1,0-1.9-0.3-2.5-1c-0.6-0.6-1-1.5-1-2.6s0.3-1.9,0.9-2.5c0.6-0.6,1.3-0.9,2.2-0.9
						s1.6,0.3,2.1,0.8c0.5,0.5,0.8,1.3,0.8,2.3c0,0.3,0,0.6-0.1,0.8h-4.7c0.1,0.7,0.3,1.2,0.8,1.6c0.4,0.4,1,0.5,1.7,0.5
						s1.3-0.2,1.8-0.5v1C-10.1,435.5-10.7,435.6-11.5,435.6z M-10.2,431.7v-0.3c0-0.6-0.2-1-0.5-1.4c-0.3-0.3-0.7-0.5-1.2-0.5
						s-1,0.2-1.3,0.6c-0.4,0.4-0.6,0.9-0.6,1.6L-10.2,431.7L-10.2,431.7z"/>
					<path class="st4" d="M-2.7,429.6v4c0,0.7,0.3,1.1,1,1.1c0.4,0,0.7-0.1,0.9-0.3v1c-0.3,0.2-0.6,0.2-1,0.2c-1.4,0-2-0.7-2-2.1v-4
						h-1.1v-0.9h1.1V427h1.1v1.7h1.9v0.9H-2.7z"/>
					<path class="st4" d="M1.8,426v3.9c0.4-0.9,1.1-1.3,2.2-1.3c0.7,0,1.2,0.2,1.6,0.6s0.6,1,0.6,1.6v4.7H5.1v-4.4
						c0-0.5-0.1-0.9-0.4-1.1c-0.3-0.3-0.6-0.4-1.1-0.4s-0.9,0.2-1.3,0.6s-0.6,0.9-0.6,1.7v3.7H0.8V426H1.8z"/>
					<path class="st4" d="M11.1,435.6c-1,0-1.9-0.3-2.5-1c-0.6-0.6-1-1.5-1-2.6s0.3-1.9,0.9-2.5c0.6-0.6,1.3-0.9,2.2-0.9
						s1.6,0.3,2.1,0.8c0.5,0.5,0.8,1.3,0.8,2.3c0,0.3,0,0.6-0.1,0.8H8.7c0.1,0.7,0.3,1.2,0.8,1.6c0.4,0.4,1,0.5,1.7,0.5
						s1.3-0.2,1.8-0.5v1C12.5,435.5,11.9,435.6,11.1,435.6z M12.4,431.7v-0.3c0-0.6-0.2-1-0.5-1.4c-0.3-0.3-0.7-0.5-1.2-0.5
						s-1,0.2-1.3,0.6c-0.4,0.4-0.6,0.9-0.6,1.6L12.4,431.7L12.4,431.7z"/>
				</g>
				<g class="st3">
					<path class="st4" d="M-171,444.4h2.4c1.1,0,1.9,0.3,2.5,0.8s0.9,1.2,0.9,2.1s-0.3,1.5-0.9,2.1c-0.6,0.5-1.4,0.8-2.4,0.8h-1.4
						v3.3h-1.1V444.4z M-169.9,449.3h1.5c0.7,0,1.2-0.2,1.6-0.6c0.4-0.4,0.6-0.8,0.6-1.4s-0.2-1-0.6-1.4s-0.9-0.6-1.6-0.6h-1.4v4
						H-169.9z"/>
					<path class="st4" d="M-159.4,446.7h1.1v6.8h-1.1v-1.2c-0.4,0.8-1.1,1.3-2.1,1.3c-0.7,0-1.2-0.2-1.6-0.6s-0.6-0.9-0.6-1.6v-4.7
						h1.1v4.4c0,0.5,0.1,0.9,0.4,1.1c0.3,0.3,0.6,0.4,1.1,0.4s0.9-0.2,1.3-0.6c0.3-0.4,0.5-0.9,0.5-1.6L-159.4,446.7L-159.4,446.7z"
						/>
					<path class="st4" d="M-156.3,453.5V444h1.1v9.5H-156.3z"/>
					<path class="st4" d="M-151.2,447.6c-0.4,0-0.6,0.1-0.9,0.2c-0.2,0.2-0.3,0.4-0.3,0.6s0,0.4,0.1,0.5s0.2,0.2,0.4,0.4
						c0.2,0.1,0.6,0.3,1.1,0.5s0.9,0.5,1.2,0.8s0.5,0.7,0.5,1.3s-0.2,1-0.6,1.3c-0.4,0.3-1,0.5-1.8,0.5s-1.4-0.1-1.9-0.4v-1
						c0.6,0.4,1.3,0.5,1.9,0.5c0.4,0,0.7-0.1,0.9-0.2s0.3-0.4,0.3-0.7s-0.1-0.5-0.4-0.7c-0.2-0.2-0.6-0.4-1.2-0.6
						c-0.5-0.2-1-0.5-1.3-0.8s-0.5-0.7-0.5-1.2s0.2-1,0.6-1.3c0.4-0.3,1-0.5,1.7-0.5s1.2,0.1,1.7,0.3v1
						C-149.9,447.7-150.5,447.6-151.2,447.6z"/>
					<path class="st4" d="M-144.6,453.6c-1,0-1.9-0.3-2.5-1c-0.6-0.6-1-1.5-1-2.6s0.3-1.9,0.9-2.5c0.6-0.6,1.3-0.9,2.2-0.9
						s1.6,0.3,2.1,0.8s0.8,1.3,0.8,2.3c0,0.3,0,0.6-0.1,0.8h-4.7c0.1,0.7,0.3,1.2,0.8,1.6c0.4,0.4,1,0.5,1.7,0.5s1.3-0.2,1.8-0.5v1
						C-143.2,453.5-143.9,453.6-144.6,453.6z M-143.3,449.7v-0.3c0-0.6-0.2-1-0.5-1.4c-0.3-0.3-0.7-0.5-1.2-0.5s-1,0.2-1.3,0.6
						c-0.4,0.4-0.6,0.9-0.6,1.6L-143.3,449.7L-143.3,449.7z"/>
					<path class="st4" d="M-139.5,444v3.7c0.5-0.8,1.2-1.1,2.1-1.1s1.6,0.3,2.1,1s0.8,1.5,0.8,2.5s-0.3,1.9-0.8,2.5
						c-0.5,0.7-1.2,1-2.1,1c-0.9,0-1.6-0.4-2.1-1.1v1h-1.1V444H-139.5z M-139.5,450.1c0,0.9,0.2,1.5,0.6,2c0.4,0.4,0.9,0.6,1.4,0.6
						c0.6,0,1-0.2,1.4-0.7s0.5-1.1,0.5-1.9s-0.2-1.4-0.6-1.9c-0.4-0.5-0.8-0.7-1.4-0.7s-1,0.2-1.4,0.6
						C-139.3,448.6-139.5,449.2-139.5,450.1z"/>
					<path class="st4" d="M-130.8,446.6c1.7,0,2.6,0.9,2.6,2.6v4.3h-1.1v-0.8c-0.4,0.6-1,0.9-1.9,0.9c-0.6,0-1.2-0.2-1.5-0.6
						c-0.4-0.4-0.6-0.9-0.6-1.5s0.2-1.1,0.7-1.5s1.2-0.5,2-0.5h1.2v-0.4c0-0.5-0.1-0.9-0.4-1.2c-0.2-0.3-0.7-0.4-1.3-0.4
						c-0.7,0-1.3,0.2-1.8,0.6V447C-132.3,446.7-131.6,446.6-130.8,446.6z M-129.2,450.4h-1.2c-0.6,0-1,0.1-1.3,0.3s-0.4,0.5-0.4,0.9
						s0.1,0.6,0.3,0.8s0.6,0.3,1,0.3s0.8-0.1,1.1-0.4s0.4-0.6,0.4-1L-129.2,450.4L-129.2,450.4z"/>
					<path class="st4" d="M-125.2,446.7v1.2c0.4-0.9,1.1-1.3,2.2-1.3c0.7,0,1.2,0.2,1.6,0.6s0.6,0.9,0.6,1.6v4.7h-1.1v-4.4
						c0-0.5-0.1-0.9-0.4-1.2c-0.3-0.3-0.6-0.4-1.1-0.4s-0.9,0.2-1.3,0.6s-0.6,0.9-0.6,1.6v3.7h-1.1v-6.8L-125.2,446.7L-125.2,446.7z
						"/>
					<path class="st4" d="M-114.4,444h1.1v9.5h-1.1v-1c-0.5,0.7-1.2,1.1-2.1,1.1s-1.6-0.3-2.1-1s-0.8-1.5-0.8-2.5s0.3-1.9,0.8-2.5
						c0.5-0.7,1.3-1,2.1-1c0.9,0,1.6,0.4,2.1,1.1V444z M-118.3,450.1c0,0.8,0.2,1.4,0.5,1.9c0.4,0.5,0.8,0.7,1.4,0.7s1-0.2,1.4-0.6
						s0.6-1.1,0.6-2s-0.2-1.5-0.6-1.9s-0.9-0.6-1.4-0.6s-1,0.2-1.4,0.7C-118.1,448.7-118.3,449.3-118.3,450.1z"/>
					<path class="st4" d="M-107,446.7v1.1c0.4-0.8,1-1.2,1.9-1.2c1.1,0,1.7,0.4,2,1.3c0.2-0.4,0.5-0.8,0.8-1
						c0.4-0.2,0.8-0.3,1.2-0.3c0.7,0,1.2,0.2,1.6,0.6s0.5,0.9,0.5,1.6v4.7h-1.1v-4.4c0-1-0.4-1.6-1.3-1.6c-0.4,0-0.8,0.2-1.2,0.6
						c-0.3,0.4-0.5,0.9-0.5,1.7v3.7h-1.1v-4.4c0-1-0.4-1.6-1.3-1.6c-0.4,0-0.8,0.2-1.2,0.6c-0.3,0.4-0.5,0.9-0.5,1.7v3.7h-1.1v-6.8
						L-107,446.7L-107,446.7z"/>
					<path class="st4" d="M-91,450.1c0,1-0.3,1.9-0.9,2.5c-0.6,0.7-1.4,1-2.4,1s-1.8-0.3-2.3-1c-0.6-0.7-0.9-1.5-0.9-2.5
						s0.3-1.9,0.9-2.5c0.6-0.7,1.4-1,2.4-1s1.8,0.3,2.3,1C-91.3,448.3-91,449.1-91,450.1z M-92.1,450.1c0-0.7-0.2-1.4-0.5-1.8
						c-0.4-0.5-0.9-0.7-1.6-0.7s-1.2,0.3-1.6,0.8s-0.6,1.1-0.6,1.8c0,0.7,0.2,1.3,0.6,1.8s0.9,0.7,1.6,0.7s1.2-0.2,1.5-0.7
						C-92.3,451.5-92.1,450.9-92.1,450.1z"/>
					<path class="st4" d="M-88.4,446.7v1.2c0.4-0.9,1.1-1.3,2.2-1.3c0.7,0,1.2,0.2,1.6,0.6s0.6,0.9,0.6,1.6v4.7h-1.1v-4.4
						c0-0.5-0.1-0.9-0.4-1.2c-0.3-0.3-0.6-0.4-1.1-0.4s-0.9,0.2-1.3,0.6s-0.6,0.9-0.6,1.6v3.7h-1.1v-6.8L-88.4,446.7L-88.4,446.7z"
						/>
					<path class="st4" d="M-82,445c-0.1-0.1-0.2-0.3-0.2-0.5s0.1-0.4,0.2-0.5s0.3-0.2,0.5-0.2s0.4,0.1,0.5,0.2s0.2,0.3,0.2,0.5
						s-0.1,0.4-0.2,0.5s-0.3,0.2-0.5,0.2S-81.9,445.2-82,445z M-82.1,453.5v-6.8h1.1v6.8H-82.1z"/>
					<path class="st4" d="M-77.5,447.6v4c0,0.7,0.3,1.1,1,1.1c0.4,0,0.7-0.1,0.9-0.3v1c-0.3,0.2-0.6,0.2-1,0.2c-1.4,0-2-0.7-2-2.1
						v-4h-1.1v-0.9h1.1V445h1.1v1.7h1.9v0.9H-77.5z"/>
					<path class="st4" d="M-68,450.1c0,1-0.3,1.9-0.9,2.5c-0.6,0.7-1.4,1-2.4,1s-1.8-0.3-2.3-1c-0.6-0.7-0.9-1.5-0.9-2.5
						s0.3-1.9,0.9-2.5c0.6-0.7,1.4-1,2.4-1s1.8,0.3,2.3,1C-68.3,448.3-68,449.1-68,450.1z M-69.1,450.1c0-0.7-0.2-1.4-0.5-1.8
						c-0.4-0.5-0.9-0.7-1.6-0.7s-1.2,0.3-1.6,0.8s-0.6,1.1-0.6,1.8c0,0.7,0.2,1.3,0.6,1.8s0.9,0.7,1.6,0.7s1.2-0.2,1.5-0.7
						C-69.3,451.5-69.1,450.9-69.1,450.1z"/>
					<path class="st4" d="M-65.4,446.7v1.2c0.4-0.8,1-1.3,1.9-1.3c0.2,0,0.3,0,0.4,0v1.1c-0.2-0.1-0.4-0.1-0.6-0.1
						c-0.5,0-0.9,0.2-1.2,0.7c-0.3,0.4-0.5,0.9-0.5,1.5v3.7h-1.1v-6.8L-65.4,446.7L-65.4,446.7z"/>
					<path class="st4" d="M-60,447.6c-0.4,0-0.6,0.1-0.9,0.2c-0.2,0.2-0.3,0.4-0.3,0.6s0,0.4,0.1,0.5s0.2,0.2,0.4,0.4
						c0.2,0.1,0.6,0.3,1.1,0.5s0.9,0.5,1.2,0.8s0.5,0.7,0.5,1.3s-0.2,1-0.6,1.3c-0.4,0.3-1,0.5-1.8,0.5s-1.4-0.1-1.9-0.4v-1
						c0.6,0.4,1.3,0.5,1.9,0.5c0.4,0,0.7-0.1,0.9-0.2s0.3-0.4,0.3-0.7s-0.1-0.5-0.4-0.7c-0.2-0.2-0.6-0.4-1.2-0.6
						c-0.5-0.2-1-0.5-1.3-0.8s-0.5-0.7-0.5-1.2s0.2-1,0.6-1.3c0.4-0.3,1-0.5,1.7-0.5s1.2,0.1,1.7,0.3v1
						C-58.7,447.7-59.3,447.6-60,447.6z"/>
					<path class="st4" d="M-51,446.6c1.7,0,2.6,0.9,2.6,2.6v4.3h-1.1v-0.8c-0.4,0.6-1,0.9-1.9,0.9c-0.6,0-1.2-0.2-1.5-0.6
						c-0.4-0.4-0.6-0.9-0.6-1.5s0.2-1.1,0.7-1.5s1.2-0.5,2-0.5h1.2v-0.4c0-0.5-0.1-0.9-0.4-1.2c-0.2-0.3-0.7-0.4-1.3-0.4
						c-0.7,0-1.3,0.2-1.8,0.6V447C-52.5,446.7-51.8,446.6-51,446.6z M-49.5,450.4h-1.2c-0.6,0-1,0.1-1.3,0.3s-0.4,0.5-0.4,0.9
						s0.1,0.6,0.3,0.8s0.6,0.3,1,0.3s0.8-0.1,1.1-0.4s0.4-0.6,0.4-1v-0.9H-49.5z"/>
					<path class="st4" d="M-45.4,444v3.7c0.5-0.8,1.2-1.1,2.1-1.1s1.6,0.3,2.1,1s0.8,1.5,0.8,2.5s-0.3,1.9-0.8,2.5
						c-0.5,0.7-1.2,1-2.1,1c-0.9,0-1.6-0.4-2.1-1.1v1h-1.1V444H-45.4z M-45.4,450.1c0,0.9,0.2,1.5,0.6,2c0.4,0.4,0.9,0.6,1.4,0.6
						c0.6,0,1-0.2,1.4-0.7s0.5-1.1,0.5-1.9s-0.2-1.4-0.6-1.9c-0.4-0.5-0.8-0.7-1.4-0.7s-1,0.2-1.4,0.6
						C-45.2,448.6-45.4,449.2-45.4,450.1z"/>
					<path class="st4" d="M-37.8,446.7v1.2c0.4-0.9,1.1-1.3,2.2-1.3c0.7,0,1.2,0.2,1.6,0.6c0.4,0.4,0.6,0.9,0.6,1.6v4.7h-1.1v-4.4
						c0-0.5-0.1-0.9-0.4-1.2c-0.3-0.3-0.6-0.4-1.1-0.4s-0.9,0.2-1.3,0.6c-0.4,0.4-0.6,0.9-0.6,1.6v3.7H-39v-6.8L-37.8,446.7
						L-37.8,446.7z"/>
					<path class="st4" d="M-25.5,450.1c0,1-0.3,1.9-0.9,2.5c-0.6,0.7-1.4,1-2.4,1s-1.8-0.3-2.3-1c-0.6-0.7-0.9-1.5-0.9-2.5
						s0.3-1.9,0.9-2.5c0.6-0.7,1.4-1,2.4-1s1.8,0.3,2.3,1C-25.8,448.3-25.5,449.1-25.5,450.1z M-26.6,450.1c0-0.7-0.2-1.4-0.5-1.8
						c-0.4-0.5-0.9-0.7-1.6-0.7s-1.2,0.3-1.6,0.8s-0.6,1.1-0.6,1.8c0,0.7,0.2,1.3,0.6,1.8s0.9,0.7,1.6,0.7s1.2-0.2,1.5-0.7
						C-26.8,451.5-26.6,450.9-26.6,450.1z"/>
					<path class="st4" d="M-22.9,446.7v1.2c0.4-0.8,1-1.3,1.9-1.3c0.2,0,0.3,0,0.4,0v1.1c-0.2-0.1-0.4-0.1-0.6-0.1
						c-0.5,0-0.9,0.2-1.2,0.7c-0.3,0.4-0.5,0.9-0.5,1.5v3.7H-24v-6.8L-22.9,446.7L-22.9,446.7z"/>
					<path class="st4" d="M-18.5,446.7v1.1c0.4-0.8,1-1.2,1.9-1.2c1.1,0,1.7,0.4,2,1.3c0.2-0.4,0.5-0.8,0.8-1
						c0.4-0.2,0.8-0.3,1.2-0.3c0.7,0,1.2,0.2,1.6,0.6c0.4,0.4,0.5,0.9,0.5,1.6v4.7h-1.1v-4.4c0-1-0.4-1.6-1.3-1.6
						c-0.4,0-0.8,0.2-1.2,0.6c-0.3,0.4-0.5,0.9-0.5,1.7v3.7h-1.1v-4.4c0-1-0.4-1.6-1.3-1.6c-0.4,0-0.8,0.2-1.2,0.6
						c-0.3,0.4-0.5,0.9-0.5,1.7v3.7h-1.1v-6.8L-18.5,446.7L-18.5,446.7z"/>
					<path class="st4" d="M-6.3,446.6c1.7,0,2.6,0.9,2.6,2.6v4.3h-1.1v-0.8c-0.4,0.6-1,0.9-1.9,0.9c-0.6,0-1.2-0.2-1.5-0.6
						c-0.4-0.4-0.6-0.9-0.6-1.5s0.2-1.1,0.7-1.5s1.2-0.5,2-0.5h1.2v-0.4c0-0.5-0.1-0.9-0.4-1.2c-0.2-0.3-0.7-0.4-1.3-0.4
						c-0.7,0-1.3,0.2-1.8,0.6V447C-7.8,446.7-7.2,446.6-6.3,446.6z M-4.8,450.4H-6c-0.6,0-1,0.1-1.3,0.3s-0.4,0.5-0.4,0.9
						s0.1,0.6,0.3,0.8s0.6,0.3,1,0.3s0.8-0.1,1.1-0.4s0.4-0.6,0.4-1L-4.8,450.4L-4.8,450.4z"/>
					<path class="st4" d="M-1.8,453.5V444h1.1v9.5H-1.8z"/>
					<path class="st4" d="M1.4,445c-0.1-0.1-0.2-0.3-0.2-0.5s0.1-0.4,0.2-0.5s0.3-0.2,0.5-0.2s0.4,0.1,0.5,0.2
						c0.1,0.1,0.2,0.3,0.2,0.5s-0.1,0.4-0.2,0.5c-0.1,0.1-0.3,0.2-0.5,0.2S1.5,445.2,1.4,445z M1.3,453.5v-6.8h1.1v6.8H1.3z"/>
					<path class="st4" d="M5.9,447.6v4c0,0.7,0.3,1.1,1,1.1c0.4,0,0.7-0.1,0.9-0.3v1c-0.3,0.2-0.6,0.2-1,0.2c-1.4,0-2-0.7-2-2.1v-4
						H3.7v-0.9h1.1V445h1.1v1.7h1.9v0.9H5.9z"/>
					<path class="st4" d="M9.5,445c-0.1-0.1-0.2-0.3-0.2-0.5s0.1-0.4,0.2-0.5c0.1-0.1,0.3-0.2,0.5-0.2s0.4,0.1,0.5,0.2
						s0.2,0.3,0.2,0.5s-0.1,0.4-0.2,0.5c-0.1,0.1-0.3,0.2-0.5,0.2S9.6,445.2,9.5,445z M9.5,453.5v-6.8h1.1v6.8H9.5z"/>
					<path class="st4" d="M15.6,453.6c-1,0-1.9-0.3-2.5-1c-0.6-0.6-1-1.5-1-2.6s0.3-1.9,0.9-2.5c0.6-0.6,1.3-0.9,2.2-0.9
						c0.9,0,1.6,0.3,2.1,0.8s0.8,1.3,0.8,2.3c0,0.3,0,0.6-0.1,0.8h-4.7c0.1,0.7,0.3,1.2,0.8,1.6c0.4,0.4,1,0.5,1.7,0.5
						s1.3-0.2,1.8-0.5v1C17,453.5,16.4,453.6,15.6,453.6z M16.9,449.7v-0.3c0-0.6-0.2-1-0.5-1.4c-0.3-0.3-0.7-0.5-1.2-0.5
						s-1,0.2-1.3,0.6c-0.4,0.4-0.6,0.9-0.6,1.6L16.9,449.7L16.9,449.7z"/>
					<path class="st4" d="M21.6,447.6c-0.4,0-0.6,0.1-0.9,0.2c-0.2,0.2-0.3,0.4-0.3,0.6s0,0.4,0.1,0.5s0.2,0.2,0.4,0.4
						c0.2,0.1,0.6,0.3,1.1,0.5s0.9,0.5,1.2,0.8c0.3,0.3,0.5,0.7,0.5,1.3s-0.2,1-0.6,1.3s-1,0.5-1.8,0.5s-1.4-0.1-1.9-0.4v-1
						c0.6,0.4,1.3,0.5,1.9,0.5c0.4,0,0.7-0.1,0.9-0.2s0.3-0.4,0.3-0.7s-0.1-0.5-0.4-0.7c-0.2-0.2-0.6-0.4-1.2-0.6
						c-0.5-0.2-1-0.5-1.3-0.8s-0.5-0.7-0.5-1.2s0.2-1,0.6-1.3s1-0.5,1.7-0.5s1.2,0.1,1.7,0.3v1C22.9,447.7,22.3,447.6,21.6,447.6z"
						/>
					<path class="st4" d="M24.7,453.4c-0.2-0.2-0.2-0.3-0.2-0.6s0.1-0.4,0.2-0.6c0.2-0.2,0.3-0.2,0.6-0.2c0.2,0,0.4,0.1,0.6,0.2
						c0.2,0.2,0.2,0.3,0.2,0.6s-0.1,0.4-0.2,0.6c-0.2,0.2-0.3,0.2-0.6,0.2C25.1,453.6,24.9,453.6,24.7,453.4z"/>
				</g>
			</g>
		</g>
	</g>
	<g id="evening">
		<line id="evening-bar" class="st1" x1="106.9" y1="482" x2="106.9" y2="626"/>
		<polygon id="evening-arrow" class="st2" points="106.5,589.4 106.5,518.6 141.9,554 		"/>
		<g id="evening-time">
			<g class="st3">
				<path class="st4" d="M-24.1,552.8c-0.7,0-1.2,0.2-1.6,0.7s-0.6,1.1-0.7,1.9c0.7-0.4,1.4-0.7,2.2-0.7c1,0,1.9,0.3,2.6,1
					s1,1.6,1,2.7s-0.4,2-1.1,2.7c-0.8,0.7-1.7,1-2.8,1c-0.8,0-1.5-0.2-2.1-0.5s-1-0.7-1.4-1.3c-0.6-1.1-1-2.4-1-4
					c0-1,0.1-1.9,0.4-2.7s0.6-1.4,1-1.8c0.9-0.9,1.9-1.3,3.2-1.3c0.5,0,1,0.1,1.5,0.2s0.8,0.3,1.1,0.5s0.5,0.4,0.8,0.6l-1.2,1.8
					c-0.1-0.1-0.2-0.1-0.3-0.3c-0.1-0.1-0.4-0.2-0.7-0.4C-23.4,552.9-23.7,552.8-24.1,552.8z M-24.4,556.8c-0.5,0-0.9,0.1-1.2,0.4
					c-0.3,0.3-0.5,0.7-0.5,1.1c0,0.5,0.2,0.9,0.5,1.2s0.7,0.5,1.2,0.5s0.9-0.1,1.2-0.4c0.3-0.3,0.5-0.7,0.5-1.2s-0.1-0.9-0.4-1.2
					C-23.5,557-23.9,556.8-24.4,556.8z"/>
				<path class="st4" d="M-18.2,557.6c-0.3-0.3-0.4-0.6-0.4-1s0.1-0.7,0.4-1s0.6-0.4,1-0.4s0.7,0.1,1,0.4c0.3,0.3,0.4,0.6,0.4,1
					s-0.1,0.7-0.4,1s-0.6,0.4-1,0.4S-17.9,557.9-18.2,557.6z M-18.2,561.8c-0.3-0.3-0.4-0.6-0.4-1s0.1-0.7,0.4-1s0.6-0.4,1-0.4
					s0.7,0.1,1,0.4c0.3,0.3,0.4,0.6,0.4,1s-0.1,0.7-0.4,1s-0.6,0.4-1,0.4S-17.9,562.1-18.2,561.8z"/>
				<path class="st4" d="M-13.5,553v-2.1h6.8v1.7l-2.3,2.6c0.9,0.1,1.6,0.5,2.1,1.1s0.7,1.3,0.7,2.1c0,1.2-0.4,2.1-1.2,2.8
					s-1.8,1-3,1s-2.5-0.4-3.8-1.3l1-2c1.1,0.7,2,1.1,2.8,1.1c0.5,0,0.9-0.1,1.2-0.4s0.5-0.6,0.5-1.1s-0.2-0.8-0.6-1.1
					c-0.4-0.3-0.9-0.4-1.6-0.4c-0.4,0-0.8,0.1-1.5,0.3v-1.8l2.1-2.5L-13.5,553L-13.5,553z"/>
				<path class="st4" d="M0.3,562.2c-1.5,0-2.7-0.5-3.5-1.6c-0.8-1-1.2-2.5-1.2-4.2c0-1.8,0.4-3.2,1.2-4.2s1.9-1.6,3.5-1.6
					c1.5,0,2.7,0.5,3.5,1.6s1.2,2.5,1.2,4.2c0,1.8-0.4,3.2-1.2,4.2C3,561.7,1.8,562.2,0.3,562.2z M-1.4,553.7
					c-0.4,0.7-0.5,1.6-0.5,2.7c0,1.1,0.2,2,0.5,2.7s0.9,1,1.6,1s1.3-0.3,1.6-1s0.5-1.6,0.5-2.7c0-1.1-0.2-2-0.5-2.7s-0.9-1-1.6-1
					S-1,553.1-1.4,553.7z"/>
				<path class="st4" d="M19.1,551.9c0.8,0.7,1.2,1.7,1.2,3.1c0,1.4-0.4,2.4-1.2,3s-2,1-3.7,1h-1.5v3.1h-2.5v-11.2h4
					C17.1,550.9,18.3,551.2,19.1,551.9z M17.3,556.3c0.3-0.3,0.4-0.8,0.4-1.5s-0.2-1.1-0.6-1.4c-0.4-0.3-1-0.4-1.8-0.4h-1.4v3.8h1.7
					C16.4,556.8,17,556.6,17.3,556.3z"/>
				<path class="st4" d="M21.3,561.8c-0.3-0.3-0.4-0.6-0.4-1s0.1-0.7,0.4-1s0.6-0.4,1-0.4s0.7,0.1,1,0.4c0.3,0.3,0.4,0.6,0.4,1
					s-0.1,0.7-0.4,1s-0.6,0.4-1,0.4S21.6,562.1,21.3,561.8z"/>
				<path class="st4" d="M36,555.1l-3,6.1h-1.5l-3-6.1v7H26v-11.2h3.4l2.9,6.1l2.9-6.1h3.4v11.2H36V555.1z"/>
				<path class="st4" d="M41.2,561.8c-0.3-0.3-0.4-0.6-0.4-1s0.1-0.7,0.4-1c0.3-0.3,0.6-0.4,1-0.4s0.7,0.1,1,0.4
					c0.3,0.3,0.4,0.6,0.4,1s-0.1,0.7-0.4,1c-0.3,0.3-0.6,0.4-1,0.4S41.5,562.1,41.2,561.8z"/>
			</g>
		</g>
		<g id="evening-badge">
			<rect id="evening-square" x="172.9" y="482" class="st2" width="227.5" height="144"/>
			<g id="evening-title">
				<g class="st3">
					<path class="st4" d="M258.4,497.1v2.2h-5.6v2.3h5v2.1h-5v2.3h5.7v2.2h-8.2V497h8.1V497.1z"/>
					<path class="st4" d="M264.9,504.2l2.8-7.1h2.7l-4.5,11.2h-2.1l-4.5-11.2h2.7L264.9,504.2z"/>
					<path class="st4" d="M279.9,497.1v2.2h-5.6v2.3h5v2.1h-5v2.3h5.7v2.2h-8.2V497h8.1V497.1z"/>
					<path class="st4" d="M290.1,497.1h2.5v11.2h-2.5l-5.3-7v7h-2.5v-11.2h2.3l5.5,7.2V497.1z"/>
					<path class="st4" d="M295.3,497.1h2.5v11.2h-2.5V497.1z"/>
					<path class="st4" d="M308.4,497.1h2.5v11.2h-2.5l-5.3-7v7h-2.5v-11.2h2.3l5.5,7.2V497.1z"/>
					<path class="st4" d="M320.9,502.6h2.5v4c-1.1,1.2-2.6,1.9-4.6,1.9c-1.6,0-3-0.5-4.1-1.6s-1.7-2.5-1.7-4.1c0-1.7,0.6-3,1.7-4.2
						c1.1-1.1,2.5-1.7,4.1-1.7s3,0.5,4.2,1.6l-1.3,1.9c-0.5-0.4-1-0.7-1.4-0.9c-0.4-0.2-0.9-0.2-1.4-0.2c-1,0-1.8,0.3-2.4,1
						s-1,1.5-1,2.6s0.3,1.9,0.9,2.5s1.4,1,2.2,1s1.6-0.2,2.2-0.5L320.9,502.6L320.9,502.6z"/>
				</g>
			</g>
			<g id="evening-details">
				<path id="evening-icon" class="st4" d="M287.6,569.1c-12.8,0-23.2-10.4-23.2-23.2c0-12.5,9.8-22.7,22.3-23.1
					c0.8,0,1.5,0.5,1.8,1.2c0.3,0.8,0.1,1.6-0.5,2.2c-3.4,3.1-5.3,7.4-5.3,12.1c0,9,7.4,16.4,16.4,16.4c2.4,0,4.7-0.5,6.9-1.5
					c0.8-0.3,1.6-0.2,2.2,0.4c0.6,0.6,0.7,1.4,0.4,2.2C304.9,563.8,296.6,569.1,287.6,569.1z M299.2,558.5
					c-11.2,0-20.3-9.1-20.3-20.3c0-3.8,1.1-7.6,3.1-10.8c-8,2.4-13.8,9.7-13.8,18.5c0,10.6,8.7,19.3,19.3,19.3
					c5.8,0,11.3-2.7,14.9-7C301.4,558.4,300.3,558.5,299.2,558.5z"/>
				<rect id="XMLID_26_" x="216.2" y="582" class="st5" width="140.9" height="33.9"/>
				<g class="st3">
					<path class="st4" d="M192.3,587.9h-1.4v3.6h-1.1v-9.1h2.3c1.1,0,1.9,0.2,2.4,0.7s0.8,1.2,0.8,2.1c0,0.6-0.2,1.2-0.5,1.6
						c-0.3,0.4-0.8,0.8-1.3,0.9l2.4,3.8h-1.3L192.3,587.9z M190.9,583.4v3.6h1.4c0.6,0,1.1-0.2,1.4-0.5c0.3-0.3,0.5-0.8,0.5-1.3
						c0-1.2-0.7-1.8-2-1.8H190.9z"/>
					<path class="st4" d="M200.2,591.6c-1,0-1.9-0.3-2.5-1c-0.6-0.6-1-1.5-1-2.6s0.3-1.9,0.9-2.5s1.3-0.9,2.2-0.9s1.6,0.3,2.1,0.8
						s0.8,1.3,0.8,2.3c0,0.3,0,0.6-0.1,0.8h-4.7c0.1,0.7,0.3,1.2,0.8,1.6c0.4,0.4,1,0.5,1.7,0.5s1.3-0.2,1.8-0.5v1
						C201.6,591.5,200.9,591.6,200.2,591.6z M201.5,587.7v-0.3c0-0.6-0.2-1-0.5-1.4c-0.3-0.3-0.7-0.5-1.2-0.5s-1,0.2-1.3,0.6
						c-0.4,0.4-0.6,0.9-0.6,1.6L201.5,587.7L201.5,587.7z"/>
					<path class="st4" d="M206.2,585.6c-0.4,0-0.6,0.1-0.9,0.2c-0.2,0.2-0.3,0.4-0.3,0.6c0,0.2,0,0.4,0.1,0.5s0.2,0.2,0.4,0.4
						c0.2,0.1,0.6,0.3,1.1,0.5s0.9,0.5,1.2,0.8s0.5,0.7,0.5,1.3s-0.2,1-0.6,1.3c-0.4,0.3-1,0.5-1.8,0.5s-1.4-0.1-1.9-0.4v-1
						c0.6,0.4,1.3,0.5,1.9,0.5c0.4,0,0.7-0.1,0.9-0.2s0.3-0.4,0.3-0.7s-0.1-0.5-0.4-0.7c-0.2-0.2-0.6-0.4-1.2-0.6
						c-0.5-0.2-1-0.5-1.3-0.8s-0.5-0.7-0.5-1.2s0.2-1,0.6-1.3c0.4-0.3,1-0.5,1.7-0.5s1.2,0.1,1.7,0.3v1
						C207.5,585.7,206.9,585.6,206.2,585.6z"/>
					<path class="st4" d="M211.2,585.6v4c0,0.7,0.3,1.1,1,1.1c0.4,0,0.7-0.1,0.9-0.3v1c-0.3,0.2-0.6,0.2-1,0.2c-1.3,0-2-0.7-2-2.1
						v-4H209v-0.9h1.1V583h1.1v1.7h1.9v0.9L211.2,585.6L211.2,585.6z"/>
					<path class="st4" d="M221.1,591.6c-1,0-1.9-0.3-2.5-1c-0.6-0.6-1-1.5-1-2.6s0.3-1.9,0.9-2.5s1.3-0.9,2.2-0.9s1.6,0.3,2.1,0.8
						s0.8,1.3,0.8,2.3c0,0.3,0,0.6-0.1,0.8h-4.7c0.1,0.7,0.3,1.2,0.8,1.6c0.4,0.4,1,0.5,1.7,0.5s1.3-0.2,1.8-0.5v1
						C222.5,591.5,221.8,591.6,221.1,591.6z M222.4,587.7v-0.3c0-0.6-0.2-1-0.5-1.4c-0.3-0.3-0.7-0.5-1.2-0.5s-1,0.2-1.3,0.6
						c-0.4,0.4-0.6,0.9-0.6,1.6L222.4,587.7L222.4,587.7z"/>
					<path class="st4" d="M227.2,584.6c1.7,0,2.6,0.9,2.6,2.6v4.3h-1.1v-0.8c-0.4,0.6-1,0.9-1.9,0.9c-0.6,0-1.2-0.2-1.5-0.6
						c-0.4-0.4-0.6-0.9-0.6-1.5s0.2-1.1,0.8-1.5c0.5-0.4,1.2-0.5,2-0.5h1.2v-0.4c0-0.5-0.1-0.9-0.4-1.2c-0.2-0.3-0.7-0.4-1.3-0.4
						s-1.3,0.2-1.8,0.6V585C225.7,584.7,226.4,584.6,227.2,584.6z M228.7,588.4h-1.2c-0.6,0-1,0.1-1.3,0.3s-0.4,0.5-0.4,0.9
						s0.1,0.6,0.3,0.8s0.6,0.3,1,0.3s0.8-0.1,1.1-0.4s0.4-0.6,0.4-1L228.7,588.4L228.7,588.4z"/>
					<path class="st4" d="M233.7,585.6c-0.4,0-0.6,0.1-0.9,0.2c-0.2,0.2-0.3,0.4-0.3,0.6c0,0.2,0,0.4,0.1,0.5s0.2,0.2,0.4,0.4
						c0.2,0.1,0.6,0.3,1.1,0.5s0.9,0.5,1.2,0.8s0.5,0.7,0.5,1.3s-0.2,1-0.6,1.3c-0.4,0.3-1,0.5-1.8,0.5s-1.4-0.1-1.9-0.4v-1
						c0.6,0.4,1.3,0.5,1.9,0.5c0.4,0,0.7-0.1,0.9-0.2s0.3-0.4,0.3-0.7s-0.1-0.5-0.4-0.7c-0.2-0.2-0.6-0.4-1.2-0.6
						c-0.5-0.2-1-0.5-1.3-0.8s-0.5-0.7-0.5-1.2s0.2-1,0.6-1.3c0.4-0.3,1-0.5,1.7-0.5s1.2,0.1,1.7,0.3v1
						C235,585.7,234.4,585.6,233.7,585.6z"/>
					<path class="st4" d="M237.3,593.9c-0.2,0-0.4,0-0.6-0.1v-1c0.1,0,0.3,0.1,0.5,0.1c0.9,0,1.6-0.5,1.9-1.6l-2.8-6.7h1.2l2.1,5.4
						c0.1-0.3,0.7-2,1.9-5.4h1.1l-2.5,6.7c-0.4,0.9-0.8,1.6-1.2,2S238,593.9,237.3,593.9z"/>
					<path class="st4" d="M247.2,591.5V582h1.1v9.5H247.2z M249.7,587.9l2.8,3.6h-1.3l-2.8-3.6l2.7-3.3h1.3L249.7,587.9z"/>
					<path class="st4" d="M254.7,584.7v1.2c0.4-0.9,1.1-1.3,2.2-1.3c0.7,0,1.2,0.2,1.6,0.6c0.4,0.4,0.6,0.9,0.6,1.6v4.7H258v-4.4
						c0-0.5-0.1-0.9-0.4-1.2s-0.6-0.4-1.1-0.4s-0.9,0.2-1.3,0.6c-0.4,0.4-0.6,0.9-0.6,1.6v3.7h-1.1v-6.8h1.2V584.7z"/>
					<path class="st4" d="M267,588.1c0,1-0.3,1.9-0.9,2.5c-0.6,0.7-1.4,1-2.4,1s-1.8-0.3-2.3-1c-0.6-0.7-0.9-1.5-0.9-2.5
						s0.3-1.9,0.9-2.5c0.6-0.7,1.4-1,2.4-1s1.8,0.3,2.3,1C266.7,586.3,267,587.1,267,588.1z M265.9,588.1c0-0.7-0.2-1.4-0.5-1.8
						c-0.4-0.5-0.9-0.7-1.6-0.7s-1.2,0.3-1.6,0.8s-0.6,1.1-0.6,1.8s0.2,1.3,0.6,1.8s0.9,0.7,1.6,0.7s1.2-0.2,1.5-0.7
						C265.7,589.5,265.9,588.9,265.9,588.1z"/>
					<path class="st4" d="M270,591.5l-2.1-6.8h1.1c0.9,3,1.4,5,1.6,5.8c0.1-0.4,0.6-2.4,1.6-5.8h1.1l1.7,5.8
						c0.1-0.5,0.7-2.4,1.7-5.8h1.1l-2.2,6.8h-1.3l-0.6-2.2l-0.9-3.4c-0.1,0.4-0.6,2.3-1.5,5.7L270,591.5L270,591.5z"/>
					<path class="st4" d="M279.3,583c-0.1-0.1-0.2-0.3-0.2-0.5s0.1-0.4,0.2-0.5s0.3-0.2,0.5-0.2s0.4,0.1,0.5,0.2
						c0.1,0.1,0.2,0.3,0.2,0.5s-0.1,0.4-0.2,0.5s-0.3,0.2-0.5,0.2C279.6,583.2,279.5,583.2,279.3,583z M279.3,591.5v-6.8h1.1v6.8
						H279.3z"/>
					<path class="st4" d="M283.5,584.7v1.2c0.4-0.9,1.1-1.3,2.2-1.3c0.7,0,1.2,0.2,1.6,0.6c0.4,0.4,0.6,0.9,0.6,1.6v4.7h-1.1v-4.4
						c0-0.5-0.1-0.9-0.4-1.2s-0.6-0.4-1.1-0.4s-0.9,0.2-1.3,0.6c-0.4,0.4-0.6,0.9-0.6,1.6v3.7h-1.1v-6.8h1.2V584.7z"/>
					<path class="st4" d="M294.2,584.7h1.1v6.3c0,1-0.3,1.8-0.9,2.4c-0.6,0.5-1.3,0.8-2.2,0.8c-0.9,0-1.6-0.1-2.2-0.4v-1.1
						c0.6,0.3,1.2,0.5,1.9,0.5c1.5,0,2.2-0.7,2.2-2.2v-0.8c-0.5,0.8-1.1,1.2-1.9,1.2s-1.5-0.3-2.1-0.9c-0.6-0.6-0.8-1.4-0.8-2.4
						s0.3-1.9,0.8-2.5c0.5-0.7,1.2-1,2.1-1s1.5,0.4,2,1.2V584.7z M290.4,588.1c0,0.8,0.2,1.3,0.6,1.7s0.8,0.6,1.3,0.6
						s0.9-0.2,1.3-0.6s0.6-1,0.6-1.8s-0.2-1.4-0.6-1.9s-0.8-0.6-1.4-0.6c-0.5,0-1,0.2-1.3,0.7S290.4,587.3,290.4,588.1z"/>
					<path class="st4" d="M301.9,585.6v4c0,0.7,0.3,1.1,1,1.1c0.4,0,0.7-0.1,0.9-0.3v1c-0.3,0.2-0.6,0.2-1,0.2c-1.3,0-2-0.7-2-2.1
						v-4h-1.1v-0.9h1.1V583h1.1v1.7h1.9v0.9L301.9,585.6L301.9,585.6z"/>
					<path class="st4" d="M306.4,582v3.9c0.4-0.9,1.1-1.3,2.2-1.3c0.7,0,1.2,0.2,1.6,0.6c0.4,0.4,0.6,1,0.6,1.6v4.7h-1.1v-4.4
						c0-0.5-0.1-0.9-0.4-1.1c-0.3-0.3-0.6-0.4-1.1-0.4s-0.9,0.2-1.3,0.6c-0.4,0.4-0.6,0.9-0.6,1.7v3.7h-1.1V582H306.4z"/>
					<path class="st4" d="M315.7,591.6c-1,0-1.9-0.3-2.5-1c-0.6-0.6-1-1.5-1-2.6s0.3-1.9,0.9-2.5s1.3-0.9,2.2-0.9s1.6,0.3,2.1,0.8
						s0.8,1.3,0.8,2.3c0,0.3,0,0.6-0.1,0.8h-4.7c0.1,0.7,0.3,1.2,0.8,1.6c0.4,0.4,1,0.5,1.7,0.5s1.3-0.2,1.8-0.5v1
						C317.1,591.5,316.5,591.6,315.7,591.6z M317,587.7v-0.3c0-0.6-0.2-1-0.5-1.4c-0.3-0.3-0.7-0.5-1.2-0.5s-1,0.2-1.3,0.6
						c-0.4,0.4-0.6,0.9-0.6,1.6L317,587.7L317,587.7z"/>
					<path class="st4" d="M323.1,582.4h2.4c1.1,0,1.9,0.3,2.5,0.8s0.9,1.2,0.9,2.1s-0.3,1.5-0.9,2.1c-0.6,0.5-1.4,0.8-2.4,0.8h-1.4
						v3.3h-1.1V582.4z M324.2,587.3h1.5c0.7,0,1.2-0.2,1.6-0.6c0.4-0.4,0.6-0.8,0.6-1.4s-0.2-1-0.6-1.4s-0.9-0.6-1.6-0.6h-1.4v4
						H324.2z"/>
					<path class="st4" d="M334.6,584.7h1.1v6.8h-1.1v-1.2c-0.4,0.8-1.1,1.3-2.1,1.3c-0.7,0-1.2-0.2-1.6-0.6s-0.6-0.9-0.6-1.6v-4.7
						h1.1v4.4c0,0.5,0.1,0.9,0.4,1.1c0.3,0.3,0.6,0.4,1.1,0.4s0.9-0.2,1.3-0.6c0.3-0.4,0.5-0.9,0.5-1.6L334.6,584.7L334.6,584.7z"/>
					<path class="st4" d="M337.7,591.5V582h1.1v9.5H337.7z"/>
					<path class="st4" d="M342.8,585.6c-0.4,0-0.6,0.1-0.9,0.2c-0.2,0.2-0.3,0.4-0.3,0.6c0,0.2,0,0.4,0.1,0.5s0.2,0.2,0.4,0.4
						c0.2,0.1,0.6,0.3,1.1,0.5s0.9,0.5,1.2,0.8c0.3,0.3,0.5,0.7,0.5,1.3s-0.2,1-0.6,1.3s-1,0.5-1.8,0.5s-1.4-0.1-1.9-0.4v-1
						c0.6,0.4,1.3,0.5,1.9,0.5c0.4,0,0.7-0.1,0.9-0.2s0.3-0.4,0.3-0.7s-0.1-0.5-0.4-0.7c-0.2-0.2-0.6-0.4-1.2-0.6
						c-0.5-0.2-1-0.5-1.3-0.8s-0.5-0.7-0.5-1.2s0.2-1,0.6-1.3s1-0.5,1.7-0.5s1.2,0.1,1.7,0.3v1C344.1,585.7,343.6,585.6,342.8,585.6
						z"/>
					<path class="st4" d="M349.4,591.6c-1,0-1.9-0.3-2.5-1c-0.6-0.6-1-1.5-1-2.6s0.3-1.9,0.9-2.5s1.3-0.9,2.2-0.9s1.6,0.3,2.1,0.8
						s0.8,1.3,0.8,2.3c0,0.3,0,0.6-0.1,0.8h-4.7c0.1,0.7,0.3,1.2,0.8,1.6c0.4,0.4,1,0.5,1.7,0.5s1.3-0.2,1.8-0.5v1
						C350.8,591.5,350.2,591.6,349.4,591.6z M350.7,587.7v-0.3c0-0.6-0.2-1-0.5-1.4c-0.3-0.3-0.7-0.5-1.2-0.5s-1,0.2-1.3,0.6
						c-0.4,0.4-0.6,0.9-0.6,1.6L350.7,587.7L350.7,587.7z"/>
					<path class="st4" d="M354.5,582v3.7c0.5-0.8,1.2-1.1,2.1-1.1s1.6,0.3,2.1,1s0.8,1.5,0.8,2.5s-0.3,1.9-0.8,2.5s-1.2,1-2.1,1
						s-1.6-0.4-2.1-1.1v1h-1.1V582H354.5z M354.5,588.1c0,0.9,0.2,1.5,0.6,2c0.4,0.4,0.9,0.6,1.4,0.6c0.6,0,1-0.2,1.4-0.7
						s0.5-1.1,0.5-1.9s-0.2-1.4-0.6-1.9s-0.8-0.7-1.4-0.7s-1,0.2-1.4,0.6C354.7,586.6,354.5,587.2,354.5,588.1z"/>
					<path class="st4" d="M363.3,584.6c1.7,0,2.6,0.9,2.6,2.6v4.3h-1.1v-0.8c-0.4,0.6-1,0.9-1.9,0.9c-0.6,0-1.2-0.2-1.5-0.6
						c-0.4-0.4-0.6-0.9-0.6-1.5s0.2-1.1,0.7-1.5s1.2-0.5,2-0.5h1.2v-0.4c0-0.5-0.1-0.9-0.4-1.2s-0.7-0.4-1.3-0.4
						c-0.7,0-1.3,0.2-1.8,0.6V585C361.8,584.7,362.4,584.6,363.3,584.6z M364.8,588.4h-1.2c-0.6,0-1,0.1-1.3,0.3s-0.4,0.5-0.4,0.9
						s0.1,0.6,0.3,0.8c0.2,0.2,0.6,0.3,1,0.3s0.8-0.1,1.1-0.4s0.4-0.6,0.4-1v-0.9H364.8z"/>
					<path class="st4" d="M368.8,584.7v1.2c0.4-0.9,1.1-1.3,2.2-1.3c0.7,0,1.2,0.2,1.6,0.6c0.4,0.4,0.6,0.9,0.6,1.6v4.7h-1.1v-4.4
						c0-0.5-0.1-0.9-0.4-1.2s-0.6-0.4-1.1-0.4s-0.9,0.2-1.3,0.6c-0.4,0.4-0.6,0.9-0.6,1.6v3.7h-1.1v-6.8h1.2V584.7z"/>
					<path class="st4" d="M379.7,582h1.1v9.5h-1.1v-1c-0.5,0.7-1.2,1.1-2.1,1.1s-1.6-0.3-2.1-1s-0.8-1.5-0.8-2.5s0.3-1.9,0.8-2.5
						c0.5-0.7,1.3-1,2.1-1s1.6,0.4,2.1,1.1V582z M375.7,588.1c0,0.8,0.2,1.4,0.5,1.9s0.8,0.7,1.4,0.7s1-0.2,1.4-0.6
						c0.4-0.4,0.6-1.1,0.6-2s-0.2-1.5-0.6-1.9s-0.9-0.6-1.4-0.6s-1,0.2-1.3,0.7C375.9,586.7,375.7,587.3,375.7,588.1z"/>
				</g>
				<g class="st3">
					<path class="st4" d="M192.7,606.1c0,1-0.3,1.9-0.9,2.5c-0.6,0.7-1.4,1-2.4,1s-1.8-0.3-2.3-1c-0.6-0.7-0.9-1.5-0.9-2.5
						s0.3-1.9,0.9-2.5c0.6-0.7,1.4-1,2.4-1s1.8,0.3,2.3,1C192.4,604.3,192.7,605.1,192.7,606.1z M191.5,606.1c0-0.7-0.2-1.4-0.5-1.8
						c-0.4-0.5-0.9-0.7-1.6-0.7c-0.7,0-1.2,0.3-1.6,0.8c-0.4,0.5-0.6,1.1-0.6,1.8s0.2,1.3,0.6,1.8c0.4,0.5,0.9,0.7,1.6,0.7
						s1.2-0.2,1.5-0.7C191.4,607.5,191.5,606.9,191.5,606.1z"/>
					<path class="st4" d="M196,609.5l-2.4-6.8h1.1l1.9,6c0.1-0.4,0.4-1.4,1-3.1l1-2.9h1.1l-2.4,6.8H196z"/>
					<path class="st4" d="M204.1,609.6c-1,0-1.9-0.3-2.5-1c-0.6-0.6-1-1.5-1-2.6s0.3-1.9,0.9-2.5s1.3-0.9,2.2-0.9s1.6,0.3,2.1,0.8
						s0.8,1.3,0.8,2.3c0,0.3,0,0.6-0.1,0.8h-4.7c0.1,0.7,0.3,1.2,0.8,1.6c0.4,0.4,1,0.5,1.7,0.5s1.3-0.2,1.8-0.5v1
						C205.5,609.5,204.9,609.6,204.1,609.6z M205.4,605.7v-0.3c0-0.6-0.2-1-0.5-1.4c-0.3-0.3-0.7-0.5-1.2-0.5s-1,0.2-1.3,0.6
						c-0.4,0.4-0.6,0.9-0.6,1.6L205.4,605.7L205.4,605.7z"/>
					<path class="st4" d="M209.1,602.7v1.2c0.4-0.8,1-1.3,1.9-1.3c0.2,0,0.3,0,0.4,0v1.1c-0.2-0.1-0.4-0.1-0.6-0.1
						c-0.5,0-0.9,0.2-1.2,0.7c-0.3,0.4-0.5,0.9-0.5,1.5v3.7H208v-6.8L209.1,602.7L209.1,602.7z"/>
					<path class="st4" d="M214.5,603.6c-0.4,0-0.6,0.1-0.9,0.2c-0.2,0.2-0.3,0.4-0.3,0.6c0,0.2,0,0.4,0.1,0.5s0.2,0.2,0.4,0.4
						c0.2,0.1,0.6,0.3,1.1,0.5s0.9,0.5,1.2,0.8s0.5,0.7,0.5,1.3s-0.2,1-0.6,1.3c-0.4,0.3-1,0.5-1.8,0.5s-1.4-0.1-1.9-0.4v-1
						c0.6,0.4,1.3,0.5,1.9,0.5c0.4,0,0.7-0.1,0.9-0.2s0.3-0.4,0.3-0.7s-0.1-0.5-0.4-0.7c-0.2-0.2-0.6-0.4-1.2-0.6
						c-0.5-0.2-1-0.5-1.3-0.8s-0.5-0.7-0.5-1.2s0.2-1,0.6-1.3c0.4-0.3,1-0.5,1.7-0.5s1.2,0.1,1.7,0.3v1
						C215.8,603.7,215.2,603.6,214.5,603.6z"/>
					<path class="st4" d="M221.1,609.6c-1,0-1.9-0.3-2.5-1c-0.6-0.6-1-1.5-1-2.6s0.3-1.9,0.9-2.5c0.6-0.6,1.3-0.9,2.2-0.9
						s1.6,0.3,2.1,0.8s0.8,1.3,0.8,2.3c0,0.3,0,0.6-0.1,0.8h-4.7c0.1,0.7,0.3,1.2,0.8,1.6c0.4,0.4,1,0.5,1.7,0.5s1.3-0.2,1.8-0.5v1
						C222.5,609.5,221.9,609.6,221.1,609.6z M222.4,605.7v-0.3c0-0.6-0.2-1-0.5-1.4c-0.3-0.3-0.7-0.5-1.2-0.5s-1,0.2-1.3,0.6
						s-0.6,0.9-0.6,1.6L222.4,605.7L222.4,605.7z"/>
					<path class="st4" d="M228.1,609.6c-1,0-1.9-0.3-2.5-1c-0.6-0.6-1-1.5-1-2.6s0.3-1.9,0.9-2.5c0.6-0.6,1.3-0.9,2.2-0.9
						s1.6,0.3,2.1,0.8s0.8,1.3,0.8,2.3c0,0.3,0,0.6-0.1,0.8h-4.7c0.1,0.7,0.3,1.2,0.8,1.6c0.4,0.4,1,0.5,1.7,0.5s1.3-0.2,1.8-0.5v1
						C229.6,609.5,228.9,609.6,228.1,609.6z M229.5,605.7v-0.3c0-0.6-0.2-1-0.5-1.4c-0.3-0.3-0.7-0.5-1.2-0.5s-1,0.2-1.3,0.6
						s-0.6,0.9-0.6,1.6L229.5,605.7L229.5,605.7z"/>
					<path class="st4" d="M234.2,603.6c-0.4,0-0.6,0.1-0.9,0.2c-0.2,0.2-0.3,0.4-0.3,0.6c0,0.2,0,0.4,0.1,0.5s0.2,0.2,0.4,0.4
						c0.2,0.1,0.6,0.3,1.1,0.5s0.9,0.5,1.2,0.8s0.5,0.7,0.5,1.3s-0.2,1-0.6,1.3c-0.4,0.3-1,0.5-1.8,0.5s-1.4-0.1-1.9-0.4v-1
						c0.6,0.4,1.3,0.5,1.9,0.5c0.4,0,0.7-0.1,0.9-0.2s0.3-0.4,0.3-0.7s-0.1-0.5-0.4-0.7c-0.2-0.2-0.6-0.4-1.2-0.6
						c-0.5-0.2-1-0.5-1.3-0.8s-0.5-0.7-0.5-1.2s0.2-1,0.6-1.3c0.4-0.3,1-0.5,1.7-0.5s1.2,0.1,1.7,0.3v1
						C235.5,603.7,234.9,603.6,234.2,603.6z"/>
					<path class="st4" d="M241.1,611.9c-0.2,0-0.4,0-0.6-0.1v-1c0.1,0,0.3,0.1,0.5,0.1c0.9,0,1.6-0.5,1.9-1.6l-2.8-6.7h1.2l2.1,5.4
						c0.1-0.3,0.7-2,1.9-5.4h1.1l-2.5,6.7c-0.4,0.9-0.8,1.6-1.2,2S241.7,611.9,241.1,611.9z"/>
					<path class="st4" d="M253.7,606.1c0,1-0.3,1.9-0.9,2.5c-0.6,0.7-1.4,1-2.4,1s-1.8-0.3-2.3-1c-0.6-0.7-0.9-1.5-0.9-2.5
						s0.3-1.9,0.9-2.5c0.6-0.7,1.4-1,2.4-1s1.8,0.3,2.3,1C253.4,604.3,253.7,605.1,253.7,606.1z M252.6,606.1c0-0.7-0.2-1.4-0.5-1.8
						c-0.4-0.5-0.9-0.7-1.6-0.7c-0.7,0-1.2,0.3-1.6,0.8c-0.4,0.5-0.6,1.1-0.6,1.8s0.2,1.3,0.6,1.8c0.4,0.5,0.9,0.7,1.6,0.7
						s1.2-0.2,1.5-0.7C252.4,607.5,252.6,606.9,252.6,606.1z"/>
					<path class="st4" d="M259.5,602.7h1.1v6.8h-1.1v-1.2c-0.4,0.8-1.1,1.3-2.1,1.3c-0.7,0-1.2-0.2-1.6-0.6s-0.6-0.9-0.6-1.6v-4.7
						h1.1v4.4c0,0.5,0.1,0.9,0.4,1.1c0.3,0.3,0.6,0.4,1.1,0.4s0.9-0.2,1.3-0.6c0.3-0.4,0.5-0.9,0.5-1.6L259.5,602.7L259.5,602.7z"/>
					<path class="st4" d="M263.6,602.7v1.2c0.4-0.8,1-1.3,1.9-1.3c0.2,0,0.3,0,0.4,0v1.1c-0.2-0.1-0.4-0.1-0.6-0.1
						c-0.5,0-0.9,0.2-1.2,0.7c-0.3,0.4-0.5,0.9-0.5,1.5v3.7h-1.1v-6.8L263.6,602.7L263.6,602.7z"/>
					<path class="st4" d="M271.3,600v3.9c0.4-0.9,1.1-1.3,2.2-1.3c0.7,0,1.2,0.2,1.6,0.6c0.4,0.4,0.6,1,0.6,1.6v4.7h-1.1v-4.4
						c0-0.5-0.1-0.9-0.4-1.1c-0.3-0.3-0.6-0.4-1.1-0.4s-0.9,0.2-1.3,0.6c-0.4,0.4-0.6,0.9-0.6,1.7v3.7h-1.1V600H271.3z"/>
					<path class="st4" d="M280.6,609.6c-1,0-1.9-0.3-2.5-1c-0.6-0.6-1-1.5-1-2.6s0.3-1.9,0.9-2.5s1.3-0.9,2.2-0.9s1.6,0.3,2.1,0.8
						s0.8,1.3,0.8,2.3c0,0.3,0,0.6-0.1,0.8h-4.7c0.1,0.7,0.3,1.2,0.8,1.6c0.4,0.4,1,0.5,1.7,0.5s1.3-0.2,1.8-0.5v1
						C282,609.5,281.3,609.6,280.6,609.6z M281.9,605.7v-0.3c0-0.6-0.2-1-0.5-1.4c-0.3-0.3-0.7-0.5-1.2-0.5s-1,0.2-1.3,0.6
						c-0.4,0.4-0.6,0.9-0.6,1.6L281.9,605.7L281.9,605.7z"/>
					<path class="st4" d="M286.7,602.6c1.7,0,2.6,0.9,2.6,2.6v4.3h-1.1v-0.8c-0.4,0.6-1,0.9-1.9,0.9c-0.6,0-1.2-0.2-1.5-0.6
						c-0.4-0.4-0.6-0.9-0.6-1.5s0.2-1.1,0.8-1.5c0.5-0.4,1.2-0.5,2-0.5h1.2v-0.4c0-0.5-0.1-0.9-0.4-1.2c-0.2-0.3-0.7-0.4-1.3-0.4
						s-1.3,0.2-1.8,0.6V603C285.2,602.7,285.9,602.6,286.7,602.6z M288.2,606.4H287c-0.6,0-1,0.1-1.3,0.3s-0.4,0.5-0.4,0.9
						s0.1,0.6,0.3,0.8c0.2,0.2,0.6,0.3,1,0.3s0.8-0.1,1.1-0.4s0.4-0.6,0.4-1v-0.9H288.2z"/>
					<path class="st4" d="M291.3,609.5V600h1.1v9.5H291.3z"/>
					<path class="st4" d="M295.8,603.6v4c0,0.7,0.3,1.1,1,1.1c0.4,0,0.7-0.1,0.9-0.3v1c-0.3,0.2-0.6,0.2-1,0.2c-1.3,0-2-0.7-2-2.1
						v-4h-1.1v-0.9h1.1V601h1.1v1.7h1.9v0.9L295.8,603.6L295.8,603.6z"/>
					<path class="st4" d="M300.4,600v3.9c0.4-0.9,1.1-1.3,2.2-1.3c0.7,0,1.2,0.2,1.6,0.6c0.4,0.4,0.6,1,0.6,1.6v4.7h-1.1v-4.4
						c0-0.5-0.1-0.9-0.4-1.1c-0.3-0.3-0.6-0.4-1.1-0.4s-0.9,0.2-1.3,0.6c-0.4,0.4-0.6,0.9-0.6,1.7v3.7h-1.1V600H300.4z"/>
					<path class="st4" d="M311.4,609.5l-2.1-6.8h1.1c0.9,3,1.4,5,1.6,5.8c0.1-0.4,0.6-2.4,1.6-5.8h1.1l1.7,5.8
						c0.1-0.5,0.7-2.4,1.7-5.8h1.1l-2.2,6.8h-1.3l-0.6-2.2l-0.9-3.4c-0.1,0.4-0.6,2.3-1.5,5.7L311.4,609.5L311.4,609.5z"/>
					<path class="st4" d="M321.7,600v3.9c0.4-0.9,1.1-1.3,2.2-1.3c0.7,0,1.2,0.2,1.6,0.6c0.4,0.4,0.6,1,0.6,1.6v4.7H325v-4.4
						c0-0.5-0.1-0.9-0.4-1.1c-0.3-0.3-0.6-0.4-1.1-0.4s-0.9,0.2-1.3,0.6c-0.4,0.4-0.6,0.9-0.6,1.7v3.7h-1.1V600H321.7z"/>
					<path class="st4" d="M328,601c-0.1-0.1-0.2-0.3-0.2-0.5s0.1-0.4,0.2-0.5s0.3-0.2,0.5-0.2s0.4,0.1,0.5,0.2
						c0.1,0.1,0.2,0.3,0.2,0.5s-0.1,0.4-0.2,0.5s-0.3,0.2-0.5,0.2S328.1,601.2,328,601z M327.9,609.5v-6.8h1.1v6.8H327.9z"/>
					<path class="st4" d="M331.1,609.5V600h1.1v9.5H331.1z"/>
					<path class="st4" d="M337.2,609.6c-1,0-1.9-0.3-2.5-1c-0.6-0.6-1-1.5-1-2.6s0.3-1.9,0.9-2.5s1.3-0.9,2.2-0.9s1.6,0.3,2.1,0.8
						s0.8,1.3,0.8,2.3c0,0.3,0,0.6-0.1,0.8h-4.7c0.1,0.7,0.3,1.2,0.8,1.6c0.4,0.4,1,0.5,1.7,0.5s1.3-0.2,1.8-0.5v1
						C338.6,609.5,338,609.6,337.2,609.6z M338.5,605.7v-0.3c0-0.6-0.2-1-0.5-1.4c-0.3-0.3-0.7-0.5-1.2-0.5s-1,0.2-1.3,0.6
						s-0.6,0.9-0.6,1.6L338.5,605.7L338.5,605.7z"/>
					<path class="st4" d="M345.6,602.7v1.2c0.4-0.8,1-1.3,1.9-1.3c0.2,0,0.3,0,0.4,0v1.1c-0.2-0.1-0.4-0.1-0.6-0.1
						c-0.5,0-0.9,0.2-1.2,0.7c-0.3,0.4-0.5,0.9-0.5,1.5v3.7h-1.1v-6.8L345.6,602.7L345.6,602.7z"/>
					<path class="st4" d="M352,609.6c-1,0-1.9-0.3-2.5-1c-0.6-0.6-1-1.5-1-2.6s0.3-1.9,0.9-2.5s1.3-0.9,2.2-0.9s1.6,0.3,2.1,0.8
						s0.8,1.3,0.8,2.3c0,0.3,0,0.6-0.1,0.8h-4.7c0.1,0.7,0.3,1.2,0.8,1.6c0.4,0.4,1,0.5,1.7,0.5s1.3-0.2,1.8-0.5v1
						C353.4,609.5,352.7,609.6,352,609.6z M353.3,605.7v-0.3c0-0.6-0.2-1-0.5-1.4c-0.3-0.3-0.7-0.5-1.2-0.5s-1,0.2-1.3,0.6
						c-0.4,0.4-0.6,0.9-0.6,1.6L353.3,605.7L353.3,605.7z"/>
					<path class="st4" d="M358,603.6c-0.4,0-0.6,0.1-0.9,0.2c-0.2,0.2-0.3,0.4-0.3,0.6c0,0.2,0,0.4,0.1,0.5s0.2,0.2,0.4,0.4
						c0.2,0.1,0.6,0.3,1.1,0.5s0.9,0.5,1.2,0.8c0.3,0.3,0.5,0.7,0.5,1.3s-0.2,1-0.6,1.3s-1,0.5-1.8,0.5s-1.4-0.1-1.9-0.4v-1
						c0.6,0.4,1.3,0.5,1.9,0.5c0.4,0,0.7-0.1,0.9-0.2s0.3-0.4,0.3-0.7s-0.1-0.5-0.4-0.7c-0.2-0.2-0.6-0.4-1.2-0.6
						c-0.5-0.2-1-0.5-1.3-0.8s-0.5-0.7-0.5-1.2s0.2-1,0.6-1.3s1-0.5,1.7-0.5s1.2,0.1,1.7,0.3v1C359.3,603.7,358.7,603.6,358,603.6z"
						/>
					<path class="st4" d="M363,603.6v4c0,0.7,0.3,1.1,1,1.1c0.4,0,0.7-0.1,0.9-0.3v1c-0.3,0.2-0.6,0.2-1,0.2c-1.4,0-2-0.7-2-2.1v-4
						h-1.1v-0.9h1.1V601h1.1v1.7h1.9v0.9L363,603.6L363,603.6z"/>
					<path class="st4" d="M366.6,601c-0.1-0.1-0.2-0.3-0.2-0.5s0.1-0.4,0.2-0.5s0.3-0.2,0.5-0.2s0.4,0.1,0.5,0.2
						c0.1,0.1,0.2,0.3,0.2,0.5s-0.1,0.4-0.2,0.5s-0.3,0.2-0.5,0.2S366.7,601.2,366.6,601z M366.6,609.5v-6.8h1.1v6.8H366.6z"/>
					<path class="st4" d="M370.7,602.7v1.2c0.4-0.9,1.1-1.3,2.2-1.3c0.7,0,1.2,0.2,1.6,0.6c0.4,0.4,0.6,0.9,0.6,1.6v4.7H374v-4.4
						c0-0.5-0.1-0.9-0.4-1.2s-0.6-0.4-1.1-0.4s-0.9,0.2-1.3,0.6c-0.4,0.4-0.6,0.9-0.6,1.6v3.7h-1.1v-6.8h1.2V602.7z"/>
					<path class="st4" d="M381.4,602.7h1.1v6.3c0,1-0.3,1.8-0.9,2.4c-0.6,0.5-1.3,0.8-2.2,0.8c-0.9,0-1.6-0.1-2.2-0.4v-1.1
						c0.6,0.3,1.2,0.5,1.9,0.5c1.5,0,2.2-0.7,2.2-2.2v-0.8c-0.5,0.8-1.1,1.2-1.9,1.2s-1.5-0.3-2.1-0.9c-0.6-0.6-0.8-1.4-0.8-2.4
						s0.3-1.9,0.8-2.5c0.5-0.7,1.2-1,2.1-1s1.5,0.4,2,1.2V602.7z M377.7,606.1c0,0.8,0.2,1.3,0.6,1.7s0.8,0.6,1.3,0.6
						s0.9-0.2,1.3-0.6s0.6-1,0.6-1.8s-0.2-1.4-0.6-1.9s-0.8-0.6-1.4-0.6c-0.5,0-1,0.2-1.3,0.7S377.7,605.3,377.7,606.1z"/>
					<path class="st4" d="M385,609.6c-0.2,0-0.4-0.1-0.6-0.2c-0.1-0.2-0.2-0.3-0.2-0.6s0.1-0.4,0.2-0.6c0.2-0.2,0.3-0.2,0.6-0.2
						c0.2,0,0.4,0.1,0.6,0.2c0.2,0.2,0.2,0.3,0.2,0.6s-0.1,0.4-0.2,0.6C385.5,609.6,385.3,609.6,385,609.6z M384.5,606.8v-6.3h1v6.3
						H384.5z"/>
				</g>
			</g>
		</g>
	</g>
	<g id="the-story">
		<line id="the-story-bar" class="st6" x1="106.9" y1="637" x2="106.9" y2="781"/>
		<polygon id="the-story-arrow" class="st7" points="107.2,744.4 107.2,673.6 71.9,709 		"/>
		<g id="the-story-time">
			<g class="st3">
				<path class="st4" d="M170,715.1c0.7,0,1.2-0.2,1.6-0.7s0.6-1.1,0.7-1.9c-0.7,0.5-1.4,0.7-2.2,0.7c-1,0-1.9-0.3-2.6-1
					c-0.7-0.7-1-1.6-1-2.7s0.4-2,1.1-2.7c0.8-0.7,1.7-1,2.8-1c0.8,0,1.5,0.2,2.1,0.5s1,0.7,1.4,1.3c0.6,1.1,0.9,2.4,0.9,4
					c0,1-0.1,1.9-0.4,2.7c-0.3,0.8-0.6,1.4-1,1.8c-0.9,0.9-1.9,1.3-3.2,1.3c-0.5,0-1-0.1-1.5-0.2c-0.5-0.2-0.8-0.3-1.1-0.5
					c-0.2-0.2-0.5-0.4-0.8-0.6l1.2-1.8c0.1,0.1,0.2,0.1,0.3,0.2c0.1,0.1,0.4,0.2,0.7,0.4C169.4,715,169.7,715.1,170,715.1z
					 M170.3,711c0.5,0,0.9-0.1,1.2-0.4c0.3-0.3,0.5-0.7,0.5-1.1c0-0.5-0.2-0.9-0.5-1.2s-0.7-0.5-1.2-0.5s-0.9,0.2-1.2,0.5
					s-0.5,0.7-0.5,1.2s0.1,0.9,0.4,1.2S169.8,711,170.3,711z"/>
				<path class="st4" d="M177.1,712.6c-0.3-0.3-0.4-0.6-0.4-1s0.1-0.7,0.4-1c0.3-0.3,0.6-0.4,1-0.4s0.7,0.1,1,0.4
					c0.3,0.3,0.4,0.6,0.4,1s-0.1,0.7-0.4,1c-0.3,0.3-0.6,0.4-1,0.4S177.4,712.9,177.1,712.6z M177.1,716.8c-0.3-0.3-0.4-0.6-0.4-1
					s0.1-0.7,0.4-1c0.3-0.3,0.6-0.4,1-0.4s0.7,0.1,1,0.4c0.3,0.3,0.4,0.6,0.4,1s-0.1,0.7-0.4,1c-0.3,0.3-0.6,0.4-1,0.4
					S177.4,717.1,177.1,716.8z"/>
				<path class="st4" d="M181.1,705.9h4.5v11.2h-2.4V708h-2.1V705.9z"/>
				<path class="st4" d="M195.2,705.9v2.2h-4.4v1.9c0.3-0.1,0.7-0.1,1.1-0.1c1.1,0,2,0.3,2.8,1s1.2,1.5,1.2,2.6s-0.4,2-1.2,2.7
					s-1.8,1.1-3,1.1c-1.5,0-2.8-0.6-3.8-1.7l1.3-1.8c0.1,0.1,0.2,0.2,0.4,0.4c0.2,0.1,0.5,0.3,0.9,0.6s0.9,0.3,1.3,0.3
					s0.8-0.1,1.1-0.4c0.3-0.3,0.5-0.6,0.5-1.1s-0.2-0.9-0.5-1.2c-0.4-0.3-0.8-0.4-1.4-0.4s-1.2,0.2-2,0.6l-1-1.1V706L195.2,705.9
					L195.2,705.9z"/>
				<path class="st4" d="M209.9,706.9c0.8,0.7,1.2,1.7,1.2,3.1c0,1.4-0.4,2.4-1.2,3s-2,1-3.7,1h-1.5v3.1h-2.5v-11.2h4
					C207.9,705.9,209.1,706.2,209.9,706.9z M208.1,711.3c0.3-0.3,0.4-0.8,0.4-1.5s-0.2-1.1-0.6-1.4c-0.4-0.3-1-0.4-1.8-0.4h-1.4v3.8
					h1.7C207.2,711.8,207.8,711.6,208.1,711.3z"/>
				<path class="st4" d="M212.1,716.8c-0.3-0.3-0.4-0.6-0.4-1s0.1-0.7,0.4-1c0.3-0.3,0.6-0.4,1-0.4s0.7,0.1,1,0.4
					c0.3,0.3,0.4,0.6,0.4,1s-0.1,0.7-0.4,1c-0.3,0.3-0.6,0.4-1,0.4S212.4,717.1,212.1,716.8z"/>
				<path class="st4" d="M226.8,710.1l-3,6.1h-1.5l-3-6.1v7h-2.5v-11.2h3.4l2.9,6.1l2.9-6.1h3.4v11.2h-2.5L226.8,710.1L226.8,710.1z
					"/>
				<path class="st4" d="M232,716.8c-0.3-0.3-0.4-0.6-0.4-1s0.1-0.7,0.4-1c0.3-0.3,0.6-0.4,1-0.4s0.7,0.1,1,0.4
					c0.3,0.3,0.4,0.6,0.4,1s-0.1,0.7-0.4,1c-0.3,0.3-0.6,0.4-1,0.4S232.3,717.1,232,716.8z"/>
			</g>
		</g>
		<g id="the-story-badge">
			<rect id="the-story-square" x="-185.6" y="637" class="st7" width="227.5" height="144"/>
			<g id="the-story-title">
				<g class="st3">
					<path class="st4" d="M-118.3,667.2v9h-2.5v-9h-3.2V665h8.8v2.2H-118.3z"/>
					<path class="st4" d="M-106.4,665h2.5v11.2h-2.5v-4.4h-4.4v4.4h-2.5V665h2.5v4.7h4.4V665z"/>
					<path class="st4" d="M-93.1,665v2.2h-5.6v2.3h5v2.1h-5v2.3h5.7v2.2h-8.2V665H-93.1z"/>
					<path class="st4" d="M-83.8,667.2c-0.2,0.2-0.4,0.5-0.4,0.8s0.1,0.6,0.4,0.8s1,0.4,2,0.7c1.1,0.3,1.9,0.7,2.5,1.2
						s0.9,1.3,0.9,2.3s-0.4,1.8-1.1,2.4c-0.8,0.6-1.7,0.9-3,0.9c-1.8,0-3.4-0.7-4.8-2l1.5-1.8c1.2,1.1,2.3,1.6,3.3,1.6
						c0.5,0,0.8-0.1,1.1-0.3s0.4-0.5,0.4-0.8s-0.1-0.6-0.4-0.8s-0.8-0.4-1.6-0.6c-1.3-0.3-2.3-0.7-2.9-1.2s-0.9-1.3-0.9-2.3
						c0-1.1,0.4-1.9,1.1-2.5c0.8-0.6,1.7-0.9,2.9-0.9c0.7,0,1.5,0.1,2.2,0.4s1.4,0.6,2,1.1l-1.3,1.8c-1-0.7-2-1.1-3-1.1
						C-83.3,666.9-83.6,667-83.8,667.2z"/>
					<path class="st4" d="M-71.6,667.2v9h-2.5v-9h-3.2V665h8.8v2.2H-71.6z"/>
					<path class="st4" d="M-57.5,674.7c-1.1,1.1-2.5,1.7-4.2,1.7s-3-0.6-4.2-1.7c-1.1-1.1-1.7-2.5-1.7-4.1s0.6-3,1.7-4.1
						s2.5-1.7,4.2-1.7s3,0.6,4.2,1.7c1.1,1.1,1.7,2.5,1.7,4.1S-56.4,673.5-57.5,674.7z M-58.3,670.5c0-1-0.3-1.8-1-2.6
						c-0.6-0.7-1.4-1.1-2.4-1.1c-0.9,0-1.7,0.4-2.4,1.1c-0.6,0.7-1,1.6-1,2.6s0.3,1.8,1,2.5c0.6,0.7,1.4,1,2.4,1
						c0.9,0,1.7-0.3,2.4-1S-58.3,671.5-58.3,670.5z"/>
					<path class="st4" d="M-44.6,668.7c0,1.8-0.7,2.9-2.1,3.5l2.8,4H-47l-2.5-3.6h-1.7v3.6h-2.5V665h4.2c1.7,0,3,0.3,3.7,0.9
						C-45,666.5-44.6,667.4-44.6,668.7z M-47.6,670.1c0.3-0.3,0.5-0.7,0.5-1.3s-0.2-1-0.5-1.2s-0.9-0.3-1.7-0.3h-1.9v3.3h1.8
						C-48.5,670.5-47.9,670.3-47.6,670.1z"/>
					<path class="st4" d="M-37.5,676.2H-40v-4.4l-3.9-6.8h2.7l2.4,4.2l2.4-4.2h2.7l-3.9,6.8L-37.5,676.2L-37.5,676.2z"/>
					<path class="st4" d="M-33.4,675.9c-0.3-0.3-0.4-0.6-0.4-1s0.1-0.7,0.4-1s0.6-0.4,1-0.4s0.7,0.1,1,0.4s0.4,0.6,0.4,1
						s-0.1,0.7-0.4,1s-0.6,0.4-1,0.4C-32.8,676.3-33.1,676.2-33.4,675.9z"/>
					<path class="st4" d="M-28.8,675.9c-0.3-0.3-0.4-0.6-0.4-1s0.1-0.7,0.4-1s0.6-0.4,1-0.4s0.7,0.1,1,0.4s0.4,0.6,0.4,1
						s-0.1,0.7-0.4,1s-0.6,0.4-1,0.4C-28.2,676.3-28.5,676.2-28.8,675.9z"/>
					<path class="st4" d="M-24.2,675.9c-0.3-0.3-0.4-0.6-0.4-1s0.1-0.7,0.4-1s0.6-0.4,1-0.4s0.7,0.1,1,0.4s0.4,0.6,0.4,1
						s-0.1,0.7-0.4,1s-0.6,0.4-1,0.4C-23.6,676.3-23.9,676.2-24.2,675.9z"/>
				</g>
			</g>
			<g id="the-story-details">
				<path id="the-story-icon" class="st4" d="M-52.5,715.6c-0.1,0.2-0.3,0.3-0.6,0.3h-0.1c-0.2,0-0.4-0.1-0.6-0.2L-72,700.5
					l-18.2,15.2c-0.2,0.1-0.4,0.2-0.6,0.2s-0.4-0.1-0.6-0.3l-1.6-1.9c-0.3-0.3-0.2-0.9,0.1-1.2l18.9-15.8c1.1-0.9,2.9-0.9,4,0
					l6.4,5.4V697c0-0.5,0.4-0.8,0.8-0.8h5.1c0.5,0,0.8,0.4,0.8,0.8v10.7l5.8,4.8c0.3,0.3,0.4,0.8,0.1,1.2L-52.5,715.6z M-56.7,728.1
					c0,0.9-0.8,1.7-1.7,1.7h-10.1v-10.1h-6.7v10.1h-10.1c-0.9,0-1.7-0.8-1.7-1.7v-12.6c0-0.1,0-0.1,0-0.2l15.1-12.5l15.1,12.5
					c0,0.1,0,0.1,0,0.2L-56.7,728.1L-56.7,728.1z"/>
				<rect id="XMLID_2_" x="-142.3" y="747.1" class="st5" width="140.9" height="15.9"/>
				<g class="st3">
					<path class="st4" d="M-124.6,748.4c-1,0-1.8,0.3-2.5,1s-1,1.5-1,2.6s0.3,2,1,2.6s1.5,1,2.6,1c0.9,0,1.6-0.2,2.2-0.7v1.1
						c-0.6,0.4-1.3,0.6-2.3,0.6c-1.4,0-2.5-0.4-3.3-1.3c-0.9-0.8-1.3-2-1.3-3.4s0.4-2.5,1.3-3.4c0.9-0.9,2-1.3,3.3-1.3
						c0.9,0,1.7,0.2,2.3,0.5v1.1c-0.4-0.2-0.8-0.4-1.1-0.4S-124.1,748.4-124.6,748.4z"/>
					<path class="st4" d="M-114.7,753.2c0,1-0.3,1.9-0.9,2.5c-0.6,0.7-1.4,1-2.4,1s-1.8-0.3-2.3-1c-0.6-0.7-0.9-1.5-0.9-2.5
						s0.3-1.9,0.9-2.5c0.6-0.7,1.4-1,2.4-1s1.8,0.3,2.3,1C-115,751.4-114.7,752.2-114.7,753.2z M-115.8,753.2c0-0.7-0.2-1.4-0.5-1.8
						c-0.4-0.5-0.9-0.7-1.6-0.7s-1.2,0.3-1.6,0.8s-0.6,1.1-0.6,1.8s0.2,1.3,0.6,1.8s0.9,0.7,1.6,0.7s1.2-0.2,1.5-0.7
						C-116,754.6-115.8,754-115.8,753.2z"/>
					<path class="st4" d="M-112.1,749.8v1.2c0.4-0.9,1.1-1.3,2.2-1.3c0.7,0,1.2,0.2,1.6,0.6c0.4,0.4,0.6,0.9,0.6,1.6v4.7h-1.1v-4.4
						c0-0.5-0.1-0.9-0.4-1.2s-0.6-0.4-1.1-0.4s-0.9,0.2-1.3,0.6c-0.4,0.4-0.6,0.9-0.6,1.6v3.7h-1.1v-6.8h1.2V749.8z"/>
					<path class="st4" d="M-104.4,750.7v4c0,0.7,0.3,1.1,1,1.1c0.4,0,0.7-0.1,0.9-0.3v1c-0.3,0.2-0.6,0.2-1,0.2c-1.4,0-2-0.7-2-2.1
						v-4h-1.1v-0.9h1.1V748h1.1v1.7h1.9v0.9L-104.4,750.7L-104.4,750.7z"/>
					<path class="st4" d="M-100.8,748.1c-0.1-0.1-0.2-0.3-0.2-0.5s0.1-0.4,0.2-0.5s0.3-0.2,0.5-0.2s0.4,0.1,0.5,0.2
						c0.1,0.1,0.2,0.3,0.2,0.5s-0.1,0.4-0.2,0.5s-0.3,0.2-0.5,0.2S-100.7,748.3-100.8,748.1z M-100.8,756.6v-6.8h1.1v6.8H-100.8z"/>
					<path class="st4" d="M-96.7,749.8v1.2c0.4-0.9,1.1-1.3,2.2-1.3c0.7,0,1.2,0.2,1.6,0.6c0.4,0.4,0.6,0.9,0.6,1.6v4.7h-1.1v-4.4
						c0-0.5-0.1-0.9-0.4-1.2s-0.6-0.4-1.1-0.4s-0.9,0.2-1.3,0.6c-0.4,0.4-0.6,0.9-0.6,1.6v3.7h-1.1v-6.8h1.2V749.8z"/>
					<path class="st4" d="M-86.2,749.8h1.1v6.8h-1.1v-1.2c-0.4,0.8-1.1,1.3-2.1,1.3c-0.7,0-1.2-0.2-1.6-0.6s-0.6-0.9-0.6-1.6v-4.7
						h1.1v4.4c0,0.5,0.1,0.9,0.4,1.1c0.3,0.3,0.6,0.4,1.1,0.4s0.9-0.2,1.3-0.6c0.3-0.4,0.5-0.9,0.5-1.6v-3.7H-86.2z"/>
					<path class="st4" d="M-80.1,756.7c-1,0-1.9-0.3-2.5-1c-0.6-0.6-1-1.5-1-2.6s0.3-1.9,0.9-2.5s1.3-0.9,2.2-0.9s1.6,0.3,2.1,0.8
						s0.8,1.3,0.8,2.3c0,0.3,0,0.6-0.1,0.8h-4.7c0.1,0.7,0.3,1.2,0.8,1.6c0.4,0.4,1,0.5,1.7,0.5s1.3-0.2,1.8-0.5v1
						C-78.7,756.6-79.3,756.7-80.1,756.7z M-78.8,752.8v-0.3c0-0.6-0.2-1-0.5-1.4c-0.3-0.3-0.7-0.5-1.2-0.5s-1,0.2-1.3,0.6
						c-0.4,0.4-0.6,0.9-0.6,1.6L-78.8,752.8L-78.8,752.8z"/>
					<path class="st4" d="M-74.1,750.7c-0.4,0-0.6,0.1-0.9,0.2c-0.2,0.2-0.3,0.4-0.3,0.6c0,0.2,0,0.4,0.1,0.5s0.2,0.2,0.4,0.4
						c0.2,0.1,0.6,0.3,1.1,0.5s0.9,0.5,1.2,0.8c0.3,0.3,0.5,0.7,0.5,1.3s-0.2,1-0.6,1.3s-1,0.5-1.8,0.5s-1.4-0.1-1.9-0.4v-1
						c0.6,0.4,1.3,0.5,1.9,0.5c0.4,0,0.7-0.1,0.9-0.2s0.3-0.4,0.3-0.7s-0.1-0.5-0.4-0.7c-0.2-0.2-0.6-0.4-1.2-0.6
						c-0.5-0.2-1-0.5-1.3-0.8s-0.5-0.7-0.5-1.2s0.2-1,0.6-1.3s1-0.5,1.7-0.5s1.2,0.1,1.7,0.3v1C-72.8,750.8-73.4,750.7-74.1,750.7z"
						/>
					<path class="st4" d="M-65.8,756.6l-2.1-6.8h1.1c0.9,3,1.4,5,1.6,5.8c0.1-0.4,0.6-2.4,1.6-5.8h1.1l1.7,5.8
						c0.1-0.5,0.7-2.4,1.7-5.8h1.1l-2.2,6.8h-1.3l-0.6-2.2L-63,751c-0.1,0.4-0.6,2.3-1.5,5.7L-65.8,756.6L-65.8,756.6z"/>
					<path class="st4" d="M-56.5,748.1c-0.1-0.1-0.2-0.3-0.2-0.5s0.1-0.4,0.2-0.5c0.1-0.1,0.3-0.2,0.5-0.2s0.4,0.1,0.5,0.2
						c0.1,0.1,0.2,0.3,0.2,0.5s-0.1,0.4-0.2,0.5c-0.1,0.1-0.3,0.2-0.5,0.2S-56.3,748.3-56.5,748.1z M-56.5,756.6v-6.8h1.1v6.8H-56.5
						z"/>
					<path class="st4" d="M-51.9,750.7v4c0,0.7,0.3,1.1,1,1.1c0.4,0,0.7-0.1,0.9-0.3v1c-0.3,0.2-0.6,0.2-1,0.2c-1.4,0-2-0.7-2-2.1
						v-4h-1.1v-0.9h1.1V748h1.1v1.7h1.9v0.9L-51.9,750.7L-51.9,750.7z"/>
					<path class="st4" d="M-47.4,747.1v3.9c0.4-0.9,1.1-1.3,2.2-1.3c0.7,0,1.2,0.2,1.6,0.6c0.4,0.4,0.6,1,0.6,1.6v4.7h-1.1v-4.4
						c0-0.5-0.1-0.9-0.4-1.1c-0.3-0.3-0.6-0.4-1.1-0.4s-0.9,0.2-1.3,0.6c-0.4,0.4-0.6,0.9-0.6,1.7v3.7h-1.1v-9.5L-47.4,747.1
						L-47.4,747.1z"/>
					<path class="st4" d="M-37.8,759c-0.2,0-0.4,0-0.6-0.1v-1c0.1,0,0.3,0.1,0.5,0.1c0.9,0,1.6-0.5,1.9-1.6l-2.8-6.7h1.2l2.1,5.4
						c0.1-0.3,0.7-2,1.9-5.4h1.1l-2.5,6.7c-0.4,0.9-0.8,1.6-1.2,2S-37.2,759-37.8,759z"/>
					<path class="st4" d="M-25.2,753.2c0,1-0.3,1.9-0.9,2.5c-0.6,0.7-1.4,1-2.4,1s-1.8-0.3-2.3-1c-0.6-0.7-0.9-1.5-0.9-2.5
						s0.3-1.9,0.9-2.5c0.6-0.7,1.4-1,2.4-1s1.8,0.3,2.3,1C-25.4,751.4-25.2,752.2-25.2,753.2z M-26.3,753.2c0-0.7-0.2-1.4-0.5-1.8
						c-0.4-0.5-0.9-0.7-1.6-0.7s-1.2,0.3-1.6,0.8s-0.6,1.1-0.6,1.8s0.2,1.3,0.6,1.8s0.9,0.7,1.6,0.7s1.2-0.2,1.5-0.7
						C-26.5,754.6-26.3,754-26.3,753.2z"/>
					<path class="st4" d="M-19.3,749.8h1.1v6.8h-1.1v-1.2c-0.4,0.8-1.1,1.3-2.1,1.3c-0.7,0-1.2-0.2-1.6-0.6s-0.6-0.9-0.6-1.6v-4.7
						h1.1v4.4c0,0.5,0.1,0.9,0.4,1.1c0.3,0.3,0.6,0.4,1.1,0.4s0.9-0.2,1.3-0.6c0.3-0.4,0.5-0.9,0.5-1.6L-19.3,749.8L-19.3,749.8z"/>
					<path class="st4" d="M-15.6,756.7c-0.2,0-0.4-0.1-0.6-0.2c-0.1-0.2-0.2-0.3-0.2-0.6s0.1-0.4,0.2-0.6c0.2-0.2,0.3-0.2,0.6-0.2
						s0.4,0.1,0.6,0.2c0.2,0.2,0.2,0.3,0.2,0.6s-0.1,0.4-0.2,0.6C-15.2,756.7-15.4,756.7-15.6,756.7z M-16.1,753.9v-6.3h1v6.3H-16.1
						z"/>
				</g>
			</g>
		</g>
	</g>
</g>
</svg>
