<?xml version="1.0" encoding="utf-8"?>
<!-- Generator: Adobe Illustrator 18.1.1, SVG Export Plug-In . SVG Version: 6.00 Build 0)  -->
<svg version="1.1" id="Layer_1" xmlns="http://www.w3.org/2000/svg" xmlns:xlink="http://www.w3.org/1999/xlink" x="0px" y="0px"
	 viewBox="0 0 81.6 44.4" enable-background="new 0 0 81.6 44.4" xml:space="preserve">
<g>
	<path fill="none" stroke="#335B7D" stroke-width="3" stroke-miterlimit="10" d="M15,35.5c0,1.9-1.6,3.4-3.4,3.4H9.6
		c-1.9,0-3.4-1.6-3.4-3.4v-25C6.2,8.6,7.7,7,9.6,7h1.9c1.9,0,3.4,1.6,3.4,3.4V35.5z"/>
	<path fill="none" stroke="#335B7D" stroke-width="3" stroke-miterlimit="10" d="M25.8,41c0,1.9-1.6,3.4-3.4,3.4h-1.9
		c-1.9,0-3.4-1.6-3.4-3.4v-36c0-1.9,1.6-3.4,3.4-3.4h1.9c1.9,0,3.4,1.6,3.4,3.4V41z"/>
	<path fill="none" stroke="#335B7D" stroke-width="3" stroke-miterlimit="10" d="M66.6,35.5c0,1.9,1.6,3.4,3.4,3.4H72
		c1.9,0,3.4-1.6,3.4-3.4v-25C75.5,8.6,73.9,7,72,7h-1.9c-1.9,0-3.4,1.6-3.4,3.4V35.5z"/>
	<path fill="none" stroke="#335B7D" stroke-width="3" stroke-miterlimit="10" d="M55.9,41c0,1.9,1.6,3.4,3.4,3.4h1.9
		c1.9,0,3.4-1.6,3.4-3.4v-36c0-1.9-1.6-3.4-3.4-3.4h-1.9c-1.9,0-3.4,1.6-3.4,3.4V41z"/>
	<rect x="27.7" y="19.1" fill="none" stroke="#335B7D" stroke-width="3" stroke-miterlimit="10" width="26.2" height="7.7"/>
	<rect x="77.4" y="19.1" fill="none" stroke="#335B7D" stroke-width="3" stroke-miterlimit="10" width="2.7" height="7.7"/>
	<rect x="1.5" y="19.1" fill="none" stroke="#335B7D" stroke-width="3" stroke-miterlimit="10" width="2.7" height="7.7"/>
</g>
</svg>
