<?xml version="1.0" encoding="utf-8"?>
<!-- Generator: Adobe Illustrator 18.1.1, SVG Export Plug-In . SVG Version: 6.00 Build 0)  -->
<svg version="1.1" id="Layer_1" xmlns="http://www.w3.org/2000/svg" xmlns:xlink="http://www.w3.org/1999/xlink" x="0px" y="0px"
	 viewBox="0 0 77.9 65.6" enable-background="new 0 0 77.9 65.6" xml:space="preserve">
<path fill-rule="evenodd" clip-rule="evenodd" fill="#FFFFFF" d="M74.2,65.6H3.7C1.6,65.6,0,64,0,62V3.6C0,1.6,1.6,0,3.7,0
	c2,0,3.7,1.6,3.7,3.6v46.2h0v8.5h66.9c2,0,3.7,1.6,3.7,3.6C77.9,64,76.3,65.6,74.2,65.6z M65.7,54.7h-7.3c-2,0-3.7-1.6-3.7-3.6V25.5
	c0-2,1.6-3.6,3.7-3.6h7.3c2,0,3.7,1.6,3.7,3.6V51C69.4,53,67.7,54.7,65.7,54.7z M45,54.7h-7.3c-2,0-3.7-1.6-3.7-3.6V10.9
	c0-2,1.6-3.6,3.7-3.6H45c2,0,3.7,1.6,3.7,3.6V51C48.7,53,47,54.7,45,54.7z M24.3,54.7H17c-2,0-3.7-1.6-3.7-3.6v-7.3
	c0-2,1.6-3.6,3.7-3.6h7.3c2,0,3.7,1.6,3.7,3.6V51C28,53,26.4,54.7,24.3,54.7z"/>
</svg>
