<?xml version="1.0" encoding="utf-8"?>
<!-- Generator: Adobe Illustrator 18.1.1, SVG Export Plug-In . SVG Version: 6.00 Build 0)  -->
<svg version="1.1" id="Layer_1" xmlns="http://www.w3.org/2000/svg" xmlns:xlink="http://www.w3.org/1999/xlink" x="0px" y="0px"
	 viewBox="0 0 87.7 87.9" enable-background="new 0 0 87.7 87.9" xml:space="preserve">
<path fill-rule="evenodd" clip-rule="evenodd" fill="#FFFFFF" d="M83.6,87.9H4.1c-2.3,0-4.1-1.8-4.1-4.1V15.1C0,12.8,1.8,11,4.1,11
	h8.2v4.1c0,5.3,4.3,9.6,9.6,9.6c5.3,0,9.6-4.3,9.6-9.6V11h24.7v4.1c0,5.3,4.3,9.6,9.6,9.6c5.3,0,9.6-4.3,9.6-9.6V11h8.2
	c2.3,0,4.1,1.8,4.1,4.1v68.7C87.7,86.1,85.9,87.9,83.6,87.9z M79.5,33H8.2v46.7h71.3V33z M65.8,19.2c-2.3,0-4.1-1.8-4.1-4.1v-11
	c0-2.3,1.8-4.1,4.1-4.1c2.3,0,4.1,1.8,4.1,4.1v11C69.9,17.4,68.1,19.2,65.8,19.2z M21.9,19.2c-2.3,0-4.1-1.8-4.1-4.1v-11
	c0-2.3,1.8-4.1,4.1-4.1C24.2,0,26,1.8,26,4.1v11C26,17.4,24.2,19.2,21.9,19.2z"/>
</svg>
