<?xml version="1.0" encoding="utf-8"?>
<!-- Generator: Adobe Illustrator 18.1.1, SVG Export Plug-In . SVG Version: 6.00 Build 0)  -->
<svg version="1.1" id="Layer_1" xmlns="http://www.w3.org/2000/svg" xmlns:xlink="http://www.w3.org/1999/xlink" x="0px" y="0px"
	 viewBox="0 0 142.2 126.7" enable-background="new 0 0 142.2 126.7" xml:space="preserve">
<g>
	<rect x="1.5" y="100.5" fill="#FFFFFF" stroke="#E1E1E1" stroke-width="3" stroke-miterlimit="10" width="27.8" height="24.7"/>
	<rect x="29.3" y="100.5" fill="#FFFFFF" stroke="#E1E1E1" stroke-width="3" stroke-miterlimit="10" width="27.8" height="24.7"/>
	<rect x="57.2" y="100.5" fill="#FFFFFF" stroke="#E1E1E1" stroke-width="3" stroke-miterlimit="10" width="27.8" height="24.7"/>
	<rect x="85" y="100.5" fill="#FFFFFF" stroke="#E1E1E1" stroke-width="3" stroke-miterlimit="10" width="27.8" height="24.7"/>
	<rect x="112.8" y="100.5" fill="#FFFFFF" stroke="#E1E1E1" stroke-width="3" stroke-miterlimit="10" width="27.8" height="24.7"/>
	<rect x="29.3" y="75.7" fill="#FFFFFF" stroke="#E1E1E1" stroke-width="3" stroke-miterlimit="10" width="27.8" height="24.7"/>
	<rect x="57.2" y="75.7" fill="#FFFFFF" stroke="#E1E1E1" stroke-width="3" stroke-miterlimit="10" width="27.8" height="24.7"/>
	<rect x="85" y="75.7" fill="#FFFFFF" stroke="#E1E1E1" stroke-width="3" stroke-miterlimit="10" width="27.8" height="24.7"/>
	<rect x="112.8" y="75.7" fill="#FFFFFF" stroke="#E1E1E1" stroke-width="3" stroke-miterlimit="10" width="27.8" height="24.7"/>
	<rect x="57.2" y="51" fill="#FFFFFF" stroke="#E1E1E1" stroke-width="3" stroke-miterlimit="10" width="27.8" height="24.7"/>
	<rect x="85" y="51" fill="#FFFFFF" stroke="#E1E1E1" stroke-width="3" stroke-miterlimit="10" width="27.8" height="24.7"/>
	<rect x="112.8" y="51" fill="#FFFFFF" stroke="#E1E1E1" stroke-width="3" stroke-miterlimit="10" width="27.8" height="24.7"/>
	<rect x="85" y="26.2" fill="#FFFFFF" stroke="#E1E1E1" stroke-width="3" stroke-miterlimit="10" width="27.8" height="24.7"/>
	<rect x="112.8" y="26.2" fill="#FFFFFF" stroke="#E1E1E1" stroke-width="3" stroke-miterlimit="10" width="27.8" height="24.7"/>
	<rect x="112.8" y="1.5" fill="#FFFFFF" stroke="#E1E1E1" stroke-width="3" stroke-miterlimit="10" width="27.8" height="24.7"/>
</g>
</svg>
