<?xml version="1.0" encoding="utf-8"?>
<!-- Generator: Adobe Illustrator 19.0.0, SVG Export Plug-In . SVG Version: 6.00 Build 0)  -->
<svg version="1.1" id="Layer_1" xmlns="http://www.w3.org/2000/svg" xmlns:xlink="http://www.w3.org/1999/xlink" x="0px" y="0px"
	 viewBox="0 0 304.4 42" enable-background="new 0 0 304.4 42" xml:space="preserve">
<path id="XMLID_3_" fill="#51234D" d="M27.5,12.6c0,2.6-0.4,4.8-1.3,6.6c-0.9,1.8-2.1,3.2-3.6,4.3c-1.5,1.1-3.2,1.9-5.2,2.4
	s-4.1,0.7-6.3,0.7H8.3V41H0V1c1.8-0.2,3.6-0.3,5.5-0.5c1.9-0.1,3.6-0.1,5.1-0.1c5.9,0,10.2,1,12.9,3.1C26.2,5.6,27.5,8.6,27.5,12.6z
	 M19.1,13c0-2.4-0.7-4.2-2.1-5.2c-1.4-1-3.3-1.6-5.5-1.6c-1.3,0-2.4,0.1-3.2,0.2v14.4h2c2.9,0,5.1-0.6,6.7-1.7
	C18.4,18,19.1,15.9,19.1,13z"/>
<path id="XMLID_6_" fill="#51234D" d="M63,24.8c0,0.8,0,1.6-0.1,2.4c0,0.8-0.1,1.6-0.2,2.5c-0.2,1.7-0.6,3.3-1.2,4.8
	c-0.7,1.5-1.6,2.8-2.9,3.9c-1.3,1.1-2.8,2-4.7,2.6c-1.9,0.6-4.1,1-6.7,1c-2.6,0-4.8-0.3-6.6-0.8c-1.8-0.6-3.3-1.4-4.5-2.4
	c-1.2-1.1-2.1-2.4-2.8-3.9c-0.6-1.5-1.1-3.3-1.3-5.3c-0.1-0.7-0.1-1.5-0.2-2.2c0-0.8-0.1-1.6-0.1-2.4V0.8c0.6-0.1,1.1-0.1,1.7-0.2
	c0.5-0.1,0.9-0.1,1.2-0.1c0.6,0,1.2,0.1,1.8,0.2c0.6,0.1,1.2,0.4,1.7,0.7c0.5,0.3,0.9,0.8,1.3,1.4c0.3,0.6,0.5,1.4,0.5,2.4v20.1
	c0,1.4,0.1,2.7,0.3,3.9c0.2,1.2,0.5,2.2,1.1,3c0.5,0.8,1.3,1.5,2.2,1.9c1,0.5,2.2,0.7,3.8,0.7c2.7,0,4.6-0.8,5.7-2.4
	c1.1-1.6,1.6-3.8,1.6-6.6v-25c0.6-0.1,1.1-0.1,1.7-0.2s0.9-0.1,1.2-0.1c0.6,0,1.2,0.1,1.8,0.2c0.6,0.1,1.2,0.4,1.7,0.7
	c0.5,0.3,0.9,0.8,1.3,1.4C62.8,3.4,63,4.2,63,5.2V24.8z"/>
<path id="XMLID_8_" fill="#51234D" d="M77.3,34.3H89c1,0,1.8,0.1,2.4,0.4c0.6,0.2,1.1,0.6,1.5,1c0.4,0.4,0.6,0.9,0.8,1.4
	c0.1,0.5,0.2,1,0.2,1.6c0,0.4,0,0.9,0,1.4c0,0.6-0.1,0.9-0.1,1H69V0.8c0.6-0.1,1.1-0.1,1.6-0.2s0.9-0.1,1.2-0.1
	c0.6,0,1.2,0.1,1.8,0.2c0.6,0.1,1.2,0.4,1.7,0.7c0.5,0.3,1,0.8,1.3,1.4c0.3,0.6,0.5,1.4,0.5,2.4V34.3z"/>
<path id="XMLID_10_" fill="#51234D" d="M99.1,31.7c1.1,0.9,2.5,1.8,4.1,2.6c1.6,0.9,3.5,1.3,5.8,1.3c0.8,0,1.7-0.1,2.5-0.3
	c0.8-0.2,1.5-0.5,2.1-0.9c0.6-0.4,1.1-1,1.5-1.7c0.4-0.7,0.6-1.5,0.6-2.5c0-1-0.2-1.9-0.7-2.6c-0.4-0.7-1-1.3-1.7-1.8
	c-0.7-0.5-1.6-0.9-2.5-1.3c-1-0.4-1.9-0.7-2.9-1.1c-1.3-0.4-2.6-0.9-3.9-1.4c-1.3-0.5-2.5-1.2-3.5-2c-1-0.8-1.9-1.9-2.5-3.2
	c-0.7-1.3-1-2.9-1-5c0-1.9,0.4-3.6,1.1-5.1c0.8-1.5,1.8-2.7,3.1-3.7c1.3-1,2.8-1.7,4.6-2.2c1.7-0.5,3.5-0.8,5.5-0.8
	c1.3,0,2.5,0.1,3.7,0.3c1.1,0.2,2.2,0.4,3.1,0.7c0.9,0.3,1.7,0.6,2.3,0.9c0.6,0.3,1.1,0.6,1.4,0.8c1.1,0.6,1.7,1.5,1.7,2.7
	c0,0.5-0.2,1.1-0.6,2c-0.4,0.8-1,1.6-1.8,2.4c-1-0.8-2.3-1.6-3.9-2.3c-1.6-0.7-3.3-1.1-5.1-1.1c-0.7,0-1.5,0.1-2.2,0.2
	c-0.8,0.1-1.5,0.4-2.1,0.7c-0.6,0.3-1.1,0.8-1.5,1.4c-0.4,0.6-0.6,1.3-0.6,2.2c0,0.8,0.2,1.6,0.6,2.2c0.4,0.6,0.9,1.2,1.6,1.6
	c0.7,0.5,1.5,0.9,2.4,1.2c0.9,0.4,1.8,0.7,2.8,1.1c1.3,0.5,2.6,1,3.9,1.6c1.3,0.6,2.5,1.3,3.6,2.1c1.1,0.9,2,1.9,2.6,3.2
	c0.7,1.3,1,2.9,1,4.9c0,2.1-0.4,4-1.1,5.6c-0.7,1.6-1.8,3-3.1,4.1c-1.3,1.1-2.9,2-4.8,2.5c-1.9,0.6-3.9,0.8-6.1,0.8
	c-2.9,0-5.2-0.3-7-0.9c-1.8-0.6-3.1-1.1-3.9-1.6c-0.5-0.3-0.9-0.7-1.2-1.1c-0.3-0.4-0.5-0.9-0.5-1.5c0-0.7,0.3-1.5,0.8-2.5
	S98.5,32.6,99.1,31.7z"/>
<path id="XMLID_12_" fill="#51234D" d="M150.4,34.6c1.9,0,3.2,0.4,3.9,1.3c0.7,0.9,1.1,1.9,1.1,2.9c0,0.4,0,0.8,0,1.1
	c0,0.3-0.1,0.6-0.1,1h-26V0.8h25c0.1,0.4,0.1,0.8,0.1,1.1c0,0.3,0,0.7,0,1.1c0,1.4-0.4,2.5-1.1,3.1c-0.7,0.7-2.1,1.1-4,1.1h-11.8
	v9.9h12.7v6.4h-12.7v11.1H150.4z"/>
<path id="XMLID_14_" fill="#51234D" d="M189.6,29.2c0,2.3-0.4,4.2-1.2,5.7c-0.8,1.5-1.9,2.7-3.4,3.6c-1.5,0.9-3.2,1.5-5.2,1.9
	s-4.3,0.5-6.8,0.5h-12.1V1.1c2-0.2,4-0.4,5.8-0.5c1.8-0.1,3.6-0.2,5.2-0.2c3,0,5.5,0.2,7.6,0.7c2,0.5,3.7,1.1,4.9,2
	c1.2,0.9,2.1,2,2.6,3.2c0.5,1.3,0.8,2.7,0.8,4.3c0,1.3-0.2,2.5-0.6,3.5c-0.4,1-0.9,1.9-1.5,2.6c-0.6,0.8-1.3,1.4-2,1.9
	s-1.4,0.8-2,1.1c0.7,0.2,1.5,0.5,2.5,0.9c0.9,0.4,1.8,0.9,2.6,1.6c0.8,0.7,1.5,1.6,2,2.8C189.3,26.1,189.6,27.5,189.6,29.2z
	 M179.3,11.2c0-1.9-0.7-3.2-2-3.9c-1.3-0.7-3.1-1.1-5.2-1.1c-0.8,0-1.4,0-1.9,0.1c-0.5,0-0.9,0.1-1.2,0.1v11.2h4
	c2,0,3.5-0.6,4.6-1.7C178.7,14.6,179.3,13.1,179.3,11.2z M172.4,35c1.4,0,2.6-0.1,3.7-0.2c1.1-0.2,2-0.5,2.8-0.9
	c0.8-0.5,1.3-1.1,1.7-1.9c0.4-0.8,0.6-1.8,0.6-3.1c0-2.2-0.7-3.7-2.2-4.6s-3.3-1.4-5.6-1.4H169V35H172.4z"/>
<path id="XMLID_18_" fill="#51234D" d="M220.8,41l-3.4-9.8h-13.9l-3.3,9.8h-8.2L206,1.4c0.5-0.2,1.1-0.4,2-0.6
	c0.9-0.2,1.8-0.3,2.8-0.3c0.4,0,0.9,0,1.5,0.1c0.5,0.1,1.1,0.2,1.6,0.5c0.5,0.3,1,0.6,1.5,1.1c0.5,0.5,0.8,1.1,1.1,2L229.3,41H220.8
	z M210.6,8l-5.5,17.1h10.7L210.6,8z"/>
<path id="XMLID_21_" fill="#51234D" d="M265.5,41h-7l-17.1-26.4V41h-7.9V0.9c0.4-0.1,0.9-0.2,1.6-0.2c0.7-0.1,1.4-0.1,2-0.1
	c1.3,0,2.3,0.2,3,0.7c0.7,0.4,1.4,1.1,1.9,2l15.5,25.3V0.8c0.6-0.1,1.1-0.1,1.6-0.2s0.9-0.1,1.1-0.1c0.6,0,1.2,0.1,1.8,0.2
	c0.6,0.1,1.1,0.4,1.6,0.7c0.5,0.3,0.9,0.8,1.2,1.4c0.3,0.6,0.5,1.4,0.5,2.4V41z"/>
<path id="XMLID_23_" fill="#51234D" d="M304.4,20.2c0,2.8-0.4,5.5-1.1,8s-1.9,4.7-3.5,6.6c-1.6,1.9-3.6,3.4-6,4.5
	c-2.4,1.1-5.3,1.6-8.5,1.6h-12.8V1.1c2.6-0.3,4.8-0.5,6.6-0.6c1.8-0.1,3.4-0.1,4.7-0.1c4,0,7.3,0.5,10,1.6c2.6,1.1,4.7,2.5,6.3,4.3
	c1.6,1.8,2.7,3.9,3.4,6.3S304.4,17.5,304.4,20.2z M296,20.3c0-1.9-0.2-3.6-0.5-5.3c-0.4-1.6-1-3.1-1.9-4.3c-0.9-1.2-2.1-2.2-3.6-2.9
	c-1.5-0.7-3.4-1.1-5.7-1.1c-1.2,0-2.4,0.1-3.6,0.2v27.7h3.3c2.4,0,4.3-0.4,5.9-1.1c1.5-0.7,2.8-1.7,3.7-2.9c0.9-1.3,1.5-2.8,1.9-4.5
	C295.8,24.4,296,22.5,296,20.3z"/>
</svg>
