<?xml version="1.0" encoding="utf-8"?>
<!-- Generator: Adobe Illustrator 18.1.1, SVG Export Plug-In . SVG Version: 6.00 Build 0)  -->
<svg version="1.1" id="Layer_1" xmlns="http://www.w3.org/2000/svg" xmlns:xlink="http://www.w3.org/1999/xlink" x="0px" y="0px"
	 viewBox="0 0 75.8 53.4" enable-background="new 0 0 75.8 53.4" xml:space="preserve">
<path fill-rule="evenodd" clip-rule="evenodd" fill="#FFFFFF" d="M75.8,51C75.8,51,75.8,51,75.8,51c0,1.3-1.1,2.4-2.4,2.4H55.9
	c1.3-0.3,2.3-1.5,2.3-2.9c0,0,0,0,0,0h0c0,0,0-10.7-7.8-14.5c-3.3-1.7-3.6-1.3-5.2-1.7l0-4.6c0,0-1.8-1.4-2.4-5.8
	c-1.1,0.3-1.5-1.3-1.6-2.4c-0.1-1-0.7-4.2,0.7-3.9c-0.3-2.1-0.5-4.1-0.4-5.1c0.4-3.6,3.8-7.3,9.2-7.6c6.3,0.3,8.8,4,9.1,7.6
	c0.1,1-0.1,2.9-0.4,5.1c1.4-0.3,0.8,2.9,0.7,3.9c-0.1,1.1-0.4,2.7-1.6,2.4c-0.6,4.4-2.4,5.7-2.4,5.7l0,4.6c0,0,1.2,0.7,6,2.7
	c4.9,2,3.4,0.5,7.3,2.5C75.8,42.4,75.8,51,75.8,51L75.8,51z M40.4,35.2c5.4,2.2,3.7,0.6,8.1,2.7c6.9,3.4,6.9,12.8,6.9,12.8h0
	c0,0,0,0,0,0c0,1.4-1.2,2.6-2.6,2.6H2.6c-1.4,0-2.6-1.2-2.6-2.6c0,0,0,0,0,0h0c0,0,0-9.4,6.9-12.8c4.4-2.2,2.7-0.4,8.1-2.6
	c5.4-2.2,6.6-3,6.6-3l0.1-5.1c0,0-2-1.5-2.6-6.3c-1.3,0.4-1.7-1.5-1.7-2.6c-0.1-1.1-0.7-4.6,0.8-4.3c-0.3-2.3-0.5-4.5-0.4-5.6
	C18,4.4,21.8,0.3,27.7,0c6.9,0.3,9.6,4.4,10,8.4c0.1,1.1-0.1,3.2-0.4,5.6c1.5-0.3,0.9,3.2,0.8,4.3c-0.1,1.2-0.5,3-1.7,2.6
	c-0.6,4.8-2.6,6.3-2.6,6.3l0,5.1C33.8,32.3,35,33,40.4,35.2z"/>
</svg>
